<svg xmlns="http://www.w3.org/2000/svg" id="Layer_1" width="1000" height="1000" viewBox="0 0 1000 1000"><defs><style>.st0{fill:#884111}.st1{fill:#fffbd7}.st2{fill:#fff}.st4{fill:#f1bb1a}</style></defs><path d="M490 977C371.5 820.7 203.3 665.4 28.5 510.3 246.8 352 403.6 198 495.3 49a16258 16258 0 0 0 461.4 466.7A2532 2532 0 0 0 489.9 977" style="fill:#273a80"/><path d="m844.6 516.1 2.4-2.3h.2v-.1l-.3-.3 2.5-.8h.1c15.7-5 47.7-17.2 70.3-39.4 18-17.6 33.8-38.5 36.2-64.7a63 63 0 0 0-6-32.2 38 38 0 0 0-16.6-18l-1.5-.8-1-.4q-6.3-2.5-14.3-1.6-5.9 1-11.4 2.5h1.6c4.3.4 8.4 4.4 10.5 7.8l.2.4.4.7a15 15 0 0 1-2 16.5c-9.9 12.5-27.6 10.6-39.5 2.3A32 32 0 0 1 867 375a34 34 0 0 1-4.2-19.7c1.5-14.7 12.6-23.6 24.7-30l4-2c8.9-4.2 18.6-7 28.5-6.5q9.5.4 18.5 3.6c31 10.8 47.6 40 50.5 71.2 2.7 29.4-6.7 60.5-27.9 79.6a199 199 0 0 1-47.5 32.8 135 135 0 0 1-62.3 13.7l-3.4-.1h-1l-2.5-.3h-.6l-.1-.2z" class="st2"/><path d="m845.2 522.4-5-2 .3-.4.1-.2 1.3-1.1 1.5-1.4h1.3l2 .2h1.1l3.5.2c21 1.8 40.1 8.5 57.6 18.8a199 199 0 0 1 44.2 36.2c19.5 20.7 26.4 52.5 21.3 81.5-5.4 30.9-24.3 58.7-56 67a65 65 0 0 1-18.8 2 60 60 0 0 1-31.8-11 78 78 0 0 1-11-8.5 33 33 0 0 1-11.1-23.4 34 34 0 0 1 16.1-29.3c12.6-7.3 30.3-7.7 39 5.5a15 15 0 0 1 .4 17.4l-.2.3c-2.4 3.3-6.8 7-11.2 6.9l-1.8-.2h.2q5.5 2.1 11.2 3.5a29 29 0 0 0 14.4-.5q.7 0 1.3-.4a38 38 0 0 0 19.3-17.2l.3-.4a63 63 0 0 0 8.3-31.2c-.3-26.2-14.4-48.4-30.9-67.4-20.7-23.9-51.7-38.7-66.8-44.9Z" class="st2"/><path d="M733.8 856c18.5-22.5-3.5-65.7-27.7-78-26.1-13.5-56-16.2-84-24.1q-10.5-3-21-7.1a131 131 0 0 1-46.6-31.3 197 197 0 0 1-36-54.6q-5-10.5-8.2-21l-1-3.1c-12 31.7-38 77.9-61.3 100.8-.5.5-31.1-30.9-31.1-30.9-30.4-31.6-58.3-64.6-95.6-106-15.5 22.7-20.8 40.2-26.1 56.3a247 247 0 0 1-4.9 13.8c-10 25.1-26.9 64.9-47 87.5-21.8 24.5-49 43.6-83.2 41.1-29.5-2.2-65.2-18.8-67.1-49.7-1.2-18.6 7.6-36 25.9-42.1 16.4-5.6 37.7-1.4 47.6 13.9 7.5 11.7 8.6 30-8 34-4.9 1.3-7.4.4-11.3-2.2 22.5 18.5 65.6-3.5 78-27.7 13.5-26.1 16.2-56 24-84q3.6-13 9.2-25.7a131 131 0 0 1 34.3-46.6 2867 2867 0 0 0-64.4-67.4 2246 2246 0 0 0 80.4-74.3c34.4-33.1 67-66.2 99.4-99.2-21.6-13.4-38.4-17.7-54.2-23.1l-8.3-3c-25.2-10-64.9-27-87.6-47.1-24.4-21.8-43.5-49-41-83.2 2.1-29.4 18.8-65.1 49.6-67 18.6-1.3 36 7.6 42.2 25.8 5.5 16.5 1.3 37.8-14 47.6-11.7 7.6-30 8.6-34-7.9-1.2-5-.4-7.5 2.3-11.4-18.5 22.5 3.5 65.7 27.6 78 26.2 13.5 56 16.2 84 24.1q8.6 2.5 17 5.6c16.4 6.1 32.4 15 47.6 29.8q33.9-34.5 68.9-68.9a1671 1671 0 0 1 74.7 75c39.2 41.7 73 81.3 101.8 115.1 15.7-22.8 21-40.4 26.3-56.6q2.3-7 4.9-13.7c10-25.2 26.9-65 47-87.6 21.8-24.4 49-43.6 83.2-41 29.5 2 65.2 18.8 67.1 49.6 1.2 18.6-7.7 36-25.9 42.1-16.4 5.6-37.7 1.4-47.6-13.9-7.5-11.7-8.6-30 7.9-34 5-1.3 7.5-.4 11.4 2.3-22.5-18.6-65.6 3.4-78 27.6-13.5 26.1-16.2 56-24 84q-3.9 13.7-9.8 27c-7.3 16.2-18 31.8-35.1 46.5 23.5 27.6 42.6 49.1 57.4 61.7l-80.7 76.4-102.4 97c21.8 14 38.8 18.6 54.5 24l10.3 3.6c25.2 10 65 27 87.6 47.1 24.4 21.8 43.6 49 41 83.2-2 29.5-18.7 65.1-49.6 67a42 42 0 0 1-36.6-15.2 38 38 0 0 1-6.6-14.4c-3.8-15.8 1-34.7 15-43.8 11.7-7.6 30-8.6 34 7.9 1.3 4.9.4 7.5-2.2 11.4" class="st1"/><path d="M886 441.5a47 47 0 0 1-2.8 36.8l-.2.3c-7.5 14.1-20.3 25-33.4 34h-.1l-2.6.8q-6.1-5.2-13-12c5.1-2 17.4-7.5 23.3-16.2l1-1.4.9-1.4.8-1.4c6.3-11 9.6-26.1-9.2-38.8l-.5-.3v.2c-2.5 13.1-20.7 13.9-28.5 5-8.8-10-1.8-24.8 7-32.1a29 29 0 0 1 34-2.2 51 51 0 0 1 23.3 28.6Zm-10 117.8a47 47 0 0 1-.2 37 51 51 0 0 1-26 26.9l-1.2.5a29 29 0 0 1-32-5.7c-8.2-8-14-23.4-4.4-32.6 8.5-8.2 26.6-6 28 7.3v.2l.5-.3c19.8-11 17.7-26.3 12.3-37.9l-.6-1.2-1.7-3.2A55 55 0 0 0 828 532l12.2-11.6 5 2.1h.1v.1l.5.3a100 100 0 0 1 30.3 36.5Z" class="st2"/><path d="m753.7 602.3.3.2s10.3 102.8 24.3 130.3c12.5 24.8 39 42.9 49.7 35.6-9.7.7-17.8-4.5-23.2-14.4-13.3-24.5 2-53.3 32-53.3a31 31 0 0 1 20 7.1l1 .8q7.5 6.5 11.9 16.1c12 25.7-2.6 57.8-30 70.2s-60.7-9-81.7-52c-19.4-39.7-32.7-102.8-34.6-112L641 709.1c-15.8-5.3-32.7-10-54.5-23.8l102.4-97.1 80.7-76.5c-14.8-12.5-34-34-57.5-61.6a132 132 0 0 0 35.2-46.4c35.2 41.5 64 75.5 86.6 97.7q7 6.8 13 12l.4.2-.2.2-2.3 2.2-.1.1-1 1-.2.1-1.5 1.4-1.3 1.2-.2.2-.3.3-12.2 11.6zm17.8-431.6c.7 9.7-4.5 17.8-14.5 23.2a35.1 35.1 0 0 1-53.2-32c0-7.7 2.7-14.4 7-20a46 46 0 0 1 17-12.9c25.6-12 57.8 2.6 70.1 30 12.4 27.3-8.9 60.7-51.9 81.7-38.4 18.7-98.4 31.7-110.9 34.3q41.4 45.5 76 86.2c-5.4 16.1-10.7 33.8-26.4 56.6a2947 2947 0 0 0-124.7-139q-24.6-25.4-51.8-51a5019 5019 0 0 0-68.9 68.7 133 133 0 0 0-47.6-29.7c34.7-35.4 69.3-70.6 105-105.8l.8-.8 12.1-12q.2 0 .3-.2l.4-.4 1.4 1.3.6.6 1.4 1.2 1.5 1.5 1.6 1.5h.1l.2.3 6.8 6.5 5.4 5.2q41.2 40 77.7 78.9c12.4-1.3 103.2-11.2 128.9-24.2 24.7-12.5 42.8-38.9 35.6-49.7" class="st4"/><path d="m514 143.8-1.2 3.8-1 1.2q-.7-.8-1.5-1.3l-.3.4h-.1l-.3.3-.8-2.3h.2v-4.2l-.1-.3-.2-2.8c-.4-21 4.2-40.6 12.5-59A199 199 0 0 1 553 31.5C571.6 10 602.5-.2 632 1.8c31.2 2.2 60.7 18.2 72.2 49q3.4 9 4 18.5a60 60 0 0 1-7.8 32.7c-6 12.2-14.8 23.5-29.4 25.2-6.8.9-13.8-.5-19.8-3.7l-.6-.3q-6.1-3.4-10.4-9c-8.5-11.8-10.8-29.4 1.5-39.5a15 15 0 0 1 17.6-1.8c3.5 2 7.5 6 8 10.3V85v-.1q1.5-5.7 2.3-11.5a29 29 0 0 0-2.9-16.4l-.3-.6v-.1a39 39 0 0 0-18-15.8h-.2a63 63 0 0 0-32.4-5.4c-26.1 3-46.8 19.3-64 37.6-21.6 23-33.2 55.3-37.8 71zm-24 717-.2-2.8v-1.2l-.1-.4v-2.8l2-1 .4-.1c0 .3.5 1 2.8 6.4 6.5 15 22 45.7 46.3 66 19.4 16 41.8 29.6 68.1 29.4 10.2-.1 22-3.4 31.5-9.3a38 38 0 0 0 16.7-19.7l.2-.6.3-1q1.7-6.5 0-14-1.5-5.7-3.6-11.2v-.1h-.1l.2 1.7c.1 4.4-3.4 8.8-6.7 11.3l-.1.1a15 15 0 0 1-17.5.2c-13.5-8.5-13.4-26.2-6.4-39a32 32 0 0 1 10.2-10.9q8.5-5.7 18.7-5.8c14.8 0 24.8 10.1 32.4 21.5l1.9 3q0 .6.3 1.1l.8 2.7q2 6 5.5 10.6l.7.8q2.1 6.4 2.6 13.3.4 9.5-1.7 18.7c-7.7 32-35 51.5-65.7 57.6-29 5.7-60.9-.6-82-19.6a200 200 0 0 1-37.3-43.7 135 135 0 0 1-20.2-61Z" class="st2"/><path d="m513.7 150.7-.3-.3-1-1-.7-.5 1.1-1.2 1.1-3.8v-.1a100 100 0 0 1 33.6-34.4 47 47 0 0 1 36.6-3.7h.1a51 51 0 0 1 30.1 24.4 29 29 0 0 1-2.3 32.4c-7.2 9-21.9 16.3-32 7.7-9-7.5-8.7-25.8 4.4-28.6h.1l-.3-.5c-12.4-17.7-26.7-15.1-37.5-9.2l-1.4.9-1.4.8-2.8 1.9a53 53 0 0 0-15.4 23.1l-1.8 1.9-6.8-6.5-.2-.2h-.1z" class="st2"/><path d="M372 743c-24.5-26.5-48.8-54.4-76.8-86 5.3-16 10.6-33.6 26.1-56.3 37.3 41.4 65.2 74.4 95.6 106 0 0 30.6 31.4 31 31h.1q19.5 18.4 43 38l63.5-60.2a131 131 0 0 0 46.7 31.3l-98 93-12 11.3-1.6 1.5-1.4 1.2-.2-.2-1.8-1.5h-.1l-.3-.3L473 841c-27-23.2-50.2-45.3-72.1-67.6l-.2.2s-102.8 10.3-130.3 24.3c-24.7 12.5-42.8 39-35.6 49.7-.7-9.7 4.5-17.8 14.5-23.2 24.5-13.3 53.2 2 53.2 32 0 7.7-2.7 14.4-7 20a46 46 0 0 1-17 12.9c-25.6 12-57.8-2.6-70.2-30-12.3-27.3 9-60.7 52-81.7 39.5-19.2 102-32.5 111.8-34.5" class="st4"/><path d="M589.9 828.4a29 29 0 0 1 6.3 31.8l-.5 1.2a51 51 0 0 1-26.4 26.6 47 47 0 0 1-37 1l-.2-.2a99 99 0 0 1-37.2-29.9l-2.9-6.4-.2.1-2.2 1v-1l1.6-1.5 12-11.3v.2s7.8 17.4 19.7 23.9l2.9 1.4 1.6.8c11.6 5.1 27 6.8 37.6-13.1l.3-.6h-.2c-13.3-1.1-16-19.2-8-27.8 9.1-9.8 24.6-4.3 32.8 3.8" class="st2"/><path d="M554.5 715.5 491 775.7a901 901 0 0 1-43-38c23.2-23 49.3-69.2 61.4-101l1 3.1q3.2 10.5 8.1 21.1c11.2 24 23.3 41.5 36 54.6" class="st1"/><path d="m508.7 138.7.2 2.9v1.8l.1 1.5v1l-.2.1-2 1h-.2c-.1-.2-.6-1-2.8-6.3-6.6-15.1-22-45.8-46.4-66-19.3-16-41.8-29.7-68-29.4a63 63 0 0 0-31.6 9.3 38 38 0 0 0-17.1 21.3 29 29 0 0 0 0 14c.8 3.8 2.3 7.5 3.6 11.1v.2h.1l-.2-1.8c-.2-4.3 3.4-8.8 6.6-11.3l.2-.1a15 15 0 0 1 17.5-.2c13.4 8.5 13.3 26.3 6.3 39a32 32 0 0 1-10.2 11q-8.5 5.6-18.7 5.7c-14.7.1-24.8-10-32.3-21.4l-2-3-7.2-15.3a51 51 0 0 1-2.6-13.2q-.6-9.6 1.7-18.8c7.6-32 35-51.4 65.6-57.5 29-5.7 60.9.5 82.1 19.6a201 201 0 0 1 37.3 43.6 135 135 0 0 1 20.2 61.2" class="st2"/><path d="m508.8 146 .8 2.3-12.1 11.9-.8.8-1.3-1.4s-7.7-17.4-19.7-24l-1.5-.7-1.3-.7h-.1l-1.5-.7c-11.6-5.2-27-6.9-37.6 13l-.3.6h.2c13.3 1.2 16 19.2 8 27.8-9.2 9.8-24.6 4.3-32.8-3.7a29 29 0 0 1-5.8-33 51 51 0 0 1 26.3-26.7c11.4-5 24.6-5.9 37-1l.2.2a99 99 0 0 1 37.2 29.9l2.9 6.4.2-.1zM488 853.6l.2.2 1.3-1.2.1 1v3.2l.1 1v.2l.2 2.9a135 135 0 0 1-12.5 58.9 199 199 0 0 1-31.7 48.3c-18.7 21.5-49.6 31.7-79 29.6-31.2-2.2-60.8-18.2-72.3-49q-3.4-8.9-4-18.4a61 61 0 0 1 7.8-32.7c6.1-12.2 14.8-23.5 29.5-25.3a34 34 0 0 1 19.7 3.7l.6.3a32 32 0 0 1 10.4 9c8.5 11.8 10.8 29.5-1.5 39.5a15 15 0 0 1-17.6 1.9c-3.5-2-7.5-6-8-10.3v-1.9.2q-1.5 5.7-2.3 11.5a29 29 0 0 0 2.9 16.4l.3.6a38 38 0 0 0 18.2 16 63 63 0 0 0 32.4 5.3c26.1-3 46.7-19.3 64-37.6 21.6-23 33.2-55.4 37.8-71.1s0-.1 0-.1l1.2-3.8.2.2h.1z" class="st2"/><path d="m485.8 851.8-1.1 3.8v.1a100 100 0 0 1-33.5 34.4 47 47 0 0 1-36.7 3.7h-.1a51 51 0 0 1-30.1-24.4 29 29 0 0 1 2.3-32.3c7.2-9 21.9-16.4 32.1-7.8 9 7.6 8.6 25.8-4.4 28.6h-.2l.3.5c12.5 17.7 26.8 15.2 37.5 9.2l2.8-1.7 1.3-.9 1.5-1a54 54 0 0 0 15.5-23z" class="st2"/><path d="M353.9 305.3c15.8 5.4 32.6 9.7 54.2 23a5173 5173 0 0 1-99.4 99.3 2685 2685 0 0 1-80.4 74.3 2833 2833 0 0 1 64.4 67.4 131 131 0 0 0-34.3 46.6 3631 3631 0 0 0-106.1-112.2l-.3-.3-1-1-.8-.8-.5-.6 1.1-1 .1-.2 2.1-1.8 2.3-2 .3-.3 5.4-4.7 8-7.3q39-34.9 75.2-69.8 15-14.3 29.5-28.5a6242 6242 0 0 0 80.2-80.1" class="st4"/><path d="M168.9 246.7c9.7-.8 17.7 4.4 23.2 14.4 13.3 24.5-2 53.2-32 53.2a32 32 0 0 1-20-7 46 46 0 0 1-13-17c-12-25.6 2.6-57.8 30-70.1 27.4-12.4 60.7 8.9 81.7 51.9s34.8 113.2 34.8 113.2h.1q-14.5 14.4-29.5 28.6l-1.3-1.4s-10.4-102.7-24.3-130.2c-12.6-24.8-39-42.9-49.8-35.6Z" class="st4"/><path d="M183.6 567.2c9.8 9.1 4.3 24.6-3.8 32.8a29 29 0 0 1-31.8 6.3l-1.2-.5a51 51 0 0 1-26.6-26.3 47 47 0 0 1-1-37l.2-.3a99 99 0 0 1 29.8-37.2h.1l3-1.3 1.2 1.3 10.5 10.6c-5.6 3-15.2 9.3-19.7 17.4l-.8 1.5-.6 1.3-.2.3-.6 1.4-.6 1.5c-4.6 11.4-5.4 26 13.7 36.1l.5.3v-.2c1.2-13.3 19.3-16 27.8-8Zm-12.5-170.4c9 7.1 16.3 21.8 7.8 32-7.6 9-25.8 8.6-28.6-4.4v-.2l-.5.3c-17.7 12.5-15.2 26.8-9.2 37.5l1.7 2.9.8 1.3 1 1.4a55 55 0 0 0 25 16.1l-8 7.3-5.5 4.8-3-1h-.1a100 100 0 0 1-34.4-33.5 47 47 0 0 1-3.7-36.7 51 51 0 0 1 22.9-29.3l1.5-.9a29 29 0 0 1 32.3 2.4" class="st2"/><path d="M93.7 341.5h-.2q-5.7-1.5-11.5-2.3a29 29 0 0 0-16.3 2.9q-.4 0-.7.3a38 38 0 0 0-16 18.2 63 63 0 0 0-5.3 32.4c3 26.1 19.3 46.7 37.6 64 23 21.6 55.4 33.2 71.1 37.8s.1 0 .1 0l3.1 1-.3.2-2.3 2-2 1.8h-.6l-3 .3h-.1a134 134 0 0 1-58.7-12.5A199 199 0 0 1 40 455.8c-21.5-18.7-31.7-49.5-29.6-79 2.2-31.2 18.2-60.8 49-72.3q8.9-3.3 18.4-4a60 60 0 0 1 32.7 7.9c12.2 6 23.5 14.8 25.3 29.4.8 6.7-.5 13.5-3.5 19.4l-.5 1q-3.4 6.1-9 10.3c-11.8 8.6-29.4 10.9-39.5-1.4-4.1-5-5.2-11.6-2-17.3l.1-.3c2-3.5 6-7.6 10.4-8z" class="st2"/><path d="m150.3 501.6.8.9.9.9.3.3-3 1.3c-15.1 6.6-45.8 22-66 46.4-16 19.3-29.7 41.8-29.4 68 .1 10 3.2 21.4 8.8 30.8a38 38 0 0 0 20.5 17.5 29 29 0 0 0 15.3.4q5.7-1.5 11.2-3.6l-1.7.1c-4.3.1-8.8-3.4-11.3-6.6l-.2-.4-.5-.6a15 15 0 0 1 .5-16.7c8.4-13.4 26.2-13.4 38.9-6.3a32 32 0 0 1 9.3 7.8l.8 1a34 34 0 0 1 6.7 20c0 14.8-10.1 24.9-21.5 32.4q-1.8 1.3-3.8 2.4a60 60 0 0 1-27.7 9.4q-9.5.5-18.8-1.7c-32-7.6-51.4-35-57.5-65.7-5.7-29 .6-60.9 19.6-82a200 200 0 0 1 43.7-37.3 135 135 0 0 1 61.1-20.2l3.1-.2h.6-.1l-1.2 1.1z" class="st2"/><path d="m152.5 498.2-1-.1c-17.1-5-49.3-16.8-72.5-38.7-15-14-35.3-36.2-38.7-66-1.2-11 .8-23.7 5.6-34l.3-.7A42 42 0 0 1 63 339.6l.6-.4.6-.3 1-.5.4-.7h1.5q7.3-2.8 15.3-2 4.8.7 9.3 1.8l2.4.6c1.7.2 3 1.6 3 3.4 0 1.9-1.5 3.4-3.4 3.4l-.9-.1-2.6-.6q-4.4-1-8.5-1.6-6.2-.6-11.5 1.2v.2l-1.7.5-1.3.6-.9.5a35 35 0 0 0-14 16.3l-.2.4c-4.2 9.2-6 20.5-5 30.3 3.2 27.6 22.4 48.5 36.6 61.9 22.2 20.9 53.2 32.2 69.7 37a3.4 3.4 0 0 1-1 6.8Z" class="st0"/><path d="m155.6 499.2-1-.2-3.3-1a3.4 3.4 0 0 1 1.5-6.7h.2l3.6 1.1a3.4 3.4 0 0 1-1 6.8" class="st0"/><path d="M147.3 503.5a3.4 3.4 0 1 1 0-6.9h1.4c1.9 0 3.4 1.4 3.5 3.3 0 2-1.4 3.5-3.3 3.6z" class="st0"/><path d="M144.6 503.5q-29.1 0-57.5-12.7a203 203 0 0 1-49.3-32.4c-21.2-18.4-33-49.7-30.7-81.7 2.5-36.2 21.6-64.3 51.2-75.4a63 63 0 0 1 54 4q24.7 12.3 27 32.1c.9 7.3-.5 14.9-3.9 21.4l-.4.9q-4 7.1-10.1 11.6c-13 9.4-32.8 11.9-44.2-2-5-6.1-6-13.8-2.8-20.3v-.6l.7-.7c2.3-4 7.2-9 13-9.6h2.6a3.4 3.4 0 0 1-1 6.8h-1.1c-2.8.4-5.9 3.4-7.5 6.2l-.2.5-.2.3c-2.1 4-1.5 9 1.9 13 8.7 10.7 24.4 8.4 34.7.9q5-3.7 8.1-9.3l.4-.8a31 31 0 0 0 3.2-17.5c-1.3-11-8.7-19.4-23.4-26.7l-4-2a57 57 0 0 0-44.4-1.7c-27 10-44.4 36-46.7 69.4-2.1 29.9 8.7 59 28.3 76A196 196 0 0 0 90 484.6a132 132 0 0 0 57.2 12.2c2-.2 3.5 1.4 3.6 3.3 0 2-1.5 3.5-3.4 3.5z" class="st0"/><path d="M153.8 499q-.7 0-1.6-.3l-.4-.3-1.2-.7c-17.1-11-28.3-22-35.3-34.3l-.7-.7v-.6a50 50 0 0 1-3.5-38.5l.3-.8a55 55 0 0 1 24-30.5l1.7-.9c12-6.5 25.8-5.5 36.2 2.7 7 5.5 12 14.1 12.7 21.9q.8 8.6-4.5 15c-5 6-14 8.8-22 6.8q-7.5-1.9-10.9-8-15 12.6-5 30.6l.7 1.2.8 1.3.2.2.6 1.1 1 1.4c6.3 8.8 20.5 14 23.3 14.9a3.4 3.4 0 1 1-2.2 6.5 59 59 0 0 1-26.7-17.4l-1-1.5-1.9-3-.9-1.5c-9-16.3-5.5-30.8 10.3-41.9l4.8-3.3 1 5.1c1 5 4.7 6.9 7.6 7.6 5.4 1.3 11.7-.5 15-4.5q3.5-4.2 3-10a28 28 0 0 0-10.2-17.2c-8.1-6.4-19-7.1-28.6-2l-1.4.9a48 48 0 0 0-21.3 27.2l-.2.9a44 44 0 0 0 3.6 33.2l.2.4a94 94 0 0 0 32.2 31.4l1.5 1 .5.2a3.4 3.4 0 0 1-1.7 6.5Zm1.5-6.4" class="st0"/><path d="m153 501.5-5-.3a155 155 0 0 1-124.4-76.9 3.4 3.4 0 0 1 6.2-3 148 148 0 0 0 123.5 73.3 3.4 3.4 0 0 1-.2 6.9M91.4 672.4a31 31 0 0 1-9.2-1.4 41 41 0 0 1-22.4-19 66 66 0 0 1-9.3-32.6c-.3-30 17-54.4 30.2-70.3 20.4-24.6 50.9-40.2 67.2-47.2a3.4 3.4 0 0 1 2.7 6.3c-15.8 6.8-45.1 21.8-64.7 45.3-12.4 15-28.9 38.1-28.6 65.9a60 60 0 0 0 8.3 29 35 35 0 0 0 18.6 16q6.5 2 13.5.3 4.3-1 8.6-2.7l2.7-1a3.4 3.4 0 1 1 1.7 6.7l-2 .8q-4.5 1.7-9.4 3-4 .9-8 .9Z" class="st0"/><path d="M149.3 508.4a3.4 3.4 0 0 1-1.3-6.6l2.9-1.3a3.4 3.4 0 1 1 2.8 6.3l-3 1.4z" class="st0"/><path d="M95.6 710.5q-8 0-16-1.9c-30.6-7.3-53-32.8-60-68.4-6.3-31.5 1.6-64 20.3-85q21.4-23.6 44.5-37.8 29.5-18 62-20.7h.1l1.5-.1 2-.1h.6a3.5 3.5 0 0 1 3.7 3 3.4 3.4 0 0 1-3 3.8h-.9l-2.1.1-1 .5-.7-.3A132 132 0 0 0 88 523.2q-22.2 13.6-43 36.6c-17.3 19.3-24.5 49.6-18.7 79 6.4 32.9 27 56.5 55 63.1q8.9 2.1 17.7 1.6a57 57 0 0 0 29.8-11.2c13.6-9 20-18.4 20-29.5a31 31 0 0 0-15-25.9c-11.2-6.2-27-6.5-34.4 5.2-2.8 4.4-3 9.1-.5 13l.4.4.1.3c2.1 2.7 5.7 5.3 8.6 5.3h.8c1.9-.5 3.8.6 4.3 2.4.4 1.9-.6 3.7-2.4 4.2h-.1l-2.8.3c-5.6 0-11-4.3-13.8-8l-.3-.4-.5-.7c-4-6.2-3.8-13.8.3-20.5 9.6-15.2 29.6-15.2 43.6-7.5a35 35 0 0 1 11.2 10 37 37 0 0 1 7.3 22q.1 19.8-23 35.1l-4 2.5a64 64 0 0 1-33 10" class="st0"/><path d="M159.5 612q-6.3 0-12.7-2.5l-1.4-.5a55 55 0 0 1-28.4-28.1c-5.7-13-6-27-1-39.7l.2-.3q7.7-18.9 29.6-37.5v-1.8h2.2l.4-.3a3.4 3.4 0 0 1 4.4 5.2l-.3.4-.5.3-.6 1.2h-1a95 95 0 0 0-27.9 35.1l-.1.4c-4.4 10.9-4 23 .9 34.2a48 48 0 0 0 26 25c10 4 20.8 1.9 28-5.5 5-5 8.2-12.4 8-18.3q0-5.8-4.1-9.5a16 16 0 0 0-15.5-2.7c-2.7 1-6 3.3-6.5 8.2v5.4l-5.5-2.5c-17.1-9.2-22.4-23.1-15.4-40.5l.6-1.4v-.2l.7-1.4.9-1.8.8-1.5a55 55 0 0 1 21-18.8 3.4 3.4 0 0 1 3.3 6 49 49 0 0 0-18.3 16l-.7 1.4-.6 1.2-3.2-1.2 3 1.5-.5 1.3-.2.3-.4 1c-5.2 13-2.4 22.7 8.7 30q2.6-6.5 9.8-9.4c7.7-2.9 17-1.3 22.7 4q6 5.8 6.3 14.4c.2 7.8-3.7 17-10 23.3a32 32 0 0 1-22.7 9.6" class="st0"/><path d="M33.2 595.4q-.6 0-1.1-.2a3.4 3.4 0 0 1-2.2-4.4A155 155 0 0 1 144 499.2l5.7-1c1.8-.3 3.6 1 4 2.8.3 1.9-1 3.6-2.9 4l-5.5 1a148 148 0 0 0-108.9 87 3.4 3.4 0 0 1-3.2 2.3m480.5-441.2a3.4 3.4 0 0 1-3.4-2.8v-.9a3.4 3.4 0 0 1 6.8 0 3.4 3.4 0 0 1-3.4 3.7m0-3.7h.7zm3.4 0" class="st0"/><path d="M509.6 151.7q-2.3 0-3.2-2.2v-.2h-1.1v-3.5c0-2 1.9-3.6 3.9-3.4h2l.8 2.4.7 2 .1.3a3.4 3.4 0 0 1-3.2 4.6M376.7 968.2c-9.3 0-19.3-2.1-27.7-6l-.3-.1a43 43 0 0 1-19.2-16.8l-.1-.2-.6-1.1-.7-1.5-.1-.1-.3-.9q-3-7.4-2-15.7.6-5 1.7-9.4l.5-2.2v-1l.7-.8q1-1.3 2.7-1.4c2 0 3.5 1.5 3.5 3.4v.4l-.1.5-.6 2.6q-1.1 4.4-1.6 8.6a26 26 0 0 0 1.4 12l.3.8.1.2.2.3.5 1.1.4 1a35 35 0 0 0 16.4 14l.2.1a60 60 0 0 0 30.5 5c27.6-3.1 48.5-22.3 61.8-36.5 21-22.3 32.2-53.2 37-69.7a3.4 3.4 0 0 1 4.3-2.4c1.9.6 2.9 2.5 2.4 4.3-5 17.1-16.8 49.2-38.7 72.5-14 15-36.2 35.3-66 38.6q-3.2.4-6.6.4" class="st0"/><path d="M484.7 859.1a3.4 3.4 0 0 1-3.5-3.4v-.5l.2-.5 1-3.6.1-.3a3.4 3.4 0 1 1 6.6 2v.3l-1 3v.2l-.2.5a3.4 3.4 0 0 1-3.2 2.3" class="st0"/><path d="M489.6 857a3.4 3.4 0 0 1-3.4-3v-.9a3.4 3.4 0 0 1 6.7-1l.1 1v.2a3.4 3.4 0 0 1-3.1 3.8z" class="st0"/><path d="M489.7 858a3.4 3.4 0 0 1-3.4-3.1l-.1-.6a3.4 3.4 0 0 1 6.8-1v.6l.1.4a3.4 3.4 0 0 1-3.1 3.7z" class="st0"/><path d="M490 864.3a3.5 3.5 0 0 1-3.5-3.4v-1.4a3.4 3.4 0 0 1 6.8-.4v1.6c.1 2-1.4 3.5-3.3 3.6" class="st0"/><path d="m374.3 1001.4-7.8-.3c-36.1-2.5-64.3-21.7-75.3-51.2a64 64 0 0 1 4-53.9q12.3-24.9 32-27.1a37 37 0 0 1 21.9 4l.3.2.3.2a35 35 0 0 1 11.5 10c9.4 13 11.9 32.8-2 44.2a18.5 18.5 0 0 1-21.5 2.2c-4.1-2.4-9.1-7.3-9.7-13V914a3.4 3.4 0 1 1 6.8 1v1c.4 2.8 3.4 6 6.3 7.7l.4.2.5.3c4 2 8.8 1.1 12.8-2 10.6-8.8 8.4-24.5.8-34.8q-3.6-5-9.2-8.1l-.4-.2c-5.6-3-11.9-4.1-17.9-3.4-11 1.3-19.5 8.7-26.8 23.4l-1.9 4a57 57 0 0 0-5.6 27q.6 8.8 3.9 17.4c10 27 36 44.4 69.3 46.8 29.9 2 59-8.8 76.1-28.4a196 196 0 0 0 31.2-47.6q12.8-28.2 12.2-57.3c0-2 1.5-3.5 3.4-3.5s3.5 1.4 3.5 3.3a139 139 0 0 1-12.8 60.4 203 203 0 0 1-32.3 49.2c-17 19.5-44.8 31-74 31" class="st0"/><path d="M428.7 899.3a53 53 0 0 1-15.2-2.2l-1-.3a55 55 0 0 1-31.2-25.7 32 32 0 0 1 2.6-36.2 34 34 0 0 1 22-12.7q8.6-.8 15 4.5c6 5 8.7 14 6.7 22q-1.9 7.5-8 10.9 12.7 15 30.6 5l2.6-1.5.2-.2 1-.7 1.5-1a50 50 0 0 0 14.2-21.5 3.4 3.4 0 1 1 6.4 2.4A56 56 0 0 1 458 868l-2.9 1.9-1.5.8c-16.3 9.1-30.8 5.6-42-10.2l-3.3-4.8 5.5-1a10 10 0 0 0 7.3-7.6c1.3-5.4-.6-11.7-4.5-15a13 13 0 0 0-10-3c-5.9.6-12.8 4.7-17.2 10.2-6.4 8.2-7.2 19-2 28.6a48 48 0 0 0 28 22.7l1 .3c11.2 3 22.7 2 32.6-3.3l.6-.4a94 94 0 0 0 31.7-32.4v-2.4h1.6a3.4 3.4 0 0 1 6 3v.5l-.7 1v2.4h-1.5a102 102 0 0 1-32 33v1.4H452a50 50 0 0 1-23.3 5.8Z" class="st0"/><path d="M412.7 985a3.4 3.4 0 0 1-1.5-6.5 148 148 0 0 0 73.3-125c.1-2 1.7-3.4 3.6-3.3 2 0 3.4 1.7 3.3 3.6 0 2.2-.2 4.8-.3 6.4a155 155 0 0 1-76.9 124.5z" class="st0"/><path d="M608.5 957.7c-29.6 0-53.8-17.2-69.5-30.2-24.7-20.4-40.2-50.9-47.3-67.2a3.4 3.4 0 0 1 6.3-2.7c6.9 15.7 21.8 45 45.4 64.6 15 12.4 38 29 65.9 28.6 10 0 21-3.3 29.7-8.7a35 35 0 0 0 15-17l.2-.8.2-.6.2-.8q1.5-6 0-12.5-1.1-4.2-2.7-8.5l-1-2.7v-.9a3.4 3.4 0 0 1 6.7-.8l.7 2q1.7 4.5 3 9.3a33 33 0 0 1 0 15.7l-.3 1.1-.2.6-.4 1.2q-4.5 12.1-17.8 20.5a67 67 0 0 1-33.3 9.8z" class="st0"/><path d="M608.7 990.8c-24.3 0-47.4-8-63.6-22.5a204 204 0 0 1-37.9-44.5q-18-29.6-20.7-62.2l-.5-1.6.4-.4v-.9l-.1-1v-1.3l-.2-6 2.6-.1 5.2-2.5 1.5 3.8 2.6 5.9.3.7v.7h-3.4l-1.5 1.4v1.8q2.7 30.4 19.7 58.1 13.6 22.3 36.6 43c19.4 17.3 49.7 24.5 79.1 18.7 32.8-6.5 56.3-27 63-55q2.1-9 1.6-17.7-.3-6.2-2.4-12.4a3.4 3.4 0 0 1 6.5-2.2q2.4 7.1 2.8 14.2.4 9.8-1.8 19.7c-7.3 30.6-32.8 53-68.3 60.1q-10.8 2.1-21.5 2.1Z" class="st0"/><path d="M639 917.9q-5.5 0-10.7-3.3c-15.2-9.6-15.2-29.5-7.5-43.5q3.8-6.7 10.1-11.3l1.3-.9c6-4 13.3-6.3 20.5-6.3h.1q19.8-.1 35.1 23l2 3.1a3.4 3.4 0 1 1-5.9 3.5l-1.8-2.8c-9-13.6-18.4-20-29.4-20a31 31 0 0 0-26 15c-6.2 11.2-6.5 27 5.2 34.4 4.6 2.9 9.7 2.9 13.6 0 2.8-2.2 5.5-5.7 5.4-8.6v-.9l-.2-.4v-.6a3.4 3.4 0 0 1 6.8-.6q.3 1 .3 2.3c.1 5.8-4.2 11.3-8 14.2l-.3.1A18 18 0 0 1 639 918Zm-89.4-22.2q-9.5 0-18.5-3.6l-.3-.1a101 101 0 0 1-38-30.2l-.4-.1-.5-.9-.2-.3-.5-.6c-1-1.3-1-3.3.2-4.5a3.4 3.4 0 0 1 5.2.3l.3.3 1.4.5v1.2q17.8 20.8 35 28l.5.1a43 43 0 0 0 34.1-1c11-4.8 20-13.8 24.6-24.7l.3-.8.2-.4c4-10 1.8-20.8-5.5-28-5-5-12.4-8.2-18.4-8q-5.7 0-9.5 4a16 16 0 0 0-2.6 15.6c1 2.7 3.4 6.1 8.3 6.5h5.5l-2.8 5.5c-9.4 17.7-24 22.7-42 14.7l-1.9-.8-2.9-1.5c-12.8-7-20.8-24.8-21.1-25.6a3.4 3.4 0 0 1 6.3-2.8c0 .2 7.4 16.5 18.1 22.3l1.4.8 1.3.6 1.5.7q20.1 9 31.2-8.2-6.5-2.6-9.3-9.8c-3-7.6-1.3-17 4-22.6q5.7-6 14.4-6.4c7.8-.2 17 3.8 23.3 10 9.4 9.2 12 22.8 7 35.5l-.1.5-.4 1a54 54 0 0 1-49.2 32.8" class="st0"/><path d="m581.8 978.4-1.1-.1A155 155 0 0 1 487.5 855l-.2-1.2c-.3-1.8.9-3.6 2.7-4s3.7.9 4 2.7l.2.6v.8l1.7 8.9a148 148 0 0 0 87 108.9 3.4 3.4 0 0 1-1 6.6m324-289.8q-3.6 0-7.2-.7-5-1.1-9.6-2.9h-.2l-.4.5-2-1.3-2-.6v-2.6q0-1.6 1.3-2.6l5.6-5.7v5.9q4.4 1.6 8.7 2.6 6.3 1.3 12-.2l1.2-.4.6-.2c8.6-3 14.3-10.2 17.6-15.7l.2-.4a60 60 0 0 0 7.8-29.4c-.3-27.7-17.2-50.5-30-65.2-19.7-22.8-48.9-37.1-65-43.7h-.7l-.5-.6-3-1.2-1.4-.6a3.4 3.4 0 1 1 2.6-6.4l1.4.6 3 1.3 1.3.5c16.7 6.9 47 21.8 67.5 45.6 13.5 15.5 31.4 39.6 31.7 69.6.2 11-3.1 23.3-8.7 33l-.4.6a41 41 0 0 1-21 18.5l-.6.2-.4.4h-1a31 31 0 0 1-8.4 1.2Z" class="st0"/><path d="M844.7 520.8h-1.3a3.4 3.4 0 1 1 0-7h1.3a3.4 3.4 0 1 1 0 7" class="st0"/><path d="M901.8 726.8h-2.4A64 64 0 0 1 866 715a80 80 0 0 1-11.5-8.9q-12-11.5-12.2-25.9a38 38 0 0 1 7.4-22.8A35 35 0 0 1 860 648c13.8-8 33.8-8.5 43.7 6.6a19 19 0 0 1 .3 21l-.3.5c-2.8 3.9-8.2 8.3-14 8.3h-.2l-2.3-.2a3.4 3.4 0 0 1 1.5-6.7h.9c3.1 0 6.5-2.7 8.5-5.4l.2-.4.4-.5c2.3-3.7 2-8.6-.8-12.8-7.5-11.5-23.4-11-34.4-4.5q-5 3-8.4 7.6l-.8 1a31 31 0 0 0-5.3 17.7q.3 11.5 10.1 21l2.7 2.4a74 74 0 0 0 11.5 7.8q13.5 7.9 26.3 8.4a61 61 0 0 0 17.7-2c27.9-7.3 47.9-31.3 53.7-64.2 5-29.6-2.7-59.7-20.5-78.6a197 197 0 0 0-43.5-35.6 132 132 0 0 0-57.7-18.4 3.4 3.4 0 1 1 .4-6.9l1.8.1q30.7 2.7 59 19.3 23.3 13.6 45 36.8c19.2 20.5 27.7 52.8 22.2 84.5-6.2 35.6-28.1 61.7-58.6 69.6a68 68 0 0 1-17.3 2.3Z" class="st0"/><path d="M836.6 629.6c-8.3 0-16.2-3.1-22.3-9.1a34 34 0 0 1-10.5-23.1q0-8.7 6-14.5a23 23 0 0 1 22.6-4.5q7.3 2.8 10 9.1 17-11.5 7.5-31.3l-.5-1.1-.8-1.7-.8-1.3a52 52 0 0 0-21.3-17.1 3.4 3.4 0 1 1 3-6.2 58 58 0 0 1 25.1 21.4l1.6 3.2c8.4 17.8 3.6 32.5-13.8 42.2l-5.6 3v-5.7c-.6-4.8-4-7-6.7-8a16 16 0 0 0-15.4 3q-4 3.8-4 9.5c0 6 3.4 13.3 8.4 18.2a26 26 0 0 0 28.2 4.9l1-.5a48 48 0 0 0 24.4-25 43 43 0 0 0 .2-34.2l-.1-.4a95 95 0 0 0-29.2-35l-.8-.4-1-1a3.4 3.4 0 0 1-.5-4.8q1.7-1.6 3.8-1h.3l2.1 1.6.5.4a102 102 0 0 1 31 37.1l.2.7a50 50 0 0 1-.2 39.7 55 55 0 0 1-27.9 28.6l-1.2.5q-6.6 2.8-13.3 2.8m7-36.7" class="st0"/><path d="M963.1 610.3q-2.3 0-3.2-2.2a148 148 0 0 0-118.5-86 3.4 3.4 0 1 1 1-6.8l8 1.2a155 155 0 0 1 116 89.2 3.4 3.4 0 0 1-3.3 4.6M849.5 516a3.4 3.4 0 0 1-1-6.7c16.4-5.2 47.1-17.1 68.9-38.5 13.9-13.7 32.7-35 35.2-62.6a60 60 0 0 0-5.5-30l-.2-.4q-5.9-11.8-15-16.5l-1.3-.6-.9-.4A26 26 0 0 0 917 359q-4.2.6-8.7 1.8l-2.6.7c-1.8.4-3.7-.8-4-2.7-.5-1.9.7-3.7 2.5-4h.2l2.2-.6a79 79 0 0 1 9.6-2 33 33 0 0 1 18.8 3 42 42 0 0 1 18.1 19.6l.2.5a67 67 0 0 1 6.2 33.6c-2.8 29.9-22.6 52.5-37.3 66.9-22.8 22.4-54.7 34.8-71.6 40.1q-.6.3-1 .2Z" class="st0"/><path d="M846.9 516.8a3.4 3.4 0 0 1-1-6.7l1.7-.5.4-.5h1.5a3.4 3.4 0 0 1 2.2 6.1l-.8.8h-1z" class="st0"/><path d="M854.5 521.2h-3.3l-3.5-.2h-1.4l-1.8-.2h-.5l-1.8-.2-2-1.9v-1.2a3.5 3.5 0 0 1 4.8-3.5h2l1 .2h3.4q31 .8 60.7-13.3a196 196 0 0 0 46.6-32.2c19.3-17.5 29.6-46.9 26.8-76.8-3-33.3-21-58.8-48.2-68.2q-8.6-3-17.5-3.5a57 57 0 0 0-30.8 8.2c-14.5 7.6-21.7 16.3-22.8 27.2a31 31 0 0 0 12.2 27.3c10.5 7.3 26.3 9.3 34.8-1.6a12 12 0 0 0 1.7-12.8l-.3-.5-.1-.3c-1.8-3-5.1-6-8-6.2h-.9c-1.7.3-3.5-.8-4-2.6s.7-3.7 2.6-4.1l.6-.1q1.1-.2 2.3 0c5.8.4 10.7 5.3 13.2 9.3l.2.5.5.8c3.3 6.5 2.4 14-2.4 20.2-11.1 14.2-31 12.2-44.1 3a35 35 0 0 1-10.6-11.9 38 38 0 0 1-4.6-21.6c1.3-13.4 10-24 26.5-32.7q2-1.2 4.1-2.1 15.8-7.5 30.2-6.9 9.9.5 19.5 3.9c29.7 10.3 49.4 38 52.8 74 3 32-8.2 63.7-29 82.6A203 203 0 0 1 915 507q-29.6 14-60.5 14" class="st0"/><path d="M848.2 516.9a3.4 3.4 0 0 1-2.1-6.2v-1.6h2.4a94 94 0 0 0 31.5-32l3.1 1.3-3-1.6a44 44 0 0 0 2.9-33.5s-.3-.8-.3-.8a48 48 0 0 0-21.7-26.7l-1.5-.8c-9.6-5-20.6-4-28.5 2.6a28 28 0 0 0-9.8 17.4q-.5 5.9 3.1 9.9c3.4 3.9 9.8 5.6 15.2 4.2a10 10 0 0 0 7.3-7.6v-.3l1.3-4.7 4.5 2.9c16.6 11.1 20.1 26.1 10.3 43.3l-.9 1.5-.3.5-.7 1-.9 1.4a57 57 0 0 1-25 17.5 3.4 3.4 0 0 1-2.5-6.4 51 51 0 0 0 22.7-16.2l.6-1 .2-.4.8-1.3q11-19-5-31.9-3.2 6.2-10.6 8.3c-8 2.2-17-.4-22.2-6.3a20 20 0 0 1-4.8-15c.6-7.7 5.4-16.4 12.3-22a32 32 0 0 1 36-3.5l1.8 1a55 55 0 0 1 24.8 30.2v.3a50 50 0 0 1-3 39.5l-.2.4c-6.5 12.1-17 23-33 34v1.7h-2.4l-.3.2-.4.2q-.8.5-1.7.5m1.3-4.4" class="st0"/><path d="M844.8 519.6h-.1c-2 0-3.5-1.6-3.5-3.5s1.5-3.4 3.4-3.4l2-.2 6.9-.5c84.6-8 116.9-74.8 117.2-75.5a3.4 3.4 0 0 1 6.2 3A155 155 0 0 1 847 519.3zM273.6 388.7c-1.6 0-3-1.1-3.3-2.7-.2-.7-14-70.3-34.6-112.4-20-41-51.8-61.8-77.2-50.3a55 55 0 0 0-29 31.1 44.5 44.5 0 0 0 12.7 50.2 28 28 0 0 0 18 6.3c12.6 0 23.1-5.6 29-15.4a33 33 0 0 0-.1-32.8c-3.4-6.2-9.6-13.4-20-12.6l-2.7.3c-1.9.4-3.7-.9-4-2.7s1-3.7 2.8-4q1.8-.4 3.4-.5c11-.8 20.4 5 26.5 16.3a40 40 0 0 1 0 39.6 39 39 0 0 1-35 18.7A35 35 0 0 1 138 310a51 51 0 0 1-15-58 62 62 0 0 1 32.7-35c29-13 64.4 9 86.2 53.6 21 43 35 113.3 35.1 114a3.4 3.4 0 0 1-3.4 4.1" class="st0"/><path d="M258.4 619.4q-1.5 0-2.6-1.2a3620 3620 0 0 0-104.7-110.8l-1-1-.6-.7-1-.9v-.1l-3.8-3.9 2.8-2.5v-2h2.2l.8-.7.2-.1 2.2-2 .4-.3.1-.1 5.3-4.7 2.1-2 6-5.2a3004 3004 0 0 0 104.5-98.3c29.7-29 58.4-58 80.1-80a3.4 3.4 0 1 1 5 4.8 6385 6385 0 0 1-109.8 108.7 2996 2996 0 0 1-81.2 75.2l-2.1 2-5.3 4.6-.8.7-2 1.7v.1l.2.2v1l.6.6 10.4 10.7c32.5 33.2 62.5 65 94.5 100.4a3.4 3.4 0 0 1-2.5 5.7Zm113.6 127q-1.5 0-2.5-1c-18.8-20.4-37.7-41.8-57.7-64.4l-19.2-21.7a3.4 3.4 0 1 1 5.2-4.6l19.2 21.7c20 22.6 38.8 44 57.5 64.3a3.4 3.4 0 0 1-2.5 5.7m116.6 111.9-2.3-1.6-.6-.4-1.2-1.1-.9-.7-12.9-11a1124 1124 0 0 1-72.4-67.8 3.4 3.4 0 1 1 5-4.8 1121 1121 0 0 0 84.5 78.1s.3.2.3.2l.7-.6 110-104.3a3.4 3.4 0 0 1 4.7 5zM514 147.2l-1-.1a3.4 3.4 0 0 1-2.3-4.3c5-17 16.7-49.2 38.6-72.5 14.1-15 36.3-35.2 66-38.6 11.1-1.3 24 .8 34.3 5.6l.4.2q13.2 6.3 19.2 16.8l.3.6.8 1.7.8.4v1.5q2.8 7 1.9 15.2-.7 5-1.8 9.8l-.6 2.6a3.4 3.4 0 0 1-6.7-1.6v-.4l.6-2.2q1.1-4.5 1.6-8.9.7-6.1-1.2-11.5h-.1l-.6-1.7-.6-1.3-.4-.8a35 35 0 0 0-16.3-14l-.4-.3c-9.2-4.2-20.6-6-30.4-5-27.5 3.2-48.4 22.4-61.8 36.6-20.9 22.2-32.2 53.2-37 69.7a3.4 3.4 0 0 1-3.3 2.5M667.3 85" class="st0"/><path d="m512.8 151.1-1-.1a3.4 3.4 0 0 1-2.3-4.3l1.2-3.8a3.4 3.4 0 0 1 6.7 1v.5l-1.3 4.3a3.4 3.4 0 0 1-3.3 2.4" class="st0"/><path d="M505.7 147.2v-1.1a3.4 3.4 0 0 1 6.8-.4v.9z" class="st0"/><path d="M509 149.3a3.5 3.5 0 0 1-3.4-3v-1c-.1-1.9 1.3-3.6 3.1-3.7a3.3 3.3 0 0 1 3.7 3v.4l-3.4.4h3.4a3.4 3.4 0 0 1-3.4 3.9" class="st0"/><path d="M508.7 143.6a3.4 3.4 0 0 1-3.4-3.2v-1.7a3.4 3.4 0 1 1 6.8 0v1.3a3.4 3.4 0 0 1-3.2 3.6z" class="st0"/><path d="M508.7 142a3.4 3.4 0 0 1-3.4-3.3q-.7-30.6 12.7-60.3 11.2-24.8 32.3-49.2c18.5-21.3 49.8-33 81.8-30.8 36.2 2.6 64.3 21.7 75.3 51.2a63 63 0 0 1-3.9 53.8c-8.4 16.8-18.9 25.6-32.1 27.2-7.4 1-15-.5-21.7-4l-.6-.3q-7.1-4-11.7-10.1c-9.4-12.9-11.8-32.7 2.1-44.1a19 19 0 0 1 21.6-2.1c4 2.3 9 7.1 9.6 12.9s0 .1 0 .1v2.4l-.3.8a3.4 3.4 0 0 1-6.6-1.8v-1c-.4-2.8-3.4-5.9-6.3-7.6l-.4-.2-.6-.3c-4-2-8.7-1.2-12.6 2.1-10.7 8.7-8.5 24.4-1 34.7q3.8 5 9.3 8.1l.6.3c5.4 2.9 11.7 4 17.7 3.3 11-1.3 19.5-8.7 26.8-23.3l1.9-4a57 57 0 0 0 1.7-44.5c-10-26.9-36-44.4-69.3-46.7-29.9-2.1-59 8.8-76 28.4a196 196 0 0 0-31.3 47.5q-12.8 28.3-12.2 57.4c0 1.9-1.5 3.5-3.4 3.5Z" class="st0"/><path d="M590.5 177.5q-7.2 0-12.8-4.7c-5.9-5-8.7-14-6.7-22q1.9-7.4 8-10.8-12.6-15.2-30.6-5l-1.3.7-1.4.8-2.5 1.8a50 50 0 0 0-14.3 21.5 3.4 3.4 0 1 1-6.4-2.4 56 56 0 0 1 18.2-25.8l1.4-.9 1.5-.9 1.5-.9c16.3-9 30.9-5.6 42 10.2l2.7 4-4.5 2h-.4a10 10 0 0 0-7.2 7.4c-1.4 5.4.5 11.8 4.5 15q4 3.6 10 3c5.8-.6 12.8-4.7 17.1-10.2 6.5-8 7.2-19 2-28.5a48 48 0 0 0-28-22.7l-1-.3a44 44 0 0 0-33.1 3.6l-.3.2a94 94 0 0 0-31.5 32.2v.5l-1 1-.3.5a3.4 3.4 0 1 1-5.8-3.7l.2-.3v-.4l.8-.8c11-16.8 21.8-28 34-34.9l.7-.7h.6a51 51 0 0 1 38.6-3.5l.8.2a55 55 0 0 1 31.4 25.8c6.5 12 5.5 25.8-2.7 36.1a34 34 0 0 1-24.2 12.9m-74.3-30.8" class="st0"/><path d="M510.7 149.3h-.2a3.4 3.4 0 0 1-3.3-3.6l.4-6.4a155 155 0 0 1 76.8-124.5c1.7-.8 3.8-.1 4.6 1.6.9 1.7.2 3.8-1.5 4.6A148 148 0 0 0 514 146c-.1 2-1.6 3.3-3.4 3.3m-6.9-5.3q-2 0-3.1-2c-6.9-15.8-21.8-45.1-45.4-64.7-15-12.4-38-28.9-65.8-28.6-10 0-21 3.4-29.8 8.8a35 35 0 0 0-14.9 17l-.3.7-.1.6-.2.7q-1.7 6.2 0 12.6a75 75 0 0 0 3.4 10.8l.3.9v.4a3.4 3.4 0 0 1-6.8 1l-.8-2.4q-1.7-4.4-2.9-9.2a32 32 0 0 1 .4-16.8l.1-.6.5-1.2A41 41 0 0 1 356 51.6c9.7-6 22.2-9.7 33.3-9.8 30-.2 54.5 17.1 70.3 30.2 24.7 20.5 40.2 51 47.3 67.2a3.4 3.4 0 0 1-3.2 4.8" class="st0"/><path d="m504.5 151.7-1.2-3.6-.2-.5-2.2-5-.6-.5v-1.5a3.4 3.4 0 0 1 4.8-3.1 132 132 0 0 0-19.6-58.2Q472 57 449 36.4c-19.4-17.4-49.7-24.6-79.1-18.8-32.8 6.5-56.3 27-63 55q-2.1 8.9-1.6 17.8.3 6 2.4 12.1l7 14.9 1.8 2.7c9 13.6 18.4 20 29.4 20h.1a31 31 0 0 0 25.9-15c6.2-11.2 6.5-27-5.1-34.4-4.7-3-9.7-2.9-13.6 0-2.9 2.2-5.6 5.7-5.5 8.6l.1 1a3.4 3.4 0 0 1-6.6 1.8l-.4-2.7c-.1-5.7 4.3-11.2 8-14l.3-.2a18.5 18.5 0 0 1 21.3-.3c15.3 9.6 15.3 29.6 7.5 43.5a35 35 0 0 1-11.3 12.2c-6 4-13.3 6.3-20.5 6.3h-.2q-19.8.1-35-23l-2-3-.2-.4L301 105a55 55 0 0 1-2.7-14.2 69 69 0 0 1 1.8-19.7c7.3-30.7 32.8-53.1 68.3-60.1 31.5-6.2 64 1.6 85 20.4q23.8 21.2 37.9 44.4a139 139 0 0 1 20.7 62.7v.3l.2 2.5v2.2l.2 1.4v4.5h-2.7z" class="st0"/><path d="M429.1 183.6c-7.7 0-16.6-3.9-22.8-10a32 32 0 0 1-6.5-36.8 55 55 0 0 1 28-28.4c13-5.8 27-6.1 39.7-1l.3.1c12.8 5.3 25 15 37.6 29.7h1.8v2.2a3.5 3.5 0 0 1-.2 4.9 3.4 3.4 0 0 1-4.7-.1l-.1-.1h-1.9v-2.2a95 95 0 0 0-35-28l-.4-.1a44 44 0 0 0-34.2.8 48 48 0 0 0-24.6 24.9l-.4 1.1a26 26 0 0 0 5.5 28.1c5 5 12.3 8.2 18.3 8q5.7-.1 9.5-4.1a16 16 0 0 0 2.6-15.6 10 10 0 0 0-8.3-6.5s-5.5 0-5.5 0l2.8-5.5c9.4-17.7 24-22.7 42-14.7l.5.2.5.2 2.2 1.1 1.6.8c12.8 7 20.8 24.8 21 25.6a3.4 3.4 0 1 1-6.2 2.8c0-.2-7.4-16.5-18.1-22.3l-1.5-.8-1.4-.7-1-.4-.4-.2q-20-9-31.1 8.2 6.4 2.6 9.3 9.8c3 7.6 1.3 17-4 22.6q-5.7 6-14.4 6.4z" class="st0"/><path d="M508 149.7a3.4 3.4 0 0 1-3.5-3.2l-.1-.8-1.6-9a148 148 0 0 0-87.1-109 3.4 3.4 0 0 1 2.3-6.5 155 155 0 0 1 93.4 125c0 2-1.5 3.5-3.4 3.5m133 562.9q-1.5 0-2.5-1.1a3.4 3.4 0 0 1 0-4.9l82.6-78.2a3.4 3.4 0 1 1 4.7 5l-82.5 78.2q-1 1-2.3 1m114-106.9h-1.3a3.4 3.4 0 0 1-2.2-6l90.6-86q-5.1-4.4-10.7-9.8c-22.6-22.1-50.6-55.3-86.2-97.2l-.6-.8a3.4 3.4 0 1 1 5.2-4.4l.7.8c35.4 41.7 63.3 74.7 85.8 96.7q6.8 6.6 12.8 11.8l3 2.6-2.7 2.9-19 18zm-44-241.1q-1.5 0-2.6-1.2c-28-32.7-52-60-75.8-86a3.4 3.4 0 0 1 5.1-4.7c23.8 26 48 53.5 76 86.2a3.4 3.4 0 0 1-2.7 5.7" class="st0"/><path d="M391.7 270.2q-1.3 0-2.4-1a3.4 3.4 0 0 1 0-4.9l.2-.2c34-34.6 69.1-70.4 104.8-105.6l.8-.8 11.8-11.6.2-.2.3-.3 2.9-2.8 2.4 2.2 1.8 1.8.2.1 1.4 1.4.2.2 2.8 2.6.2.2.3.3 12 11.4.1.2c25.8 25 51.3 50.8 77.8 79a3.4 3.4 0 0 1-5 4.8c-26.5-28.2-51.8-54-77.6-78.8l-.2-.2-5.2-5-6.7-6.5-.4-.4-3-2.8-1-1-10.5 10.3-.7.8c-35.7 35.1-70.8 71-104.8 105.6l-.2.2q-1.1 1-2.5 1m-99 302.6q-1.4 0-2.5-1.1a2881 2881 0 0 0-64.3-67.3l-2.6-2.6 2.7-2.4a2244 2244 0 0 0 80.3-74.2c33.8-32.6 66.3-65.6 99.3-99.3a3.4 3.4 0 0 1 4.9 0 3.4 3.4 0 0 1 0 4.9 5175 5175 0 0 1-99.4 99.3 2469 2469 0 0 1-77.8 72c21.4 21.8 41.7 43 62 64.9a3.4 3.4 0 0 1-2.6 5.8m124.2 137.4q-1.4 0-2.5-1c-20.2-21.2-39-42.4-60.8-67-11-12.5-22.3-25.3-34.8-39.2a3.4 3.4 0 1 1 5-4.6l35 39.2c21.7 24.6 40.4 45.8 60.6 66.8a3.4 3.4 0 0 1-2.5 5.8m74.3 70.1-2.4-2a898 898 0 0 1-43.2-38.2 3.4 3.4 0 0 1 4.8-5 842 842 0 0 0 40.5 36l61.2-58a3.4 3.4 0 1 1 4.8 5zm95.2-91.6q-1.4 0-2.5-1a3.4 3.4 0 0 1 .2-4.9l180.3-171a652 652 0 0 1-55-59.4 3.4 3.4 0 0 1 5.3-4.5c23.9 28 42.7 49.1 57 61.2l3 2.5-186 176.2q-1 1-2.3 1" class="st0"/><path d="M684.7 421.3q-1.6 0-2.7-1.3c-28.8-34-62.9-73.7-101.6-115a1953 1953 0 0 0-72.2-72.5 5105 5105 0 0 0-66.4 66.5 3.4 3.4 0 0 1-4.9-4.9c20.2-20.5 44.2-44.7 68.9-68.9l2.3-2.3 2.4 2.3a1666 1666 0 0 1 75 75.2c38.8 41.3 72.9 81.1 101.8 115.2a3.4 3.4 0 0 1-2.6 5.7M242.9 416a3.4 3.4 0 0 1-3.4-3.1c-.1-1-10.5-102.4-24-129-9.5-18.9-26-32-36.8-34.8-2.4-.7-5.7-1-8 .4l-.3.2c-1.6 1-3.7.7-4.8-.9s-.6-3.7 1-4.7l.5-.4q5.2-3.3 13.4-1.3c14.5 3.8 31.9 20 41.2 38.3 14 27.8 24.2 127.3 24.6 131.5a3.4 3.4 0 0 1-3 3.8zm126.9 78.2-1-.2a77 77 0 0 1-32.7-20c-26.5-25.1-30-44.4-30.2-45.2-.3-1.8 1-3.6 2.9-4 1.8-.2 3.6 1 4 2.9 0 .2 3.4 18 28 41.3a71 71 0 0 0 30 18.4 3.4 3.4 0 0 1-1 6.8m-18.6 21.4q-.8 0-1.4-.3a256 256 0 0 1-75-54.5 3.4 3.4 0 0 1 5-4.8q33.1 34.3 72.9 53a3.4 3.4 0 0 1-1.5 6.6" class="st0"/><path d="m364.7 502.5-1.3-.2-2.5-1c-26.6-11.1-36.2-20.5-49-38.6a3.4 3.4 0 1 1 5.6-4c11.6 16.4 19.9 25.3 46 36.2l2.4 1a3.4 3.4 0 0 1-1.2 6.6M263.1 162.6a3.4 3.4 0 0 1-2.7-5.7l.7-.8a3.4 3.4 0 1 1 5.2 4.6l-.5.6q-1.1 1.3-2.7 1.3" class="st0"/><path d="M456 374.5q-1.8 0-3-1.6a86 86 0 0 0-15.4-18q-16.2-14.4-31.3-23.6a192 192 0 0 0-45.4-20l-16.6-5.8c-15.6-6.2-63-25-88.6-47.8-30.6-27.2-44.4-55.4-42.2-86 2.5-33.3 21.4-68.2 52.9-70.2 21.4-1.4 39.3 9.7 45.6 28.2 5.6 16.6 2.2 40.3-15.3 51.6-8.8 5.7-19.6 7.4-27.5 4.2a19 19 0 0 1-9.5-8.3q-.3 6.8 1 12.3c3.7 18 17.3 37.3 31.6 44.6 17.1 8.8 36.5 13 55.2 17q14.1 3 28.1 6.8 9.6 2.7 17.3 5.6c19.4 7.3 35 17 48.8 30.6a197 197 0 0 1 44 68.4 3.5 3.5 0 0 1-6.5 2.5q-1.9-4.8-4-9.4a190 190 0 0 0-38.3-56.6 129 129 0 0 0-46.4-29q-7.4-2.9-16.8-5.5A458 458 0 0 0 346 258c-19.1-4.1-39-8.4-56.9-17.7-16.2-8.3-31-29-35.2-49.3-2.8-13.6-.6-25.4 6.5-34l5.5 4.2c-2.2 3.2-2.8 4.8-1.8 8.6q1.8 7.1 7.6 9.4c5.8 2.3 14.3.9 21.3-3.6 14.5-9.4 17.3-29.5 12.5-43.6-5.4-15.7-20.2-24.8-38.7-23.6-16.8 1.1-43.1 19-46.4 64-2.1 28.3 11 54.5 39.9 80.3 24.6 22 71.2 40.4 86.5 46.5a185 185 0 0 0 16.2 5.6 200 200 0 0 1 79.2 45 93 93 0 0 1 16.6 19.5 3.4 3.4 0 0 1-2.9 5.3Z" class="st0"/><path d="M263 162.6q-1 0-2-.7a3.4 3.4 0 0 1-.7-4.8l.7-1a3.4 3.4 0 0 1 5.6 4l-.7 1q-1.1 1.5-2.8 1.5m213.1 210q-2.2 0-3.1-2.1a139 139 0 0 0-23.2-37 3.4 3.4 0 1 1 5.2-4.4 146 146 0 0 1 24.3 38.7 3.4 3.4 0 0 1-3.2 4.8M259 896.9q-9.3 0-19-3.5a63 63 0 0 1-34.9-32.8c-13.1-29 9-64.4 53.6-86.2 40.5-19.7 105.4-33.3 112.6-34.8l1.4-.3c1.9-.3 3.7 1 4 2.8.4 1.8-.8 3.6-2.7 4l-1.3.3c-7.2 1.4-71.2 14.8-111 34.2-41.1 20-61.8 51.8-50.3 77.2 6 13.4 17.4 24 31 29.1a44.5 44.5 0 0 0 50.2-12.8 28 28 0 0 0 6.3-17.9c0-12.6-5.6-23.2-15.3-29a33 33 0 0 0-32.8 0c-6.2 3.5-13.4 9.7-12.7 20q0 1.3.4 2.7a3.4 3.4 0 1 1-6.8 1.3l-.4-3.5c-.8-11 5-20.3 16.2-26.4 13-7 27.7-7 39.6 0a39 39 0 0 1 18.7 35 35 35 0 0 1-7.8 22 50 50 0 0 1-39 18.5Z" class="st0"/><path d="M235 851.4q-1.6 0-2.7-1.4l-.5-.7q-3.4-5.2-1.3-13.4c3.8-14.6 20-31.9 38.3-41.2 27.8-14 127.3-24.2 131.5-24.7a3.4 3.4 0 0 1 .7 6.9c-1 0-102.5 10.5-129 24-18.9 9.5-32 26-34.9 36.8-.6 2.3-1 5.7.5 7.9l.1.2a3.4 3.4 0 0 1-2.7 5.5m181.5-140.9c-1.4 0-2.8-.8-3.3-2.2-.7-1.7.1-3.7 1.9-4.4h.1c1.6-1 11.6-7.3 49.3-44.2 19.6-19.2 24-39.8 28.2-59.7l.5-2.5a3.5 3.5 0 0 1 6.7 1.7l-.5 2.3c-4.2 19.9-9 42.4-30 63-36.4 35.7-47.7 43.6-50.8 45.3l-1 .5z" class="st0"/><path d="M448 741c-1.9 0-2.7-.2-33.6-31.8a3.4 3.4 0 1 1 5-4.9c9 9.3 23 23.5 28.4 28.6 22-23 46.4-66.4 58.1-96.8v-.7l1-1q.9-1 2.5-1c1.9 0 3.4 1.5 3.4 3.4v.6l-.2.5v.2c-12.2 31.7-38 78.1-62.2 102l-1 1zm-2.4-5.9v.1" class="st0"/><path d="M448.7 705.1a3.4 3.4 0 0 1-2.5-5.8l.4-.4c13-13.6 26.5-27.8 36.7-43.9q7.8-12.3 11.3-24.5a3.4 3.4 0 1 1 6.6 2q-3.9 13-12.1 26.2a293 293 0 0 1-37.5 45l-.4.4q-1.1 1-2.5 1m-301.5 51.6q-1.1 0-2.1-.7l-1-.8a3.4 3.4 0 1 1 4.7-5q.3 0 .5.3a3.4 3.4 0 0 1-2.1 6.2" class="st0"/><path d="M166.2 803q-3.2 0-6.3-.2c-33.5-2.4-68.3-21.4-70.4-52.9-1.4-21.4 9.7-39.3 28.2-45.6 16.7-5.6 40.4-2.2 51.6 15.3 5.7 8.9 7.4 19.7 4.3 27.5a19 19 0 0 1-8.3 9.5q6.8.4 12.3-.9c18-3.7 37.2-17.3 44.6-31.7a223 223 0 0 0 17-55q2.9-14.2 6.8-28.3 4.2-14.7 9.2-26.2a135 135 0 0 1 35.3-47.8q20-17.7 50.3-31.8c1.7-.8 3.8 0 4.6 1.7s0 3.7-1.7 4.5A204 204 0 0 0 295 572a127 127 0 0 0-33.5 45.4 187 187 0 0 0-8.9 25.3c-2.6 9-4.6 18.6-6.6 27.8-4.2 19-8.5 38.8-17.7 56.8-8.3 16.2-29 31-49.3 35.2-13.6 2.8-25.4.6-34-6.5l4.1-5.5c3.3 2.3 4.8 2.8 8.7 1.8q7.1-1.8 9.4-7.6c2.3-5.8.8-14.3-3.6-21.3-9.4-14.5-29.5-17.3-43.6-12.5-15.8 5.3-24.8 20.2-23.6 38.7 1.3 20.8 23.7 43.5 64 46.4 28.2 2.1 54.5-11 80.3-40 21.9-24.5 40.4-71.1 46.4-86.5q2.6-6.7 4.8-13.5l.8-2.5c5-15.4 10.8-32.8 25.8-54.7q8.1-12 19.3-24.6a95 95 0 0 1 12.6-11.9 3.4 3.4 0 1 1 4.3 5.4 83 83 0 0 0-11.7 11 249 249 0 0 0-18.8 24 185 185 0 0 0-25 53l-.7 2.5q-2.2 6.8-5 13.9c-6.2 15.6-25 63-47.7 88.6-25.4 28.5-51.5 42.4-79.6 42.4Z" class="st0"/><path d="M147.2 756.7q-1 0-2-.6l-1-.7a3.4 3.4 0 0 1 4-5.6l1 .7a3.4 3.4 0 0 1-2 6.2M303 589.3q-1.4 0-2.3-.9a3.4 3.4 0 0 1-.3-4.8q22.6-25.6 54.3-38.2a3.4 3.4 0 1 1 2.5 6.3q-30.1 12-51.7 36.4-1 1.2-2.6 1.2m520.9 212.5c-24.8 0-51.3-21.3-68.8-57.3-19.9-40.7-33.4-105.6-35-112.9l-.2-1a3.4 3.4 0 1 1 6.8-1.5l.2 1.1c1.5 7.2 14.9 71.3 34.3 111.3 20 41 51.8 61.8 77.2 50.3a56 56 0 0 0 29.1-31.1 44.5 44.5 0 0 0-11.9-49.5l-.9-.7-2.9-2a28 28 0 0 0-15-4.3 33 33 0 0 0-29 15.4c-5.8 9.7-5.8 22 .1 32.7 3.4 6.2 9.6 13.5 20 12.7l2.7-.3a3.4 3.4 0 0 1 1.2 6.7l-3.4.5c-11 .8-20.4-5-26.5-16.3a40 40 0 0 1 0-39.6 39 39 0 0 1 35-18.7 35 35 0 0 1 22.1 7.8l1 .8a51 51 0 0 1 14 57.2 63 63 0 0 1-32.7 35 42 42 0 0 1-17.4 3.7" class="st0"/><path d="M822.1 773.5q-2.7 0-5.7-.8c-14.6-3.8-31.9-20-41.2-38.3-14-27.8-24.2-127.3-24.7-131.5a3.4 3.4 0 0 1 6.9-.7c0 1 10.4 102.4 24 129 9.5 18.9 26 32 36.8 34.8 2.3.6 5.7 1 8-.4l.3-.3a3.4 3.4 0 1 1 3.8 5.8l-.4.2a14 14 0 0 1-7.7 2.2ZM687.5 590.3q-2-.1-3.1-2c-13.4-29.9-20.4-36.8-37.7-45a3.4 3.4 0 0 1 3-6.2c18.4 8.7 27 17 41 48.3a3.4 3.4 0 0 1-3.2 4.9m32.1-30.2q-1.8 0-2.9-1.6a99 99 0 0 0-55.6-43.7 3.4 3.4 0 1 1 2.2-6.5 105 105 0 0 1 59.2 46.5 3.4 3.4 0 0 1-2.9 5.3" class="st0"/><path d="M682.4 558.7q-1.7 0-2.8-1.4a69 69 0 0 0-36.1-24.9 3.4 3.4 0 0 1 1.4-6.7 75 75 0 0 1 40.3 27.6 3.4 3.4 0 0 1-2.8 5.4M733.2 860q-1.4 0-2.3-.8a3.4 3.4 0 0 1-.3-4.8l.5-.6a3.4 3.4 0 0 1 5.3 4.4l-.6.7q-1.1 1.2-2.7 1.2Z" class="st0"/><path d="M726.8 913.8a44 44 0 0 1-35.2-16l-.7-.8a41 41 0 0 1-7.3-15.8c-4.5-18.7 2.3-38.2 16.5-47.4 8.9-5.7 19.7-7.4 27.5-4.2q6.3 2.4 9.5 8.3a44 44 0 0 0-.9-12.3c-3.7-18.1-17.3-37.3-31.7-44.6a220 220 0 0 0-55.1-17c-9.3-2.1-19-4.2-28.2-6.8-8.2-2.3-15-4.6-21.3-7.2a134 134 0 0 1-47.9-32 201 201 0 0 1-36.6-55.6q-4.8-10.2-8.4-21.5l-.2-.6-.7-2.6-1.2-3.9-1.2-4.4h.9a3.4 3.4 0 0 1 6.5.6l.4 1.8 1 3.7.2.3.7 2.4.2.6q3.5 10.8 8 20.6a194 194 0 0 0 35.4 53.7 127 127 0 0 0 45.5 30.5q9 3.6 20.6 7 13.7 3.7 27.7 6.6a226 226 0 0 1 56.9 17.6c16.2 8.4 31 29.1 35.3 49.4 2.8 13.6.5 25.3-6.6 34L731 854c2.3-3.3 2.8-4.8 1.8-8.6q-1.7-7.2-7.6-9.5c-5.8-2.3-14.3-.8-21.3 3.7-13.7 8.9-16.6 27-13.5 40l.3 1 .7 2.6q2 5.4 5 9.6l.6.7a38 38 0 0 0 33 13.3c21-1.4 43.6-23.8 46.6-64 2-28.3-11-54.5-40-80.3-24.6-22-71.2-40.4-86.5-46.5a189 189 0 0 0-16.1-5.6 198 198 0 0 1-81.6-47.2c-27-25.9-34.1-87.4-35.3-99.5a3.4 3.4 0 1 1 6.8-.6c3.3 33.7 13.7 76.4 33.3 95.1l2 2q15 13 29.2 22.2a187 187 0 0 0 47.7 21.4l6 2 10.5 3.8c15.6 6.2 63 25 88.6 47.7 30.6 27.3 44.5 55.5 42.2 86-2.4 33.4-21.4 68.3-52.8 70.3z" class="st0"/><path d="M733 860.4q-1 0-2-.6a3.4 3.4 0 0 1-.8-4.8l.7-1a3.4 3.4 0 1 1 5.6 3.9l-.7 1q-1 1.5-2.8 1.5M562.8 707q-1.2 0-2.3-1a151 151 0 0 1-41-62.4 211 211 0 0 1-5.5-25.2l-2.4-12-.8-3.2c-2.5-11-4.2-22.6-5-33.4a3.4 3.4 0 1 1 6.9-.5 210 210 0 0 0 4.8 32.3l.8 3.3 2.4 12.2c1.6 8.8 3.6 19.6 5.3 24q1.2 3.5 3 7.8 13.4 31.6 36 52a3.4 3.4 0 0 1-2.2 6Zm70.1-428a3.4 3.4 0 0 1-.7-6.9l2.3-.5c11.6-2.4 71.9-15.4 110-34 41.1-20 61.8-51.8 50.3-77.2-6-13.5-17.4-24-31-29.1a44.5 44.5 0 0 0-50.2 12.7 28 28 0 0 0-6.3 18c0 12.6 5.5 23.2 15.3 29s22 5.8 32.8-.1c6.2-3.4 13.4-9.6 12.7-20q0-1.2-.4-2.6a3.4 3.4 0 1 1 6.8-1.3q.4 1.8.4 3.4c.8 11-5 20.4-16.2 26.5a40 40 0 0 1-39.6 0 39 39 0 0 1-18.7-35 35 35 0 0 1 7.8-22.1 51 51 0 0 1 58-15 62 62 0 0 1 34.9 32.7c13.1 29-9 64.5-53.6 86.2-38.9 19-99.8 32.2-111.7 34.7z" class="st0"/><path d="M605.6 248.2a3.4 3.4 0 0 1-.3-6.9l1.3-.1c10.5-1.1 102.6-11.1 127.7-23.8 18.8-9.5 32-26.1 34.8-36.8.6-2.4 1-5.7-.4-8-1.2-1.5-1-3.7.5-5 1.5-1 3.6-1 4.7.6l.5.6q3.5 5.2 1.3 13.5c-3.8 14.6-19.9 31.9-38.3 41.2-25.7 13-112.8 22.7-130 24.5l-1.5.2zm-84.5 135.4a3.4 3.4 0 0 1-3-5.1q9.5-16.3 20.5-30.3c37.6-47.7 42.2-48.6 43.7-48.9h.6a3.5 3.5 0 0 1 1.1 6.7c-1.2.8-8.7 6.7-40 46.4Q533.3 366 524 382a4 4 0 0 1-3 1.7m-6.2-41q-1 0-1.7-.4a3.5 3.5 0 0 1-1.3-4.7c10.2-17.5 23.8-34.8 45.3-60.7a3.4 3.4 0 1 1 5.3 4.4 447 447 0 0 0-44.6 59.7 3 3 0 0 1-3 1.7m-15.1 51.9-1-.1a3.4 3.4 0 0 1-2.3-4.3 161 161 0 0 1 14-32.7c8.4-15 18.6-28.8 28.3-41.4a3.4 3.4 0 0 1 5.5 4.2c-9.6 12.4-19.6 26-27.7 40.5q-9 16-13.5 31.3a3.4 3.4 0 0 1-3.3 2.5m360-125.6q-1.2 0-2.2-.9l-.7-.5a3.4 3.4 0 1 1 4.4-5.3l.8.7a3.4 3.4 0 0 1-2.3 6" class="st0"/><path d="M664 483.6q-2.1 0-3.2-2c-.8-1.7 0-3.7 1.7-4.5q28.4-13.3 47.3-29.6 22.4-19.1 34.3-45.2a186 186 0 0 0 9.5-26.7c2.6-9 4.6-18.6 6.6-27.8 4.2-19 8.5-38.8 17.7-56.8 8.4-16.3 29.1-31 49.3-35.3 13.7-2.8 25.4-.5 34 6.6l-4.1 5.5c-3.3-2.3-4.8-2.8-8.6-1.8q-7.2 1.8-9.5 7.6c-2.3 5.8-.8 14.3 3.7 21.3 9.3 14.5 29.4 17.3 43.6 12.5 15.7-5.4 24.7-20.2 23.5-38.7-1.3-20.8-23.7-43.5-64-46.5-28.2-2-54.5 11-80.3 40-21.9 24.6-40.3 71.2-46.4 86.5q-2.7 7-4.8 13.5l-.9 2.7c-5 15.4-10.8 32.9-25.9 54.9a259 259 0 0 1-23 28.4l-3.8 3.5-.5.3q-5.3 4.6-11.8 8.4a3.4 3.4 0 0 1-3.5-5.9q6-3.6 11.1-8l.4-.2a68 68 0 0 0 6.8-6.8q10.7-12.1 18.6-23.6c14.6-21.2 20-37.5 25.1-53.2l.9-2.6q2-6.6 5-14c6-15.5 24.9-63 47.6-88.5 27.3-30.7 55.5-44.5 86-42.2 33.4 2.4 68.3 21.4 70.3 52.8 1.4 21.5-9.7 39.4-28.2 45.7-16.6 5.6-40.3 2.1-51.6-15.3-5.7-8.9-7.4-19.7-4.3-27.5q2.6-6.3 8.4-9.6a45 45 0 0 0-12.4 1c-18 3.7-37.2 17.3-44.6 31.6a223 223 0 0 0-17 55.2c-2 9.3-4.1 19-6.7 28.2a189 189 0 0 1-10 27.6c-8.4 18.5-20.1 34-36 47.6a212 212 0 0 1-48.9 30.6q-.7.3-1.4.3" class="st0"/><path d="M860 269.1q-1 0-2-.6l-1-.7a3.4 3.4 0 0 1 4-5.7l1 .8a3.4 3.4 0 0 1-2 6.2" class="st0"/><path d="M379.6 421c-9.6 5.7-2.8 17.6 1.4 24.5a83 83 0 0 0 28.3 28.2c10.5 6.3 33 20.5 45.7 22.6 12.1 7.6 27 8.4 27 8.4l.9.6q-.6 2.9-.6 5.7c-1.3.4-7.7 2.4-16.7 7.2l-.2-.4c-97.7-25.5-117.6-58.2-114.1-92.4 1.3-12.9 8.9-25.2 22.3-27.4 6.3-1 12.4 1.2 17.1 5.2q4 3.4 6.2 7.8a19 19 0 0 1-.8 18.8c-4.6 7.2-13.5 8.1-18.2.4q-1-1.6-1.1-3.4a8 8 0 0 1 2.8-5.7m42.6-23.6c7.3-1.1 13.8 4.9 11 12.3-2.5 6.3-9.5 9.3-16 9.4q-8-.2-13.3-5.3-2.3-2-4-4.7l-.5-1c-6-10.4-1.5-22.1 6.6-30 14.3-13.7 33.7-11.8 47.7 1.4a56 56 0 0 1 15.4 25.2c3.5 12.2 1.2 25.3.9 37.8a49 49 0 0 0-12.9-1.5v-.6c1.7-17.8-4.8-38.1-23.7-43.6-4.7-1.4-6.7-.6-11.2.6" class="st2"/><path d="M455 496.3a34 34 0 0 1-11.3-11.2c-10.8-18.2 1-41.7 1-41.7s4.6-2.1 12.4-2.3a49 49 0 0 1 18.7 3.3q6.8 2.4 14.5 7.5l1.6 1 1.3 1.3 1.7 1.8a32 32 0 0 1 8 32.2q-7.6.4-13.3 5.1a23 23 0 0 0-6.7 12l-.9-.7s-14.8-.7-27-8.3" class="st4"/><path d="M494.9 452.5c1.6-8.3 8.4-29.3 10.3-35.2 9.8-30.4 38.3-60.9 72.6-57.4 12.8 1.3 25.2 8.9 27.3 22.3 1 6.3-1.2 12.4-5.2 17.1q-1.1 1.5-2.5 2.6c-6.5 5.8-16 8-24.1 2.9-7.2-4.7-8-13.6-.4-18.3q1.6-1 3.4-1.1a8 8 0 0 1 5.8 2.9c-5.6-9.6-17.6-2.8-24.5 1.3a83 83 0 0 0-28.1 28.3 175 175 0 0 0-15.4 48.3 111 111 0 0 0-3.5 21.9 52 52 0 0 0-7.7 0 32 32 0 0 0-9.7-33.9zm-99.6 128.2c-1.2-7.2 4.8-13.8 12.2-11 6.4 2.5 9.4 9.5 9.4 16a19 19 0 0 1-6.8 14.9 25 25 0 0 1-4.1 3c-10.4 5.8-22.2 1.4-30-6.7a32 32 0 0 1-6.8-34.7 51 51 0 0 1 33.3-28.4c12.5-3.6 35.8-7.4 48.6-7.1l.3.4-3.8 2.8c-5.2 4-8.7 9.7-11 15.8-17.4-1.2-36.6 5.5-42 23.8-1.3 4.7-.6 6.7.6 11.2Z" class="st2"/><path d="m514 466.2 1.4-4.2a28 28 0 0 1 7.8-13c11.2-8.8 45.3-15.8 45.3-15.8a60 60 0 0 0 4 25.5l-1.5-.1h-.4q0 6.3-2.4 12.7h1.1a33 33 0 0 1-6.1 9.1 56 56 0 0 1-24 15.6 35 35 0 0 1-10.9 1.7c-1.3-3.1-3.3-6-6.2-7.5-2.3-1.2-5-1.5-7.5-1.8l-4-.3s.6-11.2 3.5-21.9m-77.4 79.5a36 36 0 0 1 14.8-18.6q7.6-5.5 14.1-8.9c9-4.8 15.4-6.8 16.7-7.2-.1 7.7 3.3 15.1 11 17.8l1.3.4c.8 5.7 1.4 10.4 1 16l-.6 3.2q-.5 4-1.6 8.2c-4.4 10.4-16.6 16.5-26.9 19.9-10.4 3.4-25.6 2.6-34.7 9 .5-4-1.4-23.7 4.9-39.8" class="st4"/><path d="M482.3 511q0-3 .6-5.7c1-4.6 3.4-9 6.7-12q5.6-4.6 13.3-5.1a52 52 0 0 1 11.7.2c2.5.3 5.2.6 7.5 1.8 3 1.6 4.9 4.4 6.2 7.5l.9 2.4q1.6 5.2 1 10.4a17 17 0 0 1-1.4 4.7q-2.2 4.9-7 8.2a36 36 0 0 1-16.3 6.4 28 28 0 0 1-12.1-1c-7.8-2.7-11.2-10.1-11.1-17.8" class="st4"/><path d="M614 423.6c1.1 7.3-4.9 13.8-12.3 11-6.3-2.4-9.4-9.5-9.4-15.9a19 19 0 0 1 6.8-15q1.8-1.5 4.1-2.9c10.4-5.9 22.2-1.5 30 6.6 13.8 14.3 11.8 33.8-1.3 47.8a56 56 0 0 1-25.2 15.3c-12.1 3.5-25 1.3-37.4 1a36 36 0 0 0 3.3-12.8c17.4 1.1 36.7-5.6 42-23.9 1.4-4.7.6-6.7-.6-11.2m7.6 166c5.6-3.2 5.6-9.3 3.6-14.7a73 73 0 0 0-57.5-45.7q-2.7-5.4-6.2-9.1c-6.2-7-22.5-6.5-31.3-9.6a24 24 0 0 0-2-12.8c1.3 0 5.3 0 11-1.8l.6 1c80.8 5.8 113.7 54.2 110.2 88.4-1.3 12.8-9 25.2-22.3 27.4a21 21 0 0 1-19-6.9c-6.3-6.6-9-16.6-3.6-25 4.6-7.2 13.6-8 18.3-.3q1 1.5 1 3.3a8 8 0 0 1-2.8 5.8M428.4 616c5.6 9.6 17.5 2.8 24.4-1.3a83 83 0 0 0 28.2-28.3c5-8.5 9.9-19.5 12.4-29.8q1-2.2 1.4-4.7a63 63 0 0 0-.2-22.7q5 1.4 11 .6v.3s-5.7 17.7 3.7 30.9l1.9 2.3c-1.9 8.8-4.6 19.5-6 23.7-9.8 30.5-38.3 60.9-72.6 57.4-12.8-1.3-25.1-8.9-27.3-22.3a21 21 0 0 1 7.1-19.2c6.6-6.1 16.4-8.7 24.7-3.4 7.2 4.7 8 13.6.4 18.3q-1.5 1-3.4 1.1a8 8 0 0 1-5.7-2.8Z" class="st2"/><path d="M567.7 529.2c3 6.2 4.8 15.1 4.2 30-.9 20.8-.7 22-.7 22s-8 1.7-19 1 .1 0 .1 0v-1.3 1.3h-.7a59 59 0 0 1-40.4-18.8l2-9.4c0-.4-2.7 4.8-3.9 7-9.4-13.2-3.7-30.9-3.7-30.9v-.3c5.8-.7 11.7-3 16.3-6.4q4.6-3.4 7-8.2.9-2.2 1.3-4.7c8.8 3 25 2.6 31.3 9.6q3.5 3.8 6.2 9ZM495 548.4l.6-3.2q-.2 3.1-.8 6.7-.4 2.4-1.4 4.7 1.2-4.2 1.6-8.2" class="st4"/><path d="M509.3 561c1.2-2.2 4-7.4 3.9-7l-2 9.4v-.1z" class="st4"/><path d="m538 580.3 2 .2v.4zm49.3 43.6c-7.3 1.2-13.8-4.8-11-12.2 2.4-6.4 9.5-9.4 15.9-9.4a19 19 0 0 1 14.2 6q2 2 3.7 5c5.9 10.3 1.5 22.1-6.6 29.9-14.3 13.8-33.8 11.8-47.8-1.3a56 56 0 0 1-16-27.6c-2.5-11.3 0-21.6.3-33.4a53 53 0 0 0 11.6 1.4h.6a53 53 0 0 0 3.5 23.3 29 29 0 0 0 20.4 19c4.7 1.3 6.7.6 11.2-.6Zm-34.9-43v1.3h-.1z" class="st2"/><path d="M574 623.8a29 29 0 0 1-18.3-18.3c3.4 8.1 9.3 15 18.3 18.3" class="st2"/><path d="M470 446.7a3.4 3.4 0 0 1-3.5-3.5v-.8l.5-9.7c.6-9 1.2-18.4-1.2-27a53 53 0 0 0-14.4-23.6c-13.5-12.6-30.8-13.2-43-1.3-6.2 5.9-11.5 16.2-6 25.7q0 .4.4.7 1.5 2.5 3.4 4.2 4.7 4.4 11 4.4c5 0 10.9-2.3 12.7-7.3 1-2.5.2-4.3-.6-5.3a7 7 0 0 0-6.5-2.2 3.4 3.4 0 1 1-1.2-6.8c5-.8 10 1 13 4.6a12 12 0 0 1 1.8 12.2c-3.3 8.5-12.3 11.6-19.1 11.7q-9 0-15.8-6.2a26 26 0 0 1-5.1-6.5c-6-10.7-3.3-24.1 7.2-34.2 14.8-14.3 36.4-13.7 52.5 1.3a59 59 0 0 1 16.3 26.8c2.8 9.7 2.1 19.7 1.5 29.3l-.5 9.5v.6c0 1.8-1.6 3.4-3.5 3.4Z" class="st0"/><path d="M457.1 444h-.3a3.4 3.4 0 0 1-3.1-3.8c1.5-16.4-4.5-35-21.3-40-3.4-1-4.7-.6-8.4.4l-2.8.8-1.2-1.2-.5-.5a3.4 3.4 0 0 1 2-5.5l.7-.2c4.1-1.2 6.8-2 12.1-.4 20.6 6 28 28 26.2 47.2a3.4 3.4 0 0 1-3.4 3.1Zm111.2 30.8-1.3-.2-3.2-1.3 1.2-3.1a36 36 0 0 0 2.1-11.7l.1-3.5 4 .1a3.4 3.4 0 0 1 2.7 5.3 43 43 0 0 1-2.4 12.2 3.4 3.4 0 0 1-3.2 2.2M614 427q-2.6-.1-3.4-2.5c-.5-1.8.6-3.7 2.4-4.2s3.8.6 4.3 2.4c.5 1.9-.6 3.7-2.4 4.2zm-131 81.8q-1.2 0-2-.7l-1-.7a3.4 3.4 0 0 1 4-5.5l1 .6a3.4 3.4 0 0 1-2 6.3m27.6-17.3h-.2a3.4 3.4 0 0 1-3.2-3.6 3.4 3.4 0 1 1 6.9.4 3.4 3.4 0 0 1-3.5 3.2" class="st0"/><path d="M482 508.1h-.2a66 66 0 0 1-28.6-8.9 37 37 0 0 1-12.5-12.4c-11.6-19.6.3-44 .9-45l.5-1 1.1-.6c.3 0 5.5-2.3 13.9-2.5a51 51 0 0 1 20 3.5 71 71 0 0 1 15.1 7.9l1.6 1 .4.4 3.3 3.2c14 15.2 10.2 31 8.7 35.6l-.6 1.4c-.7 1.7-2.7.2-4.5-.5-1.7-.8-2.5-.5-1.8-2.3l.4-.9a29 29 0 0 0-8.9-30.3l-1-1-1.3-.9a65 65 0 0 0-19.3-8.8 45 45 0 0 0-22 .1c-2.1 4.8-9 23.1-.6 37.2a30 30 0 0 0 10.2 10c11.3 7.1 25.2 8 25.4 8a3.4 3.4 0 0 1-.2 6.8" class="st0"/><path d="M528.7 501.2h-1.3l1-6.9c1 0 4.6 0 9.7-1.6 5.6-1.7 14-5.7 22.6-14.6a29 29 0 0 0 6.4-10.4q1.7-4.4 2-9.3l.2-2.4c.2-8-1.8-15-3-18.8-8.3 2-32.4 7.7-41 14.6a25 25 0 0 0-6.7 11.3l-1.2 4c-2.8 10.2-3.4 21-3.4 21.1a3.4 3.4 0 0 1-6.8-.3 119 119 0 0 1 4.9-27 31 31 0 0 1 9-14.5c11.7-9.3 45.3-16.2 46.7-16.5l2.7-.6 1.1 2.6a63 63 0 0 1 4.4 27 42 42 0 0 1-3.6 14q-2.5 5.5-6.8 10a60 60 0 0 1-25.5 16.4 42 42 0 0 1-11.4 1.9m-34-44.5h-.5c-1.8-.3-3.2-2-2.9-4l.2-1c1.6-8.3 8.2-28.5 10.3-35.2l.1-.2c10.2-31.7 40.4-63.4 76.2-59.8 16.3 1.6 28.2 11.5 30.4 25.2a25 25 0 0 1-8.8 22.8c-8.5 7.5-19.6 8.8-28.3 3.2a15 15 0 0 1-7.3-12.6c0-4.6 2.6-8.8 7-11.5a10 10 0 0 1 5.3-1.6q4.6 0 8.2 4l.4.4a3.4 3.4 0 1 1-5.2 4.6l-.3-.4a4 4 0 0 0-3.3-1.7q-.1-.2-1.5.6-3.7 2.3-3.7 5.7 0 4 4.2 6.7c7.3 4.7 15.3 1.6 20-2.6q1-.9 2.1-2.2c3.6-4.2 5.2-9.4 4.4-14.3-2-12.8-14.4-18.5-24.3-19.5-32.2-3.2-59.6 26-69 55.1v.3a401 401 0 0 0-10.2 34.5l-.1.5q-.6 2.8-3.4 3" class="st0"/><path d="M514 470.7h-.5c-1.9-.3-3.2-2-3-3.9l.2-1a178 178 0 0 1 15.8-49.6 87 87 0 0 1 29.3-29.5c4.9-2.9 13.8-8.3 21.4-6.3q5 1.3 7.8 6.1l.2.2c1 1.6.5 3.7-1.1 4.7s-3.8.5-4.8-1l-.2-.4q-1.4-2.5-3.6-3c-4.8-1.2-12.4 3.4-16 5.6a78 78 0 0 0-27 27 171 171 0 0 0-15 47.1l-.2 1c-.2 1.7-1.7 3-3.4 3Zm77 5.2q-6.4 0-12.7-.6l-9-.5h-1.1a3.4 3.4 0 0 1 .2-6.9h1.1l9.3.6c9 .6 18.4 1.2 27-1.3a52 52 0 0 0 23.6-14.4c12.6-13.4 13.2-30.7 1.3-43-5.9-6.2-16.2-11.4-25.8-6a21 21 0 0 0-4.8 3.8q-4.4 4.8-4.4 11c0 5 2.3 11 7.3 12.8 2.5 1 4.3.2 5.3-.7 1.8-1.4 2.6-4 2.2-6.5a3.4 3.4 0 0 1 6.8-1.1c.8 5-1 10-4.6 13a12 12 0 0 1-12.2 1.7c-8.5-3.2-11.6-12.3-11.7-19a23 23 0 0 1 8-17.6 28 28 0 0 1 4.7-3.4c10.7-6 24.1-3.2 34.2 7.2 14.3 14.9 13.7 36.5-1.3 52.5A59 59 0 0 1 591 476" class="st0"/><path d="m576.2 462.2-5.5-.2a3.4 3.4 0 0 1 .6-6.9l1.5.1c14.6 1 33.4-4 38.5-21.4 1-3.4.6-4.6-.4-8.3l-.8-3 1.4-1.2.2-.2a3.4 3.4 0 0 1 5.7 1.8l.2.7c1 4.2 1.8 6.9.3 12.2-5.7 19.6-25.2 26.4-41.7 26.4m-110.8 59h-.9c-85.1-22.3-121.1-52-116.7-96.2 1.7-16.2 11.6-28.2 25.2-30.4 7-1.1 14.2 1 20 6q4.4 3.8 7 9a22 22 0 0 1-1 22.1 15 15 0 0 1-12.5 7.4c-4.6 0-8.8-2.7-11.6-7a10 10 0 0 1-1.6-5.3c0-3 1.5-6 4-8.2l.4-.4a3.4 3.4 0 1 1 4.6 5.1l-.4.4c-.7.7-1.7 1.8-1.7 3.2q-.1.3.6 1.5 2.3 3.7 5.8 3.8 4-.2 6.7-4.2c4-6.2 2-12.3.5-15.4q-1.8-3.8-5.3-6.8a18 18 0 0 0-14.3-4.4c-12.8 2-18.5 14.4-19.5 24.3-2.7 27 7.5 61.6 111.6 88.8a3.4 3.4 0 0 1-1 6.7Z" class="st0"/><path d="M455.8 499.9h-.4l-1.1-.2c-12-2-32-14-43.8-21.3l-3-1.8a87 87 0 0 1-29.4-29.3c-3-4.8-8.3-13.7-6.4-21.3q1.4-5 6.2-7.9l.2-.1c1.6-1 3.7-.5 4.7 1.1s.5 3.8-1.1 4.8l-.3.1q-2.5 1.5-3 3.7c-1.2 4.8 3.3 12.4 5.5 16a79 79 0 0 0 27.2 27l3 1.9c10.7 6.4 30.6 18.5 41.4 20.3l.8.1a3.4 3.4 0 0 1-.5 6.9m-17.9 148.2q-2.8 0-5.6-.3c-16.3-1.6-28.2-11.5-30.4-25.2a25 25 0 0 1 8.2-22.2c8.4-8 20-9.4 28.9-3.7a15 15 0 0 1 7.3 12.5c0 4.6-2.6 8.8-7 11.5a10 10 0 0 1-5.2 1.6q-4.7 0-8.3-4l-.4-.4a3.4 3.4 0 1 1 5.2-4.5l.3.4c.7.7 1.9 1.6 3.3 1.7q.3 0 1.5-.6 3.6-2.4 3.8-5.8-.2-4-4.2-6.7c-7.6-4.9-15.8-1.4-20.5 3l-1.7 1.8a18 18 0 0 0-4.4 14.3c2 12.8 14.4 18.5 24.3 19.5 32.2 3.2 59.6-26 69-55 1.1-3.7 4.2-14.3 6-22.6l-2.6-2.3q.2-.8.7-1.4l.2-.4 1.4-2.5c3.1-5.9 3.8-7.1 6.6-6.1l2.8 1-.5 2.8-2 9.6c-2 9.2-4.7 19.7-6.1 24-9.7 30-37.3 60-70.6 60" class="st0"/><path d="M436.7 624.4q-1.7 0-3.5-.5-5-1.2-7.8-6.1l-.1-.2c-1-1.6-.5-3.7 1.1-4.7a3.5 3.5 0 0 1 5 1.4q1.3 2.5 3.5 3c4.9 1.2 12.5-3.4 16.1-5.6 11-6.7 20.4-16 27-27a112 112 0 0 0 13.6-36.6v-.1l.6-3.4c.4-1.9 2.2-3 4-2.7 2 .4 3.2 2.2 2.8 4l-.6 3q-.5 4.1-1.6 8.5c-2.5 10-7.3 21.5-12.9 30.8a87 87 0 0 1-29.3 29.4 38 38 0 0 1-18 6.8Z" class="st0"/><path d="M495.7 548.6h-.8c-1.8-.5-3-2.3-2.6-4.1l.4-2a3.4 3.4 0 0 1 6.8-.1c.1.7 0 .9-.5 3.5a3.4 3.4 0 0 1-3.3 2.7m-99.9 61.1c-7.7 0-15.6-3.6-22.2-10.4a35 35 0 0 1-7.4-38.4 54 54 0 0 1 35.5-30.4c12.7-3.6 36.7-7.5 49.5-7.3a3.4 3.4 0 1 1-.1 7 208 208 0 0 0-47.5 7 47 47 0 0 0-31.1 26.3 28 28 0 0 0 6 31c6 6.2 16.3 11.5 25.9 6a21 21 0 0 0 4.8-3.8q4.4-4.7 4.4-11c0-5-2.3-10.9-7.2-12.8-2.6-1-4.4-.1-5.4.7a7 7 0 0 0-2.2 6.5 3.4 3.4 0 0 1-6.8 1.2c-.8-5 1-10 4.6-13a12 12 0 0 1 12.2-1.8c8.5 3.3 11.6 12.3 11.7 19.1a23 23 0 0 1-8 17.5 24 24 0 0 1-16.7 6.5Z" class="st0"/><path d="M395.3 584.2a3.4 3.4 0 0 1-3.3-2.8l-.2-.7c-1.2-4.1-2-6.8-.4-12.1 6.2-21.2 28.4-27.5 45.5-26.4l1.8.2c1.8.1-1.9 1.4-2 3.3s3.2 3.7 1.3 3.5l-1.5-.1c-14.6-1-33.4 4-38.5 21.4-1 3.4-.6 4.7.4 8.4l.8 3-1.3 1.2-.3.2q-1 .9-2.3.9m178.7 43-1.2-.2a35 35 0 0 1-20.2-20.2 55 55 0 0 1-3.8-24.8l3.4.2 3.5.3c-.6 7.6.6 15.4 3.2 21.6 2.3 5.6 7 13 16.2 16.4a3.4 3.4 0 0 1-1.2 6.7Z" class="st0"/><path d="m555.6 585.8-7-.4.2-3.4.1-1.5 3.4.2.1-2h.1l-.1 2 3.4.3z" class="st0"/><path d="M552.3 585.6h-.7c-3.7-.1-8.4-.3-12.5-1.4a3.4 3.4 0 0 1 1.8-6.7c3.4 1 7.6 1.1 10.8 1.2h.4c1.9 0 3.5 1.6 3.5 3.5s-1.4 3.4-3.3 3.4" class="st0"/><path d="m543.2 585.2-4-1-2.3-.7-18.7-9.3 25.4 3.2z" class="st0"/><path d="M539.8 617.7q-2.6-.1-3.4-2.7a74 74 0 0 1-.5-23.8q.5-5.1.7-10.5c0-1.9 1.5-3.4 3.5-3.3 1.9 0 3.4 1.6 3.3 3.5q-.1 5.7-.7 10.9c-.6 7.4-1.2 14.4.4 21.7a3.5 3.5 0 0 1-3.3 4.2m47.5 9.6c-1.6 0-3-1-3.3-2.5v-.1a3.4 3.4 0 0 1 6.6-1.8 3.5 3.5 0 0 1-3.4 4.4" class="st0"/><path d="M581 656c-9.6 0-19.4-4-27.6-11.7a59 59 0 0 1-17-29.3c-2-8.4-1.4-15.7-.8-23.4q.4-4.6.5-10a3.4 3.4 0 0 1 6.9.1q0 5.6-.6 10.5c-.5 7.4-1 13.8.7 21.2l.6 2.2a53 53 0 0 0 14.4 23.7c13.4 12.6 30.7 13.1 43 1.3 6.2-6 11.4-16.2 6-25.8q-1.4-2.4-3.2-4.2l-.6-.7q-4.8-4.3-11-4.3c-5 0-10.9 2.3-12.8 7.2-1 2.6-.1 4.4.7 5.4a7 7 0 0 0 6.5 2.2 3.4 3.4 0 1 1 1.1 6.8c-5 .8-10-1-13-4.7a12 12 0 0 1-1.7-12.1c3.2-8.5 12.3-11.6 19-11.7a23 23 0 0 1 16.8 7q2.4 2.6 4.2 5.7c6 10.7 3.2 24-7.2 34.1-7.2 7-16 10.4-25 10.4Z" class="st0"/><path d="M580.6 628.6q-2.3 0-5.5-.8l-2.3-.8a33 33 0 0 1-20.3-20.3A54 54 0 0 1 550 583a3.4 3.4 0 0 1 6.9.7c-.7 7.6 0 14.7 2.2 20.5a26 26 0 0 0 18 16.9c3.5 1 4.7.6 8.4-.4l2.9-.8 1.2 1.2.4.4a3.4 3.4 0 0 1-1.9 5.6l-.7.2c-2.5.7-4.4 1.3-6.7 1.3Zm-153-35.9.8-7.6v-4c0-8.2 0-23.3 5-36.7a39 39 0 0 1 16-20q7-5.1 14.6-9.2a96 96 0 0 1 17.8-7.7c2-.2 3.7 1 4 2.9s-.8 3.6-2.7 3.9c-1 .3-7.2 2.3-15.9 7a127 127 0 0 0-17.4 11.4q-6.3 4.9-10 14.2a93 93 0 0 0-4.5 32.8c5.3-2.2 11.4-3 17.3-4q7.1-.8 12.8-2.5c9.2-3 20.9-8.6 24.9-18q.8-1.9 1.1-4 .6-3.2.8-6.2v-.5c.3-4.9-.2-9-1-14.6v-.3a3.4 3.4 0 0 1 6.8-1v.2a73 73 0 0 1 1 16.6v.5q-.2 3.1-.8 6.6-.5 2.9-1.6 5.4-6.1 14.3-29 21.8-6.6 2-14 2.9c-7.3 1-14.9 2.2-19.8 5.7zm197.1 23.7a25 25 0 0 1-18.4-8.2c-6.8-7-10.8-18.8-4-29.2 3-4.7 7.7-7.3 12.5-7.4 4.6 0 8.8 2.6 11.5 7a10 10 0 0 1 1.6 5.3q0 4.7-4 8.2l-.4.4a3.4 3.4 0 1 1-4.5-5.1l.4-.4c.7-.7 1.6-1.8 1.7-3.2q0-.3-.6-1.6-2.4-3.7-5.8-3.7-4 0-6.7 4.2c-4.6 7.2-1.7 15.6 3.2 20.7l1.6 1.4a18 18 0 0 0 14.3 4.5c12.8-2.1 18.5-14.4 19.5-24.3a63 63 0 0 0-16-45.3c-19-22.5-51.4-36.5-91-39.4a3.4 3.4 0 1 1 .4-6.8c41.6 3 75.6 17.8 95.8 41.8a69 69 0 0 1 17.6 50.4c-1.6 16.2-11.5 28.1-25.2 30.3q-1.7.3-3.5.3Zm-119.1-82.8a3.4 3.4 0 0 1-3.4-3.1v-.3a3.4 3.4 0 0 1 6.8-.8v.3a3.4 3.4 0 0 1-3 3.8z" class="st0"/><path d="m557.6 585.8-5.6-.2h-.4a63 63 0 0 1-45-22.7c-10.3-14.4-4.5-33-4.3-33.8a3.4 3.4 0 0 1 6.6 2c0 .2-5 16.2 3.2 27.8l1.6 2a56 56 0 0 0 38.2 17.8h.6c6.6.5 12.2 0 15.3-.5q0-5.5.6-19c.5-12.9-.7-22-3.8-28.5a34 34 0 0 0-5.7-8.3c-3.3-3.7-11.3-5-18.3-6.1q-6.5-.9-11.4-2.5h-.3a3.4 3.4 0 1 1 2.4-6.5c2.7 1 6.5 1.5 10.4 2.2 8.2 1.3 17.4 2.8 22.3 8.3a41 41 0 0 1 6.8 9.9 68 68 0 0 1 4.5 31.7c-.7 17.3-.7 20.8-.7 21.4l.4 3-3 .7c-.4 0-6 1.3-14.4 1.3" class="st0"/><path d="M621.3 593.2q-1.8 0-2.9-1.6a3.5 3.5 0 0 1 1.4-5q5-2.9 2.2-10.5a69 69 0 0 0-55.6-43.6 3.4 3.4 0 0 1 .8-6.9l1 .2a76 76 0 0 1 60.2 48c3 8.3 1.2 15.1-5 18.7l-.3.2q-.8.5-1.8.5m-119.8-59.7a29 29 0 0 1-9.3-1.4c-8.4-3-13.5-11-13.4-21.1a29 29 0 0 1 8.5-20.2q5.8-5.2 15.3-6a56 56 0 0 1 12.3.2c3 .3 6 .7 8.8 2.2q5 2.6 7.8 9.2l1 2.7q1.9 6.4 1 12-.3 3-1.5 5.5a25 25 0 0 1-8 9.6c-5 3.7-11.5 6.2-18 7q-2.3.3-4.6.3Zm5.5-42h-3.8q-7.3.9-11.3 4.4-4.1 3.7-5.6 10.2-.6 2.5-.6 4.9c0 2.7.5 11.7 8.8 14.6l1 .3q4.3 1.2 9.6.5c5.4-.7 10.7-2.8 14.7-5.7q4.1-3 6-7 .6-1.6 1-3.6a21 21 0 0 0-1.7-11 11 11 0 0 0-4.6-5.9q-2.6-1.2-6.3-1.4z" class="st0"/></svg>