<?xml version="1.0" encoding="UTF-8"?>
<svg id="Layer_1" xmlns="http://www.w3.org/2000/svg" version="1.1" viewBox="0 0 705.73 131.73">
  <!-- Generator: Adobe Illustrator 30.2.1, SVG Export Plug-In . SVG Version: 2.1.1 Build 1)  -->
  <defs>
    <style>
      .st0 {
        fill: #fff;
      }
    </style>
  </defs>
  <path class="st0" d="M184.75,54.83c1,0,1.87-.36,2.6-1.09s1.09-1.62,1.09-2.68-.37-1.87-1.09-2.6c-.73-.73-1.6-1.09-2.6-1.09-1.06,0-1.95.37-2.68,1.09s-1.09,1.6-1.09,2.6c0,1.06.36,1.95,1.09,2.68s1.62,1.09,2.68,1.09ZM283.26,60.56c-.2,0-.39.13-.57.38s-.28.57-.3.94c-.03.38-.18,1.46-.45,3.24-.28,1.79-.7,3.88-1.28,6.29s-1.36,4.79-2.34,7.12c-.98,2.34-2.16,4.3-3.54,5.88-1.38,1.58-3.03,2.38-4.94,2.38-1.61,0-2.76-1.09-3.47-3.28-.7-2.19-1.06-4.79-1.06-7.8,0-1.71.1-3.47.3-5.28,3.72-.95,6.4-2.53,8.03-4.71,1.63-2.19,2.45-4.36,2.45-6.52,0-1.86-.49-3.46-1.47-4.79s-2.35-2-4.11-2c-2.86,0-5.38,1.16-7.54,3.47s-3.84,5.2-5.05,8.67c-1.17,3.37-1.76,6.78-1.8,10.24-.28.78-.57,1.56-.89,2.35-1.03,2.56-2.19,4.74-3.47,6.52-1.28,1.79-2.63,2.68-4.03,2.68-.7,0-1.18-.29-1.43-.87s-.38-1.34-.38-2.3c0-1.96.3-4.5.9-7.61.85-4.77,1.28-8.37,1.28-10.78s-.44-4.46-1.32-6.14-2.55-2.53-5.01-2.53c-3.32,0-6.17,1.22-8.56,3.66s-4.29,5.39-5.69,8.86c.45-5.43,1.18-10.69,2.19-15.79,1-5.1,2.14-9.06,3.39-11.87.25-.55.38-1.06.38-1.51,0-.85-.33-1.51-.98-1.96s-1.41-.68-2.26-.68-1.73.24-2.64.72c-.9.48-1.66,1.22-2.26,2.22-2.21,3.87-4.15,8.98-5.8,15.34-1.16,4.45-1.9,8.81-2.25,13.1-.21,1.01-.45,2.08-.74,3.23-.6,2.41-1.38,4.79-2.34,7.12-.96,2.34-2.14,4.3-3.54,5.88-1.41,1.58-3.07,2.38-4.98,2.38-1.61,0-2.75-1.11-3.43-3.32s-1.02-4.8-1.02-7.76.26-5.84.79-8.78,1.26-5.4,2.19-7.39c.93-1.98,2-2.98,3.2-2.98.6,0,1.17.26,1.7.79s.79,1.22.79,2.07c0,.55-.15,1.16-.45,1.81l-.08.23c0,.2.1.36.3.49s.4.19.6.19c.45,0,.83-.23,1.13-.68.5-1,.75-2.01.75-3.02,0-1.56-.52-2.95-1.55-4.18s-2.45-1.85-4.26-1.85c-2.86,0-5.38,1.16-7.54,3.47-1.34,1.43-2.47,3.11-3.45,4.99-.08.13-.16.26-.22.42-.51,1.03-.99,2.1-1.39,3.26-1.21,3.47-1.81,6.99-1.81,10.55,0,.84.05,1.66.13,2.46-.11.39-.21.78-.32,1.16-1.38,4.72-2.7,7.09-3.96,7.09-1.76,0-2.64-3.42-2.64-10.25,0-3.17.15-6.27.45-9.31s.58-5.06.83-6.07c.1-.35.15-.68.15-.98,0-1-.38-1.8-1.13-2.38s-1.61-.87-2.56-.87c-.9,0-1.76.29-2.56.87-.8.58-1.38,1.5-1.73,2.75-.25,1.01-.58,2.89-.98,5.65-.24,1.68-.41,3.47-.5,5.34-.62,2.12-1.38,4.31-2.28,6.58-2.41,6.13-4.9,9.2-7.46,9.2-.7,0-1.18-.3-1.43-.91-.25-.6-.38-1.38-.38-2.34,0-1.96.3-4.47.9-7.54.8-4.72,1.21-8.29,1.21-10.71s-.44-4.54-1.32-6.22-2.55-2.53-5.01-2.53c-3.22,0-5.87,1.12-7.95,3.35-2.09,2.24-3.71,4.94-4.86,8.1-.75-7.74-3.04-11.61-6.86-11.61-2.66,0-4.98,1.32-6.94,3.96s-3.47,5.77-4.52,9.39c.3-4.37.68-7.41,1.13-9.12.1-.35.15-.68.15-.98,0-.95-.39-1.73-1.17-2.34-.78-.6-1.65-.9-2.6-.9-.86,0-1.68.29-2.49.87-.8.58-1.38,1.5-1.73,2.75-.04.15-.08.34-.13.54-.21.08-.41.21-.6.41-.33.33-.52.79-.57,1.39-.75,6.48-1.84,12.09-3.24,16.81-1.41,4.72-2.74,7.09-4,7.09-1.71,0-2.56-3.37-2.56-10.1,0-3.17.15-6.28.45-9.35.3-3.07.58-5.13.83-6.18.1-.35.15-.68.15-.98,0-1-.38-1.8-1.13-2.38s-1.61-.87-2.56-.87c-1.66,0-2.92.78-3.77,2.34-1.41-2.71-3.52-4.07-6.33-4.07-3.17,0-5.93,1.22-8.29,3.66-.91.94-1.71,1.99-2.46,3.1-.02,0-.03.02-.05.03-.1.1-.17.22-.22.36-1.09,1.68-2.03,3.53-2.77,5.6-1.01,2.81-1.63,5.57-1.86,8.29-.12.28-.23.55-.35.83-1.36,3.12-2.9,5.82-4.64,8.1s-3.51,3.43-5.31,3.43c-1.41-.05-2.11-.63-2.11-1.73,0-.96.38-2.16,1.13-3.62s1.65-3.04,2.68-4.75,1.97-3.4,2.83-5.09c.85-1.68,1.28-3.13,1.28-4.33,0-.55-.13-1.03-.38-1.43-.8-.85-2.31-1.63-4.52-2.34-2.56-.8-4.8-1.96-6.71-3.47.3-1.1.45-2.08.45-2.94,0-1.36-.3-2.38-.9-3.05-.6-.68-1.31-1.02-2.11-1.02-.75,0-1.48.31-2.19.94-.7.63-1.21,1.57-1.51,2.83-.15.65-.23,1.31-.23,1.96,0,1.78.6,3.41,1.78,4.87-.03.21-.07.44-.1.67-.28,1.79-.7,3.88-1.28,6.29-.58,2.41-1.36,4.79-2.34,7.12-.98,2.34-2.16,4.3-3.54,5.88-1.38,1.58-3.03,2.38-4.94,2.38-1.61,0-2.76-1.09-3.47-3.28-.7-2.19-1.06-4.79-1.06-7.8,0-1.71.1-3.47.3-5.28,3.72-.95,6.4-2.53,8.03-4.71,1.63-2.19,2.45-4.36,2.45-6.52,0-1.86-.49-3.46-1.47-4.79s-2.35-2-4.11-2c-2.86,0-5.38,1.16-7.54,3.47s-3.84,5.2-5.05,8.67-1.81,6.99-1.81,10.55c0,.4.03.79.05,1.18-.21.55-.42,1.09-.65,1.64-1.56,3.75-3.58,7-6.07,9.76-2.49,2.76-5.54,4.25-9.16,4.45h-.15c-2.46,0-4.5-1.22-6.11-3.66-1.61-2.44-2.8-5.65-3.58-9.65s-1.17-8.33-1.17-13,.39-9.61,1.17-14.51,1.93-9.39,3.47-13.46c1.53-4.07,3.42-7.36,5.65-9.88,2.24-2.51,4.81-3.77,7.73-3.77,2.16,0,3.73.74,4.71,2.22s1.47,3.28,1.47,5.39c0,2.31-.5,4.69-1.51,7.12-1.01,2.44-2.41,4.51-4.22,6.22-1.81,1.71-3.87,2.56-6.18,2.56-.45,0-.79.11-1.02.34s-.34.47-.34.72c0,.3.1.55.3.75.2.2.48.3.83.3,2.91,0,5.49-.97,7.73-2.9,2.24-1.93,3.97-4.33,5.2-7.2,1.23-2.86,1.85-5.65,1.85-8.37s-.7-5.14-2.11-7.12-3.69-2.98-6.86-2.98c-4.12,0-7.94,1.39-11.46,4.18-3.52,2.79-6.56,6.45-9.12,10.97-2.56,4.52-4.56,9.49-5.99,14.89C.69,56.7-.03,62.02-.03,67.25s.73,9.66,2.19,13.91,3.79,7.65,7.01,10.21,7.39,3.84,12.51,3.84c3.02,0,5.68-.87,7.99-2.6,2.31-1.73,4.31-3.96,5.99-6.67,1.01-1.62,1.89-3.31,2.69-5.06.16.62.34,1.22.55,1.82.83,2.36,2.15,4.27,3.96,5.73,1.81,1.46,4.15,2.19,7.01,2.19,5.93,0,10.23-3.72,12.89-11.16,1.47-4.18,2.37-8.6,2.71-13.25,1.57,1.15,3.64,2.03,6.2,2.62-2.11,1.36-3.8,3.34-5.05,5.96-1.26,2.61-1.88,5.2-1.88,7.77,0,2.16.55,4.03,1.66,5.62,1.1,1.58,2.94,2.4,5.5,2.45,2.96,0,5.57-1.13,7.8-3.39,1.85-1.87,3.44-4.09,4.79-6.62.17,1.22.43,2.39.81,3.5.68,1.99,1.72,3.57,3.13,4.75,1.41,1.18,3.22,1.77,5.43,1.77,1.81,0,3.38-.58,4.71-1.73,1.33-1.16,2.47-2.65,3.43-4.49.95-1.83,1.76-3.81,2.41-5.92.2,2.21.6,4.22,1.21,6.03s1.47,3.28,2.6,4.41c1.13,1.13,2.63,1.7,4.49,1.7,3.47,0,6.26-2.99,8.37-8.97.39-1.09.75-2.23,1.08-3.41.34,4.06,1.21,7.22,2.63,9.44,1.36,2.01,2.86,3.02,4.52,3.02,1.76-.1,2.64-1.1,2.64-3.02,0-.65-.15-1.43-.45-2.34-.4-1.61-.6-3.29-.6-5.05,0-4.47.97-8.85,2.9-13.12,1.93-4.27,3.81-6.41,5.62-6.41,1.31,0,1.96,2.69,1.96,8.07,0,3.17-.13,6.58-.38,10.25-.2,2.97-.3,5.4-.3,7.31,0,1.31.49,2.36,1.47,3.17.98.8,2,1.21,3.05,1.21.85,0,1.62-.3,2.3-.9.68-.6,1.02-1.56,1.02-2.87.1-5.08.8-9.92,2.11-14.55,1.06-3.62,2.36-6.65,3.92-9.08,1.56-2.44,3.17-3.66,4.82-3.66,1.1,0,1.66.65,1.66,1.96,0,1.76-.53,4.32-1.58,7.69-.6,2.06-1.16,4.23-1.66,6.52-.5,2.29-.75,4.41-.75,6.37,0,2.41.55,4.41,1.66,5.99,1.1,1.58,3.17,2.38,6.18,2.38,4.52,0,8.12-2.74,10.78-8.22.58-1.19,1.1-2.44,1.58-3.74.12,1.15.28,2.29.49,3.4.48,2.49,1.33,4.54,2.56,6.14,1.23,1.61,2.98,2.41,5.24,2.41,3.17,0,5.78-2.51,7.82-7.53.83,2.18,2.09,3.97,3.79,5.34,1.81,1.46,4.15,2.19,7.01,2.19,5.93,0,10.23-3.72,12.89-11.16.09-.25.16-.51.25-.76.43,3.89,1.39,7.07,2.89,9.5,1.06,1.61,2.61,2.41,4.67,2.41,1.16,0,2.17-.26,3.05-.79s1.32-1.14,1.32-1.85c0-.3-.08-.59-.23-.87-.15-.28-.28-.54-.38-.79-.6-1.76-.9-3.62-.9-5.58,0-3.22.67-6.43,2-9.65s2.91-5.89,4.75-8.03c1.83-2.14,3.51-3.2,5.01-3.2.3,0,.6.05.9.15.3.1.45.45.45,1.06,0,1.26-.48,3.37-1.43,6.33-.6,2.16-1.18,4.47-1.73,6.94-.55,2.46-.83,4.83-.83,7.09,0,2.56.59,4.74,1.77,6.52,1.18,1.79,3.38,2.68,6.6,2.68,4.67,0,8.37-2.91,11.08-8.75.16-.34.31-.7.47-1.05.16.64.34,1.26.56,1.88.83,2.36,2.15,4.27,3.96,5.73,1.81,1.46,4.15,2.19,7.01,2.19,5.93,0,10.23-3.72,12.89-11.16,1.91-5.43,2.86-11.26,2.86-17.49-.15-.95-.43-1.43-.83-1.43h.04ZM268.18,60c1-2.29,2.14-3.43,3.39-3.43.4,0,.73.26.98.79.25.53.38,1.19.38,2,0,1.46-.53,3.1-1.58,4.94-1.06,1.83-2.86,3.15-5.43,3.96.5-3.22,1.26-5.97,2.26-8.25h0ZM49.76,60c1-2.29,2.14-3.43,3.39-3.43.4,0,.73.26.98.79.25.53.38,1.19.38,2,0,1.46-.53,3.1-1.58,4.94-1.06,1.83-2.86,3.15-5.43,3.96.5-3.22,1.26-5.97,2.26-8.25h0ZM66.66,57.17l.53,2.26c-.35-.65-.53-1.41-.53-2.26ZM102.34,75.34c-.9,2.61-1.91,4.94-3.02,6.97-1.11,2.04-2.19,3.05-3.24,3.05-1.61,0-2.41-1.66-2.41-4.98,0-2.56.46-5.58,1.39-9.05s2.08-6.51,3.47-9.12c1.38-2.61,2.75-3.92,4.11-3.92,1.21,0,1.81,3.37,1.81,10.1-.5,2.01-1.21,4.32-2.11,6.94h0ZM665.45,54.38c1,0,1.87-.36,2.6-1.09s1.09-1.62,1.09-2.68-.37-1.87-1.09-2.6c-.73-.73-1.6-1.09-2.6-1.09-1.06,0-1.95.37-2.68,1.09-.73.73-1.09,1.6-1.09,2.6,0,1.06.36,1.95,1.09,2.68.73.73,1.62,1.09,2.68,1.09ZM589.15,24.22l-.75-.08c-2.16,0-4.2.82-6.11,2.45-1.91,1.63-3.64,3.81-5.2,6.52-1.56,2.71-2.94,5.76-4.15,9.12v-1.36c0-4.52-.49-8.33-1.47-11.42-.98-3.09-2.8-4.84-5.46-5.24l-.91-.08c-2.36,0-4.57.98-6.63,2.94-2.06,1.96-3.91,4.54-5.54,7.73s-3.05,6.7-4.26,10.52c-.15-3.47-.64-6.58-1.47-9.35-.83-2.76-2.16-4.96-4-6.6-1.83-1.63-4.36-2.45-7.58-2.45-3.42,0-6.2.86-8.33,2.56-2.14,1.71-3.71,3.91-4.71,6.6-1.01,2.69-1.51,5.49-1.51,8.41,0,3.67.68,7.11,2.04,10.33s3.27,5.53,5.73,6.94c.3.15.55.23.75.23.4,0,.7-.11.9-.34s.3-.49.3-.79c0-.25-.1-.48-.3-.68-1.86-1.66-3.27-3.88-4.22-6.67-.96-2.79-1.43-5.67-1.43-8.63,0-2.56.36-4.96,1.09-7.2.73-2.24,1.82-4.06,3.28-5.47s3.32-2.11,5.58-2.11c1.71,0,2.87.8,3.47,2.41s.9,3.74.9,6.41c0,3.32-.25,7.24-.75,11.76-.7,7.34-1.06,12.79-1.06,16.36,0,9.6,1.86,16.84,5.58,21.71.9.96,1.83,1.43,2.79,1.43.7,0,1.32-.2,1.85-.6.53-.4.79-.85.79-1.36,0-.25-.05-.48-.15-.68-.8-2.06-1.21-4.85-1.21-8.37,0-8.69,1.21-17.67,3.62-26.91,1.61-6.33,3.51-11.76,5.69-16.28,2.19-4.52,4.33-6.79,6.45-6.79.75,0,1.26.43,1.51,1.28s.38,1.99.38,3.39c0,2.82-.3,6.58-.9,11.31-.96,8.19-1.43,14.85-1.43,19.98,0,3.17.2,6.23.6,9.2.25,1.46.92,2.56,2,3.32,1.08.75,2.17,1.13,3.28,1.13,1.46,0,2.19-.68,2.19-2.04,0-7.94,1.26-16.54,3.77-25.78,1.61-6.03,3.47-11.18,5.58-15.46,2.11-4.27,4.15-6.41,6.11-6.41l.45.08c.5.1.75.75.75,1.96,0,2.46-.68,6.66-2.04,12.59-1.01,4.78-2,10.09-2.98,15.94-.98,5.85-1.47,11.62-1.47,17.3,0,9.05,1.68,15.98,5.05,20.81,1.16,1.56,2.35,2.66,3.58,3.32,1.23.65,2.27.98,3.13.98.95-.05,1.43-.33,1.43-.83,0-.3-.23-.65-.68-1.06-2.31-1.96-3.47-6.03-3.47-12.21,0-3.57.3-7.58.9-12.02s1.28-9,2.04-13.65c.75-4.65,1.42-9.15,2-13.49.58-4.35.87-8.28.87-11.8s-.47-6.65-1.39-8.93c-.93-2.29-2.55-3.58-4.86-3.88h-.01ZM502.53,59.58c-.35,0-.69.16-1.02.49s-.52.79-.57,1.39c-.75,6.48-1.83,12.09-3.24,16.81s-2.74,7.09-4,7.09c-1.71,0-2.56-3.37-2.56-10.1,0-3.17.15-6.28.45-9.35.3-3.06.58-5.13.83-6.18.1-.35.15-.68.15-.98,0-1-.38-1.8-1.13-2.38s-1.61-.87-2.56-.87c-1.66,0-2.92.78-3.77,2.34-1.41-2.71-3.52-4.07-6.33-4.07-3.17,0-5.93,1.22-8.29,3.66-2.36,2.44-4.2,5.47-5.5,9.08-1.31,3.62-1.96,7.16-1.96,10.63,0,1.36.13,2.66.35,3.89-.25.48-.5.97-.77,1.42-1.38,2.39-2.9,3.58-4.56,3.58-1.91-.15-2.87-3.77-2.87-10.86,0-5.08.5-10.78,1.51-17.11,3.62-1.86,6.57-4.7,8.86-8.52,2.29-3.82,3.43-7.21,3.43-10.18,0-1.46-.34-2.65-1.02-3.58-.68-.93-1.75-1.39-3.2-1.39-2.31,0-4.52,1.11-6.63,3.32-2.11,2.21-4.01,5.08-5.69,8.59-1.68,3.52-3.05,7.36-4.11,11.53-1.31-2.71-3.42-4.07-6.33-4.07-3.17,0-5.93,1.22-8.29,3.66-2.36,2.44-4.2,5.47-5.5,9.08-1.31,3.62-1.96,7.19-1.96,10.71,0,2.31.33,4.46.98,6.45.65,1.99,1.68,3.57,3.09,4.75s3.24,1.77,5.5,1.77c1.86,0,3.47-.63,4.83-1.88,1.36-1.26,2.53-2.84,3.5-4.75.98-1.91,1.8-3.95,2.45-6.11.4,3.77,1.43,6.84,3.09,9.2,1.66,2.36,4.1,3.54,7.31,3.54,2.21,0,4.15-.98,5.8-2.94.61-.73,1.18-1.54,1.73-2.39.66,1.43,1.53,2.63,2.64,3.56,1.41,1.18,3.22,1.77,5.43,1.77,1.81,0,3.38-.58,4.71-1.73,1.33-1.16,2.48-2.65,3.43-4.49.95-1.83,1.76-3.81,2.41-5.92.2,2.21.6,4.22,1.21,6.03.6,1.81,1.47,3.28,2.6,4.41s2.62,1.7,4.49,1.7c3.47,0,6.26-2.99,8.37-8.97,1.56-4.37,2.66-9.47,3.32-15.3.3-2.46.45-4.07.45-4.82-.15-1-.5-1.51-1.06-1.51h0ZM460.84,42.62c1.46-3.52,3.04-5.28,4.75-5.28.75.1,1.13.68,1.13,1.73,0,1.86-.93,4.55-2.79,8.07-1.86,3.52-4.1,6.28-6.71,8.29.95-5.02,2.16-9.3,3.62-12.82h0ZM444.25,74.89c-.9,2.61-1.91,4.94-3.02,6.97-1.11,2.04-2.19,3.05-3.24,3.05-1.61,0-2.41-1.66-2.41-4.98,0-2.56.46-5.58,1.4-9.05.93-3.47,2.08-6.51,3.47-9.12,1.38-2.61,2.75-3.92,4.11-3.92,1.21,0,1.81,3.37,1.81,10.1-.5,2.01-1.21,4.32-2.11,6.94h-.01ZM481.04,74.89c-.91,2.61-1.91,4.94-3.02,6.97-1.11,2.04-2.19,3.05-3.24,3.05-1.61,0-2.41-1.66-2.41-4.98,0-2.56.46-5.58,1.39-9.05.93-3.47,2.08-6.51,3.47-9.12,1.38-2.61,2.75-3.92,4.11-3.92,1.21,0,1.81,3.37,1.81,10.1-.5,2.01-1.21,4.32-2.11,6.94h0ZM705.05,61.39c-.35,0-.68.33-.98.98-1.51,3.67-4.78,6.18-9.8,7.54-.2-2.87-.75-5.54-1.66-8.03-.9-2.49-2.15-4.52-3.73-6.11s-3.51-2.38-5.77-2.38c-2.06,0-3.62.77-4.67,2.3-.81,1.18-1.3,2.5-1.49,3.96-.2.08-.4.21-.6.42-.33.33-.54.79-.64,1.39-.75,6.48-1.82,12.09-3.2,16.81s-2.7,7.09-3.96,7.09c-1.76,0-2.64-3.42-2.64-10.25,0-3.17.15-6.27.45-9.31s.58-5.06.83-6.07c.1-.35.15-.68.15-.98,0-1-.38-1.8-1.13-2.38s-1.61-.87-2.56-.87c-.9,0-1.76.29-2.56.87-.8.58-1.38,1.5-1.73,2.75-.25,1.01-.58,2.89-.98,5.65-.17,1.14-.29,2.33-.39,3.56-.79,2.3-1.74,4.73-2.86,7.3-1.36,3.12-2.9,5.82-4.64,8.1s-3.51,3.43-5.31,3.43c-1.41-.05-2.11-.63-2.11-1.73,0-.96.38-2.16,1.13-3.62s1.65-3.04,2.68-4.75c1.03-1.71,1.97-3.4,2.83-5.09.85-1.68,1.28-3.13,1.28-4.33,0-.55-.13-1.03-.38-1.43-.8-.85-2.31-1.63-4.52-2.34-2.56-.8-4.8-1.96-6.71-3.47.3-1.1.45-2.08.45-2.94,0-1.36-.3-2.38-.9-3.05-.6-.68-1.31-1.02-2.11-1.02-.75,0-1.48.31-2.19.94-.71.63-1.21,1.57-1.51,2.83-.15.65-.23,1.31-.23,1.96,0,1.43.39,2.76,1.15,3.98-.74,5.79-1.75,10.85-3.04,15.17-1.41,4.72-2.74,7.09-4,7.09-1.71,0-2.56-3.37-2.56-10.1,0-3.17.15-6.28.45-9.35.3-3.06.58-5.13.83-6.18.1-.35.15-.68.15-.98,0-1-.38-1.8-1.13-2.38s-1.61-.87-2.56-.87c-1.66,0-2.92.78-3.77,2.34-1.41-2.71-3.52-4.07-6.33-4.07-3.17,0-5.93,1.22-8.29,3.66s-4.2,5.47-5.5,9.08c-1.31,3.62-1.96,7.16-1.96,10.63,0,2.36.34,4.54,1.02,6.52.68,1.99,1.72,3.57,3.13,4.75,1.41,1.18,3.22,1.77,5.43,1.77,1.81,0,3.38-.58,4.71-1.73,1.33-1.16,2.48-2.65,3.43-4.49.95-1.83,1.76-3.81,2.41-5.92.2,2.21.6,4.22,1.21,6.03.6,1.81,1.47,3.28,2.6,4.41s2.62,1.7,4.49,1.7c3.47,0,6.26-2.99,8.37-8.97,1.56-4.37,2.66-9.47,3.32-15.3,0-.07.02-.14.03-.21,1.59,1.19,3.68,2.09,6.31,2.7-2.11,1.36-3.79,3.34-5.05,5.96-1.26,2.61-1.88,5.2-1.88,7.77,0,2.16.55,4.03,1.66,5.62s2.94,2.4,5.5,2.45c2.96,0,5.57-1.13,7.8-3.39,2.24-2.26,4.11-5,5.62-8.22.51-1.09.97-2.17,1.4-3.25.07,2.17.29,4.28.68,6.3.48,2.49,1.33,4.54,2.56,6.14,1.23,1.61,2.98,2.41,5.24,2.41,3.47,0,6.26-2.99,8.37-8.97.33-.95.64-1.93.93-2.94v.22c0,1.91.28,3.68.83,5.32.55,1.63,1.47,2.95,2.75,3.96s3,1.51,5.16,1.51,4.13-.8,5.62-2.41c1.48-1.61,2.59-3.69,3.32-6.26s1.09-5.25,1.09-8.07v-.91c3.37-.8,6.08-2.08,8.14-3.84,2.06-1.76,3.14-3.59,3.24-5.5-.1-.6-.33-.9-.68-.9h-.04ZM614.33,74.89c-.91,2.61-1.91,4.94-3.02,6.97-1.11,2.04-2.19,3.05-3.24,3.05-1.61,0-2.41-1.66-2.41-4.98,0-2.56.46-5.58,1.39-9.05s2.08-6.51,3.47-9.12c1.38-2.61,2.75-3.92,4.11-3.92,1.21,0,1.81,3.37,1.81,10.1-.5,2.01-1.21,4.32-2.11,6.94h0ZM637.7,56.72l.53,2.26c-.35-.65-.53-1.41-.53-2.26ZM677.67,68.25c.11-.77.21-1.55.3-2.34v-.03c.13.29.25.57.4.86-.25.5-.48,1-.7,1.51ZM680.25,63.95c-.4-1.21-.6-2.34-.6-3.39,0-1.36.3-2.51.9-3.47.6-.95,1.51-1.43,2.71-1.43,1.76,0,3.25.7,4.49,2.11,1.23,1.41,2.2,3.23,2.9,5.47s1.13,4.61,1.28,7.12c-.85.15-1.71.23-2.56.23-2.01,0-3.62-.35-4.82-1.05.75-2.81,1.61-4.7,2.56-5.65.15-.15.23-.3.23-.45,0-.35-.26-.69-.79-1.02-.53-.33-1.22-.49-2.07-.49-1.01,0-2.14.4-3.39,1.21-.3.25-.58.53-.83.83v-.02ZM692.01,72.77c0,3.57-.54,6.79-1.62,9.65s-2.65,4.3-4.71,4.3c-1.66,0-2.49-2.26-2.49-6.79,0-2.61.3-5.43.91-8.44,1.21.45,2.51.68,3.92.68h1.06c1,0,1.98-.05,2.94-.15v.75h0Z"/>
  <path class="st0" d="M405.26,70.32c-1.17-.69-2.4-1.25-3.68-1.66,1.43-.3,2.84-.78,4.21-1.43,2.04-.97,4.08-2.37,6.07-4.17,2.63-2.38,4.04-6.37,3.66-10.41-.41-4.54-2.91-8.04-6.67-9.36-.8-.28-1.63-.45-2.47-.49-.95-.04-1.93.12-2.93.49l-.07.04c-.28.1-.56.21-.83.34-.08.04-.17.09-.25.13-.09.04-.17.09-.26.13-2.1,1.11-3.2,2.48-3.38,4.19-.09.96.11,1.94.58,2.78.02.04.05.09.07.13l.03.05c.33.54.75.99,1.27,1.35,1.68,1.17,4.24,1.43,5.67-.41.63-.81.75-1.8.32-2.65-.01-.02-.02-.04-.03-.06,0-.02-.02-.03-.03-.05l-.04-.06c-.1-.15-.22-.31-.36-.46.49-.04.97.02,1.4.19.03,0,.05.02.08.03.03.02.06.03.09.05.02,0,.04.02.07.04.73.37,1.37,1.06,1.83,2.01l.02.04c.53,1.1.78,2.49.67,3.69-.32,3.41-2.64,6.05-4.35,7.73-1.38,1.35-3.19,2.54-5.37,3.54.69-.71,1.23-1.44,1.64-2.22l.02-.04c.82-1.54.96-3.32.39-5.04v-.02c-.55-1.64-1.67-3-3.17-3.85l-.21-.12c-1.56-.81-3.34-.63-4.64.44-.88.73-1.5,1.85-1.58,2.86-.05.75.17,1.42.63,1.96.67.76,1.86,1.1,2.9.82.58-.16,1.04-.49,1.34-.96,1.17,1.01,1.32,2.23.47,3.73-.01.02-.02.04-.04.06-.02.03-.04.06-.05.09l-.05.07s-.03.06-.05.09-.04.06-.06.09c-.01.02-.03.05-.05.08-.56.82-1.67,1.39-2.33,1.68-2.79-2.76-6.27-6.88-10.3-11.64.4-.93.75-1.93,1.09-3.14.34-1.2.61-2.44.84-3.53l.02-.08c.5-2.29,1.02-4.67,2.1-6.77.9-1.76,3.26-3.43,5.48-3.89.38-.08.76-.12,1.12-.12-.34.27-.6.62-.76,1.02-.4,1.02-.19,2.42.54,3.55,1.44,2.23,4.47,2.68,6.58,1.96.25-.08.5-.19.8-.35,1.89-1.01,2.97-3.11,2.81-5.48-.25-4-4.66-6.4-8.89-6.72-3.83-.28-7.4,1.45-10.84,5.31-2.83,3.18-5.18,9.1-5.95,11.04l-.02.06c-.11.28-.21.55-.31.82-2.85-3.33-5.47-6.3-8.21-9.32,2.21-.48,8.69-2.02,13.04-4.13,5.64-2.74,8.41-7.24,6.74-10.92-.86-1.91-2.48-3.42-4.43-4.15-1.72-.64-3.51-.59-5.07.13-.95.44-1.75,1.05-2.32,1.77-.66.85-1,1.81-1,2.85,0,1.94.87,3.56,2.39,4.47,1.42.85,3.18.91,4.76.17-.8.88-1.79,1.64-2.85,2.17-2.92,1.48-13.38,2.69-15.63,2.93-3.15-3.35-6.27-6.52-9.52-9.67l-.03-.03c-.09-.09-.19-.19-.29-.28.22-.58.82-1.96,1.74-2.62.05-.04.1-.07.16-.11l.03-.02s.07-.05.1-.06l.03-.02s.09-.06.16-.1c.02-.02.05-.03.08-.04.03-.02.06-.03.08-.04,1.42-.79,2.56-.64,3.58.48-.47.31-.8.78-.94,1.36-.25,1.04.11,2.22.88,2.88.49.4,1.05.61,1.68.61.1,0,.2-.01.29-.02,1.01-.1,2.12-.75,2.83-1.64,1.05-1.33,1.19-3.11.34-4.65-.84-1.53-2.29-2.73-3.99-3.28l-.11-.03c-1.67-.5-3.4-.35-4.88.43h-.1l-.1.12c-.75.42-1.45.97-2.14,1.67.95-2.2,2.11-4.03,3.43-5.43,1.66-1.76,4.25-4.14,7.64-4.52,1.18-.14,2.57.08,3.71.59l.06.04c.9.41,1.59,1,1.98,1.69l.06.12s.03.06.04.09l.09.25.02.04c.13.37.18.78.15,1.21-.15-.13-.3-.24-.44-.32-.03-.02-.06-.04-.08-.05-.04-.03-.08-.05-.13-.07-.86-.41-1.84-.27-2.63.39-1.8,1.47-1.49,4.02-.28,5.68.39.52.9.97,1.48,1.29.04.03.07.04.09.05.86.44,1.84.62,2.78.51,1.71-.21,3.05-1.34,4.11-3.47.09-.17.17-.35.24-.52.61-1.33.87-2.62.79-3.84-.06-.81-.24-1.64-.54-2.46-1.4-3.73-4.95-6.15-9.51-6.47-4.04-.29-8,1.2-10.32,3.88-1.77,2.05-3.14,4.12-4.05,6.17-.54,1.2-.96,2.46-1.23,3.75-.44-1.42-1.08-2.79-1.88-4.1-1.18-1.93-2.78-3.81-4.75-5.58-2.64-2.37-6.75-3.36-10.73-2.57-4.48.88-7.7,3.72-8.63,7.59-.2.85-.27,1.7-.22,2.5.03.57.15,1.17.35,1.81l.59,1.25c-1.13-1.3-2.87-1.98-4.82-1.85-4.01.25-6.41,4.67-6.72,8.9-.21,2.98.76,5.73,2.97,8.42.65.8,1.44,1.61,2.34,2.41,3.23,2.88,9.15,5.22,11.1,5.98l.23.08c-2.16,2.19-5.33,5.4-8.67,8.68-.6-2.74-2.13-9.04-4.19-13.29-.66-1.36-1.45-2.6-2.36-3.68-2.66-3.15-5.86-4.3-8.57-3.07-1.92.86-3.43,2.48-4.16,4.43-.63,1.72-.58,3.52.14,5.06.43.95,1.04,1.75,1.77,2.32.1.08.21.16.32.24.76.51,1.61.76,2.53.76,1.94,0,3.56-.87,4.47-2.39.84-1.41.9-3.16.18-4.74.87.8,1.63,1.78,2.16,2.83,1.45,2.87,2.63,12.9,2.96,15.9.01.1.02.15.02.15h0v.05c-3.04,2.9-5.92,5.57-8.8,8.16-.61-.24-1.92-.83-2.55-1.71-.04-.05-.08-.1-.11-.16-.03-.04-.05-.08-.09-.12l-.02-.05s-.06-.08-.1-.16c-.03-.05-.06-.09-.09-.14-.78-1.43-.63-2.57.49-3.58.31.47.78.8,1.36.94,1.03.26,2.21-.1,2.87-.88.47-.55.67-1.23.6-1.97-.1-1.01-.75-2.12-1.64-2.83-1.33-1.05-3.11-1.18-4.65-.34l-.22.11c-1.46.88-2.55,2.25-3.07,3.87l-.03.11c-.51,1.66-.35,3.39.44,4.88v.09l.1.1c.44.76.99,1.47,1.68,2.15-2.21-.96-4.03-2.11-5.43-3.43-1.76-1.65-4.13-4.23-4.52-7.64-.15-1.2.08-2.59.6-3.73l.02-.04c.43-.91,1.02-1.6,1.7-1.98l.12-.06s.06-.03.09-.04l.26-.09.09-.04h0c.36-.12.74-.16,1.15-.13-.11.13-.22.28-.33.44l-.11.11v.09c-.41.87-.27,1.85.39,2.64,1.47,1.8,4.02,1.49,5.67.28.53-.38.98-.9,1.31-1.49l.06-.11c.43-.84.61-1.82.49-2.74-.15-1.28-.83-2.35-2.06-3.27-.42-.3-.89-.59-1.39-.84-.13-.07-.27-.14-.41-.2l-.11-.05c-1.32-.6-2.61-.86-3.84-.78-.81.05-1.63.23-2.47.53-3.74,1.4-6.16,4.96-6.47,9.52-.28,4.04,1.2,7.99,3.88,10.31,2.03,1.76,4.12,3.13,6.19,4.06,1.23.55,2.48.96,3.72,1.22-1.4.44-2.78,1.07-4.08,1.88-1.92,1.17-3.79,2.77-5.58,4.75-2.37,2.64-3.36,6.75-2.58,10.72.89,4.49,3.73,7.72,7.6,8.64.67.16,1.35.24,2.03.24.15,0,.31,0,.48-.02.19-.01.37-.03.56-.06-1.35,1.12-2.06,2.91-1.92,4.88.25,4.01,4.66,6.41,8.89,6.72.28.02.54.03.8.03,3.56,0,6.84-1.75,10.04-5.34,2.86-3.21,5.2-9.15,5.97-11.09.11-.28.21-.56.31-.84.6.68,1.19,1.34,1.77,1.99l.61.68c2.05,2.32,4,4.51,5.94,6.64-2.7.59-8.93,2.1-13.15,4.15-5.64,2.75-8.41,7.24-6.74,10.92.86,1.92,2.48,3.43,4.43,4.16,1.69.62,3.52.58,5.07-.14.85-.39,1.55-.9,2.09-1.5.08-.09.15-.17.23-.27.66-.85,1-1.8,1-2.85,0-1.94-.87-3.56-2.39-4.47-1.41-.84-3.16-.9-4.74-.18.8-.87,1.78-1.63,2.83-2.16,2.87-1.46,12.77-2.62,15.85-2.95,2.87,2.92,5.59,5.47,8.54,8.01-.28.65-.83,1.72-1.59,2.27l-.19.13s-.06.05-.12.07l-.04.03s-.08.05-.17.1c-.04.02-.08.05-.14.08-1.4.79-2.57.63-3.57-.48.47-.31.79-.77.93-1.36.26-1.03-.1-2.21-.88-2.88-.54-.46-1.23-.67-1.97-.59-1,.1-2.11.75-2.82,1.64-1.05,1.33-1.19,3.11-.35,4.65.84,1.53,2.29,2.73,3.99,3.28l.11.03c.63.19,1.28.29,1.94.29,1.04,0,2.03-.24,2.95-.72h.41v-.24c.66-.41,1.31-.93,1.93-1.56-.96,2.21-2.11,4.04-3.44,5.44-1.65,1.76-4.23,4.14-7.63,4.52-1.19.14-2.59-.08-3.72-.6l-.05-.03c-.9-.41-1.59-1-1.98-1.69l-.08-.15s-.03-.06-.04-.1l-.06-.16c-.13-.34-.19-.7-.19-1.06v-.24c.16.14.32.26.47.35l.03.02h0s.1.06.14.08c.86.41,1.85.26,2.63-.39,1.81-1.47,1.5-4.02.29-5.68-.39-.53-.89-.96-1.47-1.28l-.06-.04h-.03c-.85-.46-1.84-.65-2.79-.53-1.08.13-1.99.62-2.8,1.49h0c-.48.54-.92,1.2-1.31,1.97-.07.13-.13.27-.19.4l-.06.13c-.6,1.34-.86,2.63-.78,3.84.05.82.23,1.65.54,2.47,1.39,3.73,4.94,6.15,9.53,6.47.31.02.64.04.96.04,3.72,0,7.21-1.47,9.33-3.92,1.76-2.02,3.12-4.1,4.06-6.17.55-1.23.96-2.49,1.23-3.75.45,1.43,1.08,2.81,1.87,4.09,1.19,1.93,2.79,3.81,4.75,5.58,2.02,1.81,4.94,2.84,8.02,2.84.9,0,1.81-.09,2.7-.27,4.48-.88,7.71-3.72,8.63-7.59.2-.82.28-1.66.22-2.5v-.13c.92.57,2.01.88,3.2.88h.46c4.01-.27,6.41-4.68,6.72-8.9.28-3.86-1.46-7.41-5.31-10.84-3.23-2.87-9.15-5.2-11.1-5.97-.14-.06-.29-.11-.45-.17l8.92-8.46c.59,2.7,2.09,8.92,4.15,13.15,2.17,4.45,5.51,7.22,8.71,7.22.78,0,1.52-.16,2.22-.48,1.91-.87,3.42-2.48,4.15-4.43.64-1.71.59-3.51-.13-5.07-.06-.13-.12-.25-.19-.38,1.14.61,2.28.94,3.4.99h.3c.74,0,1.48-.1,2.2-.28,3.85-1,6.62-4.29,7.41-8.8.7-3.98-.38-8.06-2.81-10.66-1.79-1.92-3.68-3.47-5.64-4.61l.04-.03ZM411.12,62.23s-.04.04-.06.06c1.15-1.28,1.88-2.42,2.25-3.05-.55,1.16-1.29,2.18-2.19,3h0ZM406.73,63.29c1.84-1.81,4.33-4.66,4.69-8.42.12-1.41-.17-3-.79-4.28,0-.02-.02-.04-.03-.06-.56-1.16-1.36-2.02-2.32-2.5-.03,0-.07-.03-.1-.04-.03-.02-.07-.03-.11-.05l-.15-.06c-.64-.25-1.34-.33-2.06-.24-.41.05-.78.14-1.2.25l-.29.07c-.26.05-.45.29-.44.55v.13c.08.29.35.47.62.41h.1c.31.03.69.39.89.71l.02.04s.01.03.03.04h0c.24.47.16,1.02-.21,1.49-1.01,1.29-2.9,1.05-4.16.18-.39-.28-.71-.62-.95-1-.01-.03-.03-.06-.05-.1-.01-.02-.02-.04-.04-.07-.36-.66-.52-1.42-.45-2.14.12-1.32,1.01-2.37,2.78-3.31l.48-.24c1.16-.55,2.27-.81,3.3-.76.74.04,1.46.18,2.16.42,3.33,1.16,5.55,4.31,5.94,8.41.18,2-.1,3.98-.78,5.72,0-.06-.01-.12-.03-.17-.05-.14-.15-.25-.29-.31-.13-.06-.28-.07-.42-.02s-.25.15-.32.29c-.03.07-3.34,6.88-11.75,8.89,1.86-.84,4.1-2.1,5.9-3.86l.03.03ZM410.5,50.61h0ZM398.99,64.7c.05-.06.09-.13.11-.17.02-.02.04-.05.05-.08l.12-.19s.05-.08.08-.13c1.26-2.22.8-4.15-1.33-5.58l-.71-.45-.19.75v.05c-.11.56-.52.77-.84.85-.62.17-1.37-.04-1.76-.48-.28-.32-.4-.69-.36-1.14.06-.71.53-1.55,1.17-2.09.96-.79,2.27-.91,3.42-.32l.07.04s.08.04.12.07c1.26.71,2.2,1.87,2.66,3.26l.03.09c.17.56.25,1.11.25,1.64,0,.82-.2,1.65-.57,2.38h0l-.05.1c-.74,1.39-1.97,2.64-3.86,3.94h-.07c-.23-.2-.47-.42-.73-.66.79-.39,1.8-1.02,2.39-1.89h0ZM396.52,69.42s.06.03.1.04l.09.04.04.05.07.04h.01c1.75,1.42,2.9,2.8,3.52,4.23l.02.05c.57,1.32.56,2.8-.03,4.17-.57,1.35-1.65,2.46-2.96,3.06l-.15.05c-1.19.51-2.49.28-3.38-.58-.61-.59-1.01-1.46-1.01-2.18,0-.44.16-.81.46-1.11.29-.28.75-.43,1.19-.43.21,0,.41.03.6.1.31.11.69.35.75.88v.92l.89-.47c2.24-1.26,2.86-3.14,1.78-5.43-.02-.06-.05-.13-.09-.18-.04-.08-.08-.16-.11-.24l-.04-.07s-.05-.08-.07-.12c-.55-.95-1.57-1.69-2.39-2.15l.71-.67ZM380.69,49.41l.11-.33c.16-.52.36-1.08.59-1.7.76-1.9,3.06-7.7,5.77-10.75,3.19-3.59,6.44-5.21,9.93-4.95,4.95.37,7.71,3.14,7.87,5.68.15,2.25-.95,4.05-2.85,4.7-1.73.58-4.17.24-5.31-1.51-.54-.84-.71-1.86-.44-2.55.18-.45.54-.74,1.09-.87.43-.11.58-.06.94.18l.07.07c.07.06.14.08.19.1.08.03.15.05.21.05.19,0,.35-.09.45-.23.17-.25.12-.59-.13-.77l-.12-.09c-1.12-.89-2.61-1.17-4.31-.81-2.56.53-5.19,2.41-6.25,4.47-1.16,2.28-1.7,4.74-2.22,7.13l-.07.33c-.22,1.04-.46,2.12-.75,3.14-.37,1.28-.74,2.33-1.19,3.31-.98,2.16-2.37,4-4.24,5.61-1.5,1.27-3.29,2.4-5.45,3.45h0s-.05-.02-.07-.02h-.01s-.06-.03-.09-.05c-.02,0-.03-.02-.04-.03-.02-.02-.04-.03-.06-.05-.23-.2-.41-.45-.61-.68-.2-.24-.4-.47-.6-.72-.02-.03-.05-.06-.07-.09,0,0-.02-.03-.03-.04-.04-.06-.08-.11-.12-.17,0,0,0-.02-.02-.03.42-.27.8-.55,1.12-.82l.21-.18c.11-.1.22-.2.33-.31.19-.19.35-.35.5-.53.89-1,1.7-2.03,2.4-3.04,1.91-2.78,2.62-4.96,3.26-6.88v-.02ZM360.95,8.09c.8-.92,1.81-1.68,2.96-2.26-.63.38-1.76,1.15-3.03,2.34.02-.03.05-.05.07-.08ZM364.9,6.54c.27-.14.38-.46.25-.75-.07-.13-.19-.23-.33-.28-.05-.02-.1-.02-.16-.03,1.72-.71,3.7-1.04,5.69-.89,4.12.29,7.31,2.44,8.54,5.75.26.71.42,1.43.47,2.15.07,1.02-.16,2.13-.69,3.31-.05.11-.1.21-.15.32l-.08.16c-.9,1.78-1.93,2.69-3.25,2.85-.73.09-1.49-.06-2.15-.41l-.06-.03c-.44-.24-.83-.58-1.12-.97-.91-1.24-1.18-3.13.09-4.17.29-.24.62-.36.93-.36.18,0,.35.04.52.12.02,0,.03.02.07.04l.04.03c.32.19.69.56.73.88v.17c0,.16.07.3.19.41.01.01.03.03.07.05.02.02.05.03.08.04.02.01.04.03.07.03.14.04.28.03.41-.03.12-.06.22-.17.27-.29l.09-.38c.1-.42.18-.81.23-1.23.07-.69,0-1.35-.24-1.95v-.25l-.13-.06s-.02-.03-.02-.05l-.02-.05s-.02-.03-.03-.07l-.08-.15h0c-.5-.86-1.33-1.58-2.42-2.09l-.04-.02c-1.33-.61-2.95-.88-4.35-.72-3.78.44-6.56,2.99-8.32,4.87-1.72,1.83-2.94,4.1-3.74,5.97,1.84-8.46,8.57-11.9,8.65-11.94v.02ZM356.16,22.06l.06-.07v-.06c1.26-1.92,2.49-3.18,3.87-3.95h.04c1.22-.69,2.66-.85,4.05-.46l.11.03c1.46.45,2.72,1.46,3.44,2.78.62,1.14.53,2.45-.24,3.43-.53.66-1.36,1.15-2.07,1.22-.44.05-.83-.07-1.15-.34-.45-.37-.68-1.13-.52-1.76.07-.32.27-.72.81-.84l.77-.3-.43-.63c-.91-1.29-2-1.95-3.22-1.95-.69,0-1.42.21-2.19.64-.06.03-.14.07-.19.1-.07.04-.13.08-.21.13-.05.04-.11.07-.15.1-.08.04-.14.1-.2.15-.74.52-1.41,1.45-1.95,2.68-.11-.11-.23-.21-.34-.32l-.06-.06c-.06-.06-.13-.13-.18-.16l-.1-.1s-.01-.02-.02-.03c0,0,.07-.23.07-.23ZM354.95,33c1.92,1.82,3.84,3.72,5.72,5.64-2.47,2.98-4.14,5.13-5.37,7.25-.15.26-.07.59.2.75.26.15.6.06.76-.2,1.19-2.06,2.81-4.13,5.19-7.01.67.69,1.35,1.4,2.01,2.1-.87.81-2.49,2.71-4.82,5.66-.94,1.2-1.8,2.47-2.55,3.8-.14.25-.08.57.16.74-.98,1.21-1.74,2.59-2.2,4.01v.03c-.04.1-.83,2.48-1.19,3.89-.58-.38-1.17-.68-1.75-.88-.13-.05-.25-.09-.36-.13.01-.25.03-.5.05-.75.08-1.21.16-2.47-.19-3.7s-1.02-2.36-1.94-3.27c.62-.21,1.27-.32,1.93-.3.42,0,.85.04,1.23-.17.36-.2.65-.6.61-1.02-.01-.14-.08-.27-.17-.37v-.05c-.16-.4-.34-.81-.53-1.23-1.36-2.89-2.86-5.17-4.6-6.96,2.89-2.94,5.46-5.51,7.83-7.84h-.02ZM362.78,54.81c.66.43,1.47.56,2.25.36-.09.29-.14.6-.14.92.01.89.42,2.07,1.54,2.49.31.13.64.16.95.09-.95,1.64-3.01,1.84-3.82,1.86-.02-1.59-.58-2.85-.58-2.85l-.17-.42-.52.11c-1.16.25-3.89.9-5.35,1.76.37-1.21.79-2.29,1.13-2.86.82-1.36,1.97-2.52,3.34-3.34.08-.05.25-.16.47-.27-.05.16-.08.32-.08.48-.01.65.35,1.28.98,1.68h0ZM361.76,62.99c-.11.16-.23.3-.34.42-1.05,1.1-2.08,1.58-2.77,1.79-.3.09-.59.16-.86.19-.22-.39-.5-.68-.84-.86-.35-.19-.71-.25-1.1-.29.06-.52.15-1.18.31-1.85.03-.06.05-.13.05-.17v-.05s.01-.03.01-.04l.14-.46c.22-.63.5-1.11.81-1.36,1.05-.84,4.1-1.57,4.95-1.76.15.49.31,1.2.33,1.95h-.26v.55c-.01.52-.11.99-.27,1.42l-.18.51h.02ZM363.37,76.31c0-.07,0-.51.08-2.65.05-1.23-.03-2.23-.23-3.04,2.43.63,4.51,2.34,5.55,4.52-.17-.06-.34-.09-.52-.09-.65.01-1.28.38-1.67.98-.48.76-.58,1.67-.26,2.54-.3-.09-.59-.14-.88-.12-.88,0-2.07.4-2.51,1.53-.12.32-.15.64-.08.95-.84-.49-1.26-1.27-1.44-1.71-.22-.61-.32-1.35-.29-2.13h0c1.05,0,1.79-.15,1.82-.16l.5-.12-.06-.48v-.02ZM362.34,73.61l-.02.65c-.03.72-.04,1.27-.05,1.63-.6.07-1.2.09-1.81.04h-.05c-1.35-.11-3.25-.58-4.68-2.18-.07-.08-.13-.15-.19-.24-.78-1.11-.57-2.55-.46-3.08.72-.15,1.38-.44,1.91-.84.48-.36.83-.77,1.04-1.25.02-.04.03-.09.05-.13.27.06.57.11.9.16.77.12,1.82.29,2.2.72.18.2.36.42.53.7-.02.21.08.41.26.52.31.8.43,1.84.38,3.29h-.01ZM346.37,78.2c-.37-.24-.78-.38-1.22-.43l.57-.41c.57-.4,1.44-.55,2.43-.69h.04c.59-.1,1.19-.19,1.72-.37.68-.22,1.28-.48,1.8-.79-.2.43-.42.85-.65,1.22-.81,1.37-1.96,2.53-3.33,3.35-.12.08-.29.17-.47.27.05-.15.08-.32.08-.49,0-.65-.37-1.27-.98-1.67h.01ZM344.87,76.36v.49l-.1.91c-.27,0-.54.04-.79.12.1-.3.15-.62.15-.95-.01-.89-.42-2.07-1.54-2.5-.22-.08-.43-.12-.64-.12-.1,0-.21,0-.31.03.87-1.51,2.7-1.8,3.62-1.85-.41,1.5-.4,3.03-.39,3.87h0ZM349.57,75.26c-.43.14-.95.22-1.5.3l-.11.02c-.67.1-1.36.2-1.98.43,0-.81.03-2.25.45-3.54.2-.07.33-.25.35-.46.01-.11,0-.21-.05-.3.27-.55.61-.98,1.01-1.29.07-.05.13-.1.2-.15.09-.07.17-.13.26-.2.53-.38,1.1-.74,1.71-1.07h0c.55-.3,1.01-.5,1.34-.63.2.9.74,1.59,1.52,1.92.07.56.11,1,.08,1.52l-.02.08c-.05.25-.07.31-.06.34-.04.29-.1.6-.17.89-.49,1.12-1.91,1.79-3.01,2.15h-.02ZM346.29,64.42c-1.1-.55-2.24-1.25-3.03-1.72l-.38-.22c-1.36-.82-2.52-1.97-3.34-3.34-.05-.08-.16-.25-.27-.47.81.26,1.67-.13,2.15-.9.32-.48.47-1.04.45-1.61.51.36,1.11.54,1.73.54.89,0,2.08-.42,2.49-1.54.13-.31.16-.63.09-.95,1.43.84,1.9,2.65,1.85,4.15-.6.06-1.03.2-1.26.29l-.18.09-.09.18c-.06.13-1.5,3.06-.22,5.5h0ZM347.42,59.61c.19-.06.59-.16,1.16-.17.41,0,.82.03,1.22.12.13.12.34.18.5.12l.08.03c.11.03.22.06.32.11.58.22,1.15.52,1.71.89.03.02.05.04.08.06l.05.04s.05.04.07.06c.02.02.04.04.07.06.06.06.13.13.19.2,1.14,1.22,1.11,2.46.97,3.13-.65.11-1.17.35-1.6.74-.36.33-.64.76-.84,1.25-.51-.06-1.59-.25-2.57-.79-.07-.1-.19-.17-.33-.2-.51-.33-.89-.72-1.15-1.16-1-1.7-.18-3.93.05-4.49h.02ZM352.26,67.75c.02-.08.03-.16.02-.24,0-.02,0-.04,0-.02,0-.16.03-.33.06-.47.11-.5.35-.92.67-1.2.24-.21.55-.36.94-.45.02.01.04.03.07.04.21.09.44.04.61-.12h.17c.14,0,.27,0,.42.01.16,0,.31.02.47.04.31.03.54.06.72.16.22.12.4.34.53.66l.09.26c.1.33.14.66.12.95h0l-.02.05c-.01.06-.01.12-.01.16-.02.11-.05.23-.1.34-.13.29-.37.57-.7.81-.48.35-1.12.61-1.77.7-.36.05-.72.04-1.07-.04-.05-.03-.11-.04-.17-.05,0,0-.02,0-.04-.01-.82-.28-.99-1.09-1.01-1.56v-.02ZM330.57,19.96s-.02-.06-.03-.09c1.22,1.62,2.57,2.41,4.14,2.41.93,0,1.87-.29,2.63-.81.06-.03.11-.07.16-.11.56-.42,1-.91,1.29-1.46,1-1.79.99-4.36-.98-5.61-.92-.57-1.99-.55-2.81.06l-.02.02c-.14.11-.29.24-.42.4-.1-.48-.08-.93.04-1.37l.04-.15s.02-.05.04-.1c.28-.77.9-1.48,1.81-2.06,1.08-.66,2.44-1.06,3.66-1.07h.07c3.4,0,6.23,2.02,8.06,3.54,1.49,1.24,2.86,2.91,4.08,4.99-.8-.64-1.59-1.1-2.37-1.41l-.05-.02c-1.62-.65-3.41-.61-5.05.12-1.59.7-2.89,2.02-3.56,3.6-.03.05-.05.1-.07.15v.03c-.66,1.63-.31,3.39.9,4.58.79.77,1.95,1.28,2.94,1.28h.06c.74-.01,1.41-.31,1.89-.83.69-.75.91-1.96.52-2.96-.22-.57-.6-.99-1.1-1.23.89-1.27,2.08-1.56,3.65-.86l.06.03s.05.02.07.03c.02,0,.03.01.04.02l.35.18c1.08.58,1.88,2.06,2.16,2.61-4.33,4.28-8.57,8.6-12.52,12.63-.57-.21-1.17-.4-1.83-.59-1.19-.34-2.43-.61-3.53-.84l-.08-.02c-2.3-.5-4.67-1.02-6.78-2.1-1.75-.91-3.42-3.26-3.88-5.48-.08-.4-.12-.77-.13-1.12.27.34.62.6,1.03.76,1.01.4,2.41.19,3.55-.54,2.23-1.44,2.68-4.47,1.96-6.59v-.02ZM354.03,21.92l.06.13c.05.11.08.18.1.24l.05.11c-.11.11-.23.22-.34.33-.1.1-.2.19-.29.29-.38-.71-1.24-2.1-2.44-2.77h-.01s-.09-.05-.13-.07l-.46-.23c-2.33-1.03-4.21-.38-5.42,1.89l-.44.87h.88c.44.04.75.29.94.74.23.6.1,1.36-.3,1.81-.28.3-.66.46-1.1.47-.72.02-1.59-.36-2.19-.95-.89-.88-1.14-2.17-.67-3.38.02-.04.04-.1.06-.15.57-1.33,1.66-2.44,3-3.03.72-.32,1.48-.48,2.23-.48.67,0,1.34.13,1.97.39h.02c1.43.59,2.84,1.71,4.3,3.42v.36h.19,0ZM347.46,8.44s.03.03.04.04c-1.36-.99-2.54-1.59-3.22-1.9,1.2.43,2.28,1.06,3.18,1.86ZM329.93,12.9c.82-3.44,3.72-5.97,7.76-6.77.84-.17,1.68-.25,2.51-.25,1.12,0,2.23.15,3.26.44-.2.03-.39.17-.46.37-.09.29.06.61.35.71.07.02,7.17,2.61,10.04,10.77-1.02-1.76-2.5-3.87-4.44-5.47-1.96-1.63-5-3.8-8.77-3.8h-.08c-1.41.01-2.99.47-4.23,1.24-1.12.7-1.9,1.6-2.25,2.59-.03.04-.04.09-.05.12l-.04.12s-.02.08-.03.11c0,.01,0,.03-.01.04-.16.65-.17,1.31,0,2.02.1.4.24.79.36,1.15l.11.3c.08.23.28.39.53.39.1,0,.17-.02.26-.06h0l.05-.04c.2-.13.29-.37.22-.59v-.09c0-.28.25-.68.63-.98.45-.33,1.02-.33,1.56,0,1.39.88,1.35,2.78.6,4.12-.23.42-.56.8-.99,1.11-.03.02-.07.05-.11.08-.59.4-1.31.62-2.04.63-1.32,0-2.45-.77-3.56-2.44-.06-.08-.11-.16-.16-.24l-.93-1.92c-.17-.51-.26-1.01-.28-1.49-.05-.71.02-1.45.2-2.18h-.01ZM324.08,35.25c-3.58-3.19-5.2-6.44-4.95-9.93.41-5.53,3.63-7.74,5.69-7.87,2.24-.14,4.05.96,4.69,2.85.58,1.73.25,4.17-1.51,5.3-.83.54-1.85.72-2.54.44-.45-.17-.74-.54-.87-1.08-.11-.44-.06-.59.18-.95.01-.01.03-.03.05-.06.07-.07.11-.15.12-.21.09-.23.02-.5-.18-.65-.12-.09-.27-.12-.41-.1-.15.02-.28.1-.36.23l-.1.13c-.89,1.11-1.17,2.6-.81,4.31.53,2.56,2.4,5.19,4.46,6.25,2.23,1.15,4.68,1.69,7.05,2.2l.08.02c1.24.27,2.36.52,3.46.83.79.22,1.47.44,2.08.68,2.3.86,4.13,2,5.75,3.59,1.63,1.59,3.06,3.62,4.35,6.2-.55-.91-1.17-1.79-1.89-2.62-.2-.23-.55-.25-.79-.05-.23.2-.25.56-.05.78,1.09,1.26,1.96,2.64,2.64,4.1h-.11c-.41.02-.82.09-1.22.19-.59-.92-1.29-1.75-2.1-2.45-1.38-1.23-2.71-2.22-4.05-3.05-2.34-1.44-4.31-2.09-5.89-2.6-.34-.11-.67-.22-1-.33-.37-.13-.7-.25-1-.37l-.05-.02c-1.9-.76-7.68-3.06-10.72-5.76h0ZM329.81,58.18c.38.99,1.33,2.79,3.55,4.9,1.44,1.36,2.5,1.95,3.73,2.39-.01.02-.02.04-.03.07l-.13-.05c-3.23-1.34-4.26-2.45-5.7-4.48-.09-.12-.22-.2-.37-.22s-.29,0-.4.1c-.12.08-.2.21-.23.36-.02.15,0,.29.1.41,1.61,2.28,2.82,3.46,6.12,4.84-.07.09-.13.19-.2.28,0,.01-.01.02-.02.02h0s-.05.06-.08.09c-.06.07-.13.14-.2.2-.06.06.02,0-.03.02-.03.02-.06.04-.1.06-.03.02-.06.03-.08.04-.01,0-.03.01-.06.02h-.13c-.09-.04-.19-.1-.28-.14-.09-.09-.2-.15-.33-.17-2.92-1.47-5.64-3.46-8.11-5.94.98-.92,1.95-1.85,2.96-2.82l.02.02ZM306.74,61.17l-.03-.05c-.67-1.22-.83-2.66-.44-4.05l.03-.11c.43-1.42,1.36-2.6,2.6-3.33l.17-.11c1.14-.62,2.46-.53,3.42.24.66.53,1.16,1.36,1.23,2.06.04.45-.08.84-.34,1.15-.38.46-1.12.68-1.75.53-.32-.08-.73-.29-.86-.85l-.17-.83-.75.52c-2.03,1.43-2.48,3.3-1.32,5.4.04.07.08.14.11.19.04.07.08.13.12.18.04.08.09.15.11.18.03.05.06.09.09.13l.05.07c.63.87,1.69,1.49,2.53,1.88l-.35.31c-.14.13-.28.26-.43.39h-.01l-.08-.05h0c-1.92-1.26-3.17-2.49-3.95-3.86h.02ZM310.33,67.41h.11c.21.22.42.44.64.65-.69.45-1.56,1.14-2.05,2.02-.03.05-.06.11-.09.16l-.14.28c-.03.06-.06.12-.08.18-.03.06-.07.14-.07.19-.91,2.23-.23,4.03,1.98,5.21l.86.39v-.84c.05-.55.43-.81.74-.93.6-.23,1.36-.1,1.8.31.31.29.47.65.48,1.1.02.71-.37,1.59-.96,2.2-.86.88-2.15,1.14-3.37.66-.04-.02-.09-.04-.15-.07-1.33-.57-2.44-1.66-3.03-3-.61-1.36-.65-2.84-.11-4.16,0-.02.01-.03.02-.06.59-1.44,1.71-2.85,3.42-4.3h0ZM305.89,71.29l-.02.05c-.65,1.62-.61,3.41.12,5.05.7,1.59,2.02,2.89,3.6,3.56.07.03.12.05.18.07.53.21,1.08.32,1.64.32,1.11,0,2.16-.44,2.94-1.23.8-.83,1.3-2,1.28-3-.02-.74-.31-1.4-.83-1.89-.74-.69-1.96-.9-2.96-.52-.56.22-.99.6-1.24,1.1-1.24-.87-1.52-1.99-.91-3.52,0-.03.02-.07.04-.11l.02-.05s.02-.05.03-.08l.13-.25s.03-.06.05-.09c.01-.02.02-.05.04-.07.41-.73,1.23-1.35,1.87-1.75,3.8,3.88,7.37,7.68,11.24,11.95-.36.85-.7,1.82-1.02,2.95-.34,1.18-.61,2.43-.84,3.53v.05c-.51,2.31-1.03,4.7-2.12,6.81-.91,1.75-3.26,3.42-5.48,3.88-.41.08-.78.12-1.12.12.34-.26.6-.61.76-1.03.4-1.01.19-2.41-.54-3.55-1.08-1.69-2.96-2.27-4.58-2.27-.16,0-.31,0-.46.02.14-.08.28-.17.41-.26,1.98-1.32,2.94-2.79,2.93-4.5,0-1-.33-2-.94-2.82l-.03-.05s-.06-.08-.09-.1c-.38-.47-.82-.85-1.32-1.12-1.79-1-4.37-1-5.61.98-.54.87-.56,1.87-.04,2.69l.06.09.05.06c.12.16.26.3.4.42-.52.1-1.02.08-1.48-.07-.86-.26-1.62-.91-2.25-1.94-.62-1.04-1-2.37-1.01-3.56-.04-3.42,2-6.28,3.54-8.14,1.22-1.47,2.89-2.84,4.98-4.08-.63.8-1.1,1.58-1.41,2.37v-.02ZM296.86,60.3c-.9-.79-1.66-1.78-2.24-2.91.38.62,1.1,1.7,2.24,2.92h0ZM295.31,56.35h0c-.1-.2-.29-.31-.5-.31-.08,0-.17.02-.25.06-.13.06-.23.18-.28.32-.02.05-.03.11-.03.17-.71-1.72-1.04-3.69-.9-5.68.3-4.12,2.45-7.32,5.76-8.55.7-.26,1.43-.42,2.14-.47,1.02-.06,2.14.16,3.31.69.18.07.34.16.49.24,1.78.89,2.69,1.92,2.85,3.24.08.7-.05,1.45-.39,2.11l-.05.1c-.24.44-.58.83-.97,1.12-1.24.91-3.13,1.18-4.17-.09-.38-.47-.46-1.01-.23-1.48l.05-.1c.19-.32.55-.68.87-.72h.09c.24.02.46-.1.57-.31h0s.03-.05.03-.05v-.03c.02-.06.03-.11.03-.17,0-.03,0-.05-.01-.06v-.08c-.08-.23-.26-.38-.46-.4-.1-.03-.21-.05-.31-.07-.46-.11-.83-.18-1.19-.22-.68-.07-1.34,0-1.94.24h-.24l-.06.13s-.06.03-.1.05c-.02,0-.03.02-.08.04l-.08.05c-.89.5-1.64,1.34-2.15,2.44l-.05.08c-.6,1.32-.86,2.94-.7,4.33.43,3.77,2.98,6.55,4.87,8.32,1.82,1.72,4.1,2.94,5.98,3.74-8.42-1.83-11.9-8.58-11.94-8.65l.04-.03ZM297.21,73.79s.05-.05.07-.08c-1.03,1.41-1.65,2.64-1.96,3.31.43-1.22,1.07-2.33,1.89-3.24h0ZM303.85,91.52h0c-.71.05-1.45-.02-2.18-.2-3.44-.82-5.98-3.72-6.78-7.77-.39-1.97-.3-3.97.2-5.77.03.21.17.39.38.47.06.02.12.02.17.02.24,0,.44-.15.52-.37.11-.31,2.75-7.22,10.78-10.04-1.76,1.02-3.85,2.5-5.46,4.44-1.65,1.98-3.84,5.06-3.8,8.85.01,1.4.44,2.9,1.18,4.12.75,1.25,1.74,2.1,2.87,2.44.37.12.76.18,1.19.18.36,0,.69-.04,1.02-.11.35-.09.69-.2,1.02-.32l.4-.14c.24-.06.41-.29.41-.54,0-.04,0-.08-.01-.14-.06-.24-.28-.42-.53-.42-.06,0-.1,0-.18.02h-.06c-.33,0-.74-.31-.97-.61l-.05-.08h0c-.28-.45-.26-.99.05-1.49.88-1.39,2.78-1.34,4.12-.6.39.22.72.5.99.83l.09.12c.47.63.73,1.4.73,2.17,0,1.33-.76,2.47-2.42,3.58-.07.05-.15.1-.23.15-.08.05-.16.1-.23.15-1.09.66-2.17,1.02-3.2,1.08l-.02-.02ZM327.93,85.36l-.1.31c-.18.54-.38,1.12-.6,1.68-.75,1.91-3.05,7.71-5.78,10.77-3.2,3.59-6.45,5.21-9.93,4.95-4.95-.36-7.71-3.14-7.88-5.69-.15-2.25.95-4.05,2.86-4.69.51-.17,1.08-.26,1.66-.26,1.39,0,2.84.53,3.64,1.78.54.83.72,1.85.44,2.54-.17.45-.54.74-1.08.87-.44.11-.59.06-.95-.18l-.06-.06c-.07-.05-.13-.09-.19-.11-.24-.11-.52-.02-.67.19-.18.24-.12.59.14.78l.12.08c1.11.89,2.6,1.17,4.31.81,2.56-.53,5.19-2.41,6.25-4.47,1.16-2.26,1.7-4.73,2.22-7.12l.06-.29c.23-1.05.46-2.14.76-3.18.32-1.14.68-2.17,1.1-3.13.98-2.22,2.3-4.01,4.15-5.63.18-.17.38-.32.58-.49l.04-.04c1.49-1.2,3.26-2.28,5.42-3.29.03-.01.05-.03.07-.05.3.04.59.1.88.2.11.04.22.09.33.14-2.01.8-3.81,1.91-5.34,3.3-.5.44-.99.93-1.49,1.5-.1.11-.15.25-.14.4,0,.15.08.29.19.39.1.09.23.14.36.14.17,0,.32-.07.41-.19,1.56-1.77,3.43-3.17,5.56-4.14h0c.15-.07.3-.13.46-.2,0,0,0,.02-.01.03-.12.27-.24.53-.36.8-.08.02-.15.05-.22.1-.08.07-.15.13-.23.2-.09.07-.17.15-.26.22-.39.33-.75.7-1.08,1.08-.95,1.07-1.74,2.08-2.43,3.08-1.88,2.75-2.59,4.93-3.23,6.86h.02ZM336.38,83.33l-.34-.38c-1.18-1.33-2.4-2.71-3.72-4.19.61-.86,1.31-1.74,2.08-2.62.31-.35.64-.68.99-.99.04-.03.08-.07.12-.1.19.02.4-.06.49-.24.23-.51.47-1.03.7-1.54.22-.49.58-1.06.39-1.61-.18-.53-.79-.76-1.27-.94-.51-.19-1.05-.3-1.6-.34-.13,0-.25.05-.34.14-2.3,1.09-4.21,2.26-5.8,3.59-2.46-2.66-4.85-5.15-7.28-7.62,1.62-1.43,3.34-2.99,5.23-4.75,2.76,2.79,5.81,4.98,9.08,6.51.06.02.14.05.22.05s.16-.03.23-.07h.07c.47-.04.88-.27,1.19-.62.31-.34.56-.75.82-1.13.26-.39.5-.8.69-1.23.1-.24.08-.55-.18-.68-.11-.06-.25-.08-.38-.05-.08-.02-.16-.05-.24-.08-1.09-.38-2.04-.88-3.41-2.17-2.54-2.4-3.26-4.31-3.44-4.94,4.06-3.93,7.92-7.84,11.84-11.83,1.14.74,2.3,1.62,3.52,2.7.66.58,1.25,1.25,1.76,2h0c-1.96-1.35-4.33-1.2-6.01.42-.88.85-1.36,1.91-1.33,2.95-.72-.54-1.59-.77-2.42-.63-1.76.29-3.04,1.82-3.24,3.9-.28,2.74.67,5.02,2.9,6.96,2.19,1.89,5.65,3.48,10.57,4.86-.17.11-.34.23-.5.34h-.1c-1.62,0-4.49.47-6.05.92-2.08.59-3.72,2-4.51,3.86-.12.26-.2.52-.25.78-.34,1.49.09,3.01,1.2,4.16.83.86,1.83,1.33,2.83,1.33.29,0,.59-.03.86-.11-.21.53-.28,1.08-.19,1.62.29,1.76,1.82,3.04,3.9,3.25.24.02.47.03.71.03,2,0,4-.87,5.7-2.47-.57,1.42-1.37,2.6-2.47,3.68-3.54,3.48-5.12,4.78-5.77,5.26-2.38-2.5-4.6-5-7.25-8v.02ZM346.72,124.32c-.78.89-1.76,1.64-2.87,2.21.62-.38,1.69-1.11,2.87-2.22h0ZM342.77,125.88h0c-.27.14-.37.46-.24.75.1.18.28.3.48.31-1.72.71-3.69,1.03-5.68.89-4.11-.29-7.31-2.43-8.55-5.75-.27-.71-.42-1.44-.46-2.16-.08-1.01.15-2.12.68-3.3.08-.16.16-.32.24-.49.89-1.79,1.92-2.7,3.24-2.85.14-.02.27-.02.41-.02.59,0,1.2.15,1.75.43l.05.03c.45.25.82.58,1.11.97.91,1.24,1.18,3.13-.09,4.17-.45.37-1,.46-1.46.23-.01,0-.03-.01-.05-.02l-.05-.04c-.33-.19-.69-.56-.73-.84v-.11c.02-.16-.02-.32-.13-.44v-.08h-.1c-.21-.18-.59-.13-.77.09l-.11.12v.15l-.06.27c-.09.38-.18.79-.22,1.19-.08.71,0,1.39.26,2.03l.05.12s.04.08.05.11c.01.03.03.05.04.08l.07.14.03.04c.5.88,1.34,1.62,2.47,2.15h.02c1.03.49,2.3.76,3.5.76.33,0,.6-.01.83-.04,3.77-.43,6.56-2.99,8.33-4.87,1.72-1.83,2.94-4.1,3.73-5.97-1.85,8.42-8.58,11.89-8.65,11.93v.02ZM351.45,110.49c-1.28,1.94-2.52,3.2-3.9,3.97l-.08.05c-1.21.64-2.62.78-3.97.4l-.11-.03c-1.47-.45-2.72-1.47-3.43-2.78-.62-1.14-.53-2.45.24-3.43.52-.66,1.35-1.15,2.06-1.22h.18c.36,0,.68.12.97.35.46.38.68,1.12.52,1.75-.12.46-.39.75-.81.85l-.87.15.52.77c1.44,2.03,3.31,2.48,5.4,1.32.07-.04.14-.08.19-.11.04-.02.07-.04.1-.06s.06-.04.1-.06l.05-.04s.07-.05.13-.08c.03-.02.05-.04.08-.06.04-.03.07-.05.1-.07.86-.62,1.46-1.63,1.82-2.42.23.19.46.39.69.58v.18h.02ZM352.78,99.92c-1.59-1.33-3.08-2.65-4.56-4.03,2.66-2.83,5.3-7.48,6.81-10.99.21.56.44,1.11.7,1.65,1.24,2.65,2.62,4.8,4.22,6.56l-7.17,6.8h0ZM369.88,118.11c.93.58,2,.56,2.82-.05l.02-.02c.14-.1.29-.24.43-.4.09.48.07.94-.04,1.36,0,.03-.01.05-.03.1l-.02.08s-.02.06-.03.09c-.29.78-.92,1.5-1.82,2.06-1.07.66-2.43,1.06-3.65,1.07h-.12c-3.36,0-6.18-2.02-8.02-3.54-1.47-1.22-2.84-2.89-4.08-4.98.78.61,1.58,1.08,2.37,1.41l.05.02c.75.3,1.55.46,2.37.46.9,0,1.83-.2,2.68-.58,1.61-.72,2.88-2,3.56-3.6.02-.04.04-.08.05-.13l.03-.05c.64-1.63.29-3.38-.92-4.57-.79-.78-1.94-1.28-2.94-1.28h-.06c-.74.02-1.4.31-1.89.83-.69.74-.9,1.96-.52,2.96.21.57.59.99,1.09,1.23-.89,1.27-2.08,1.55-3.65.86l-.25-.12-.1-.05-.18-.09c-1.05-.58-1.82-1.98-2.05-2.41l11.69-11.07c.67.26,1.42.5,2.34.76,1.18.34,2.43.6,3.53.84l.1.02c2.29.5,4.67,1.02,6.76,2.1,1.76.91,3.43,3.26,3.88,5.48.08.4.12.77.13,1.12-.27-.34-.62-.6-1.03-.76-1.01-.4-2.41-.19-3.55.54-1.29.84-2.12,2.35-2.26,4.07-1.07-1.17-2.24-1.74-3.59-1.74-.93,0-1.86.29-2.65.82-.04.03-.09.05-.14.09-.53.38-.97.89-1.3,1.46-.99,1.79-.98,4.37.98,5.6h0ZM353.7,110.61c-.09-.21-.15-.34-.19-.42l.66-.62c.37.66,1.2,1.96,2.36,2.59.03.01.06.03.09.05.03.02.07.04.09.05.06.03.12.07.17.08l.23.11c2.33,1.03,4.21.38,5.41-1.89l.44-.87h-.87c-.56-.05-.82-.43-.94-.74-.23-.61-.11-1.37.29-1.81.28-.3.66-.46,1.1-.47h.05c.71,0,1.56.38,2.15.95.88.87,1.14,2.16.66,3.37l-.03.08s-.02.05-.03.07c-.57,1.33-1.66,2.44-3.01,3.04-1.36.61-2.84.65-4.16.11l-.05-.02c-1.42-.58-2.83-1.7-4.3-3.42v-.19l-.14-.05h.02ZM360.21,123.97s-.03-.03-.05-.04c1.36.99,2.54,1.59,3.23,1.9-1.2-.43-2.28-1.06-3.18-1.86h0ZM377.75,119.52c-.82,3.44-3.72,5.97-7.76,6.77-1.97.39-3.98.31-5.78-.19.21-.03.39-.17.45-.37.1-.28-.05-.61-.34-.71-.02,0-2-.7-4.33-2.61-1.88-1.53-4.31-4.15-5.72-8.17,1.02,1.76,2.5,3.86,4.44,5.47,1.97,1.63,5.03,3.8,8.76,3.8h.1c1.41,0,2.99-.47,4.23-1.24,1.12-.71,1.91-1.62,2.28-2.64,0-.03.02-.07.03-.1l.04-.12s.01-.04.02-.06c0-.03.02-.05.02-.07.17-.64.17-1.32,0-2.02-.09-.42-.24-.83-.37-1.17l-.09-.25c-.06-.24-.29-.41-.54-.41-.12,0-.22.03-.31.09-.16.1-.25.27-.25.46v.07l.02.09v.08c0,.32-.33.73-.64.98-.44.33-1.02.33-1.55,0-1.39-.88-1.35-2.78-.61-4.12.25-.44.59-.82.99-1.1l.04-.03s.04-.03.07-.05c.6-.4,1.32-.62,2.04-.63,1.33,0,2.46.77,3.57,2.44.05.07.1.15.14.23l.03.05s.02.07.03.09c.03.12.06.24.11.36.19.55.44,1.04.76,1.45.01.02.03.04.04.06.15.47.24.95.26,1.42.04.71-.03,1.45-.2,2.18l.02-.03ZM372.6,93.32c1.9.75,7.69,3.05,10.77,5.78,3.58,3.19,5.2,6.44,4.95,9.93-.36,4.95-3.13,7.71-5.68,7.87-1.66.11-3.13-.48-4.05-1.63,0,0-.02-.03-.05-.07-.25-.33-.46-.72-.61-1.16-.01-.04-.02-.08-.04-.11-.02-.06-.04-.13-.06-.2v-.03s-.02-.05-.03-.09c-.38-1.59-.03-3.8,1.64-4.88.57-.37,1.23-.57,1.81-.57.27,0,.52.04.73.13.44.17.73.54.87,1.09.1.43.05.59-.18.94-.02.02-.03.03-.05.06-.07.07-.1.15-.12.21-.09.25-.01.51.19.64.2.17.59.14.78-.12l.09-.12c.64-.8.97-1.78.97-2.92,0-.44-.05-.91-.15-1.4-.53-2.56-2.41-5.19-4.47-6.25-2.26-1.16-4.74-1.7-7.13-2.22-1.12-.23-2.31-.49-3.45-.82-.96-.27-1.78-.55-2.57-.87-2.23-.91-4.02-2.11-5.64-3.78-1.67-1.73-3.1-3.91-4.39-6.67-.4-.86-.73-1.72-1-2.58l-.03-.06s-.03-.09-.04-.13-.02-.08-.04-.12c0-.04-.02-.08-.02-.09l-.19-.67c-.04-.14-.13-.26-.26-.34-.13-.08-.28-.1-.42-.06-.13.03-.25.11-.33.23h-.21l.23.79c.02.08.04.16.07.24-1.4,3.59-4.35,8.92-7.11,11.85-.64-.61-1.97-1.96-3-3.01.81-.61,2.46-2.02,5.77-5.26,1.29-1.25,2.22-2.69,2.85-4.42.31-.81.52-1.62.66-2.24.51-.77.92-1.57,1.23-2.39.05.39.12.83.24,1.32.03.14.06.28.1.41.07.3.18.86.29,1.49.22,1.19.47,2.53.71,3.16.1.29.25.65.39,1.01,1.17,2.75,2.76,5.06,4.76,6.86.26.2.58.17.78-.05.21-.22.19-.57-.04-.78-1.87-1.68-3.38-3.86-4.48-6.46l-.1-.24c-.11-.26-.21-.51-.28-.72-.18-.49-.4-1.63-.59-2.64l-.13-.71c-.09-.48-.17-.9-.23-1.16-.02-.07-.03-.14-.05-.21s-.03-.13-.05-.2c-.28-1.23-.47-2.5-.56-3.65.12.1.25.2.38.29l.05.04c.25,2.4,1.17,8.15,4.28,11.13.1.1.2.19.3.27,1.29,1.14,2.5,2.07,3.69,2.83v.06h.09c2.47,1.57,4.51,2.23,6.15,2.76.12.04.25.08.37.12.13.04.25.09.38.13.45.14.87.29,1.25.45h0ZM364.65,88.67c-1.07-.71-2.14-1.53-3.25-2.52l-.27-.24c-1.97-1.9-3.3-5.22-3.85-9.64.32.15.66.28,1.01.4-.01.35-.03.68-.06,1v.03c-.07.96-.14,1.87.11,2.92.02.1.05.22.08.32.36,1.3,1.08,2.47,2.06,3.4,1.05.98,2.27,1.49,3.53,1.49s2.3-.46,3.21-1.33c1.15-1.1,1.59-2.54,1.18-3.81.37.13.73.2,1.07.2.18,0,.33-.01.47-.04,1.76-.29,3.04-1.82,3.24-3.9.17-1.72-.33-3.6-1.42-5.29-.08-.12-.17-.24-.25-.37.29.31.64.57.99.82.61.43,1.26.81,1.92,1.15.77.8,1.44,1.94,2.34,3.91l-12.12,11.49h.01ZM377.63,76.38c-1.64-3.55-2.74-4.57-4.96-5.62-.11-.06-.23-.06-.35-.04-.06-.06-.11-.14-.15-.21,1.43.42,3.12,1.63,4.08,2.95.11.15.27.23.45.23.11,0,.21-.03.32-.1.12-.09.2-.22.22-.37.02-.14-.01-.29-.1-.4-1.07-1.48-2.9-2.8-4.54-3.33.05-.03.1-.06.15-.09.47-.35.9-.74,1.3-1.17,2.97,1.01,5.04,2.61,6.7,5.19l-3.12,2.97h0ZM381.57,72.63c-1.8-2.71-4.03-4.4-7.21-5.47-.14-.05-.29-.04-.43.02-.03.01-.05.04-.08.06-.13-.02-.28.01-.4.15-.47.53-.99,1-1.58,1.39-.29.2-.59.38-.74.72-.16.34-.17.74-.05,1.09.04.12.11.23.17.34-.09-.12-.18-.24-.28-.36-2.23-2.66-5.89-4.46-10.34-5.09.56-.35,1.09-.79,1.58-1.3.28-.3.51-.61.69-.95.26,0,.53.03.79.05l.3.02c.42.03.85.05,1.28.05.82,0,1.49-.08,2.11-.27,1.28-.36,2.46-1.07,3.4-2.06.12-.13.23-.26.35-.41,1.59-2.01,1.51-4.55-.19-6.32-1.02-1.06-2.32-1.52-3.54-1.26.21-.53.27-1.08.19-1.59-.29-1.76-1.82-3.04-3.9-3.24-2.41-.24-4.36.75-5.71,1.82.51-.78,1.02-1.49,1.52-2.12,2.91-3.69,4.17-5.05,4.7-5.54,4.6,4.91,8.64,9.62,12.07,13.66-.61.86-1.31,1.74-2.06,2.6-.13.14-.27.29-.44.46l-.09.09c-.1.1-.2.19-.32.28l-.03.03c-.42.36-.87.68-1.38.98-.03.02-.07.05-.11.09-.17.19-.2.45-.08.67,0,0,.02.02.02.03,0,.03.01.05.02.08.15.33.37.61.59.88.23.28.47.55.7.83.21.25.46.54.75.74,0,.08.01.15.05.23.09.19.29.31.5.31.09,0,.17-.02.23-.05,2.26-1.05,4.13-2.19,5.7-3.48,2.25,2.63,4.57,5.27,6.42,6.94l-5.18,4.91h0ZM397.36,86c-.55.8-.84,1.78-.83,2.76.02.75.23,1.47.62,2.14-.37-.1-.77-.15-1.19-.15-1.94,0-3.57.88-4.47,2.4-.84,1.42-.9,3.16-.16,4.75-.88-.79-1.64-1.79-2.17-2.86-1.57-3.09-2.8-14.29-2.96-15.86l8.77-8.31c.56.29,1.74.99,2.27,1.91.01.02.02.04.04.07.02.03.03.06.05.1.04.06.06.12.09.19l.02.03s.04.06.06.11c.73,1.57.48,2.77-.78,3.68-.25-.5-.69-.87-1.25-1.07-1-.36-2.22-.12-2.95.59-.51.49-.79,1.15-.8,1.9,0,1.02.53,2.18,1.35,2.97.78.76,1.8,1.18,2.87,1.18.58,0,1.16-.12,1.72-.35l.15-.07c1.58-.7,2.87-2.03,3.54-3.64.71-1.67.72-3.46.03-5.05l-.03-.08-.02-.04c-.34-.76-.82-1.53-1.44-2.28,2.12,1.2,3.82,2.53,5.06,3.98,1.58,1.83,3.68,4.65,3.72,8.06.02,1.19-.34,2.54-.96,3.6l-.03.05c-.39.67-1.07,1.54-2.11,1.91-.04,0-.08.02-.08.02l-.16.04c-.39.11-.83.12-1.29.05.13-.13.27-.27.41-.46l.04-.06s.02-.04.03-.05l.02-.03c.49-.82.45-1.82-.11-2.67-1.28-1.95-3.85-1.9-5.62-.86-.53.31-.98.72-1.34,1.2-.04.05-.08.1-.12.18v.02ZM412.25,79.82c.03-.06.04-.12.05-.18.53,1.79.66,3.78.31,5.75-.7,4.06-3.17,7.02-6.6,7.92-.74.19-1.47.28-2.18.25-1.04-.04-2.12-.38-3.22-1.02-.08-.04-.16-.09-.23-.14-.08-.05-.16-.1-.23-.14-.32-.2-.63-.43-.95-.69l-.03-.02c-.11-.09-.2-.17-.3-.27-.8-.77-1.2-1.61-1.22-2.54,0-.74.22-1.5.64-2.11.01-.02.03-.04.04-.06s.03-.05.05-.07c.28-.37.62-.68,1.01-.92.6-.35,1.31-.56,2-.56.84,0,1.64.31,2.14,1.07.32.49.36,1.04.08,1.49-.01.02-.02.03-.03.04l-.02.04c-.17.22-.39.42-.61.53v-.69l-.92.91s-.03.03-.04.05c0,0-.02.01-.03.02l-.04.04v.02c-.06.09-.09.19-.09.29v.41l.3.1.33.2.07-.07c.35.12.75.25,1.16.34.62.14,1.32.14,1.99-.04h.17l.1-.09c1.06-.36,2-1.18,2.7-2.36l.05-.08c.71-1.23,1.13-2.79,1.11-4.17-.04-3.78-2.3-6.82-3.99-8.77-1.38-1.6-3.24-3.05-5.55-4.32,8.22,2.71,10.95,9.74,10.98,9.82.09.21.29.36.52.36.04,0,.13,0,.19-.04.14-.05.25-.15.32-.28l-.03-.02ZM410.07,75.67s.02.02.02.03c.83.88,1.49,1.97,1.95,3.17-.31-.65-.94-1.84-1.97-3.2ZM353.73,53.18h.01s.09.03.15.03c.24,0,.45-.16.53-.4.37-1.27.92-2.54,1.66-3.88,1-1.79,2.25-3.48,3.45-5.04.09-.12.13-.26.11-.41-.02-.15-.1-.28-.21-.36-.11-.09-.25-.13-.39-.12-.15.02-.29.09-.39.22-1.21,1.58-2.48,3.29-3.54,5.18-.77,1.39-1.34,2.73-1.76,4.12-.08.29.09.59.37.68v-.02ZM354.19,82.48c-.05-.17-.19-.3-.37-.35-.29-.08-.59.07-.69.37-.29.99-.77,2.01-1.41,3.04-1.26,1.99-2.93,3.74-4.54,5.44l-.06.07c-.1.11-.16.24-.16.39s.06.29.17.39c.1.1.24.16.39.16s.29-.06.41-.18l.05-.06c1.66-1.74,3.37-3.53,4.68-5.62.69-1.1,1.21-2.21,1.53-3.3.04-.13.02-.25,0-.33h0v-.02Z"/>
</svg>