<svg xmlns="http://www.w3.org/2000/svg" id="Layer_1" width="705.7" height="131.7" viewBox="0 0 705.7 131.7"><path d="m405.9 69.2-.7-.4 1.1-.5a27 27 0 0 0 6.4-4.3c3-2.7 4.5-7 4-11.5-.4-5-3.2-9-7.4-10.4l-2.9-.6h-.1a7 7 0 0 0 1-4.3c-.3-4.7-5.3-7.5-10-7.9q-2.8-.2-5.4.9 2.5-3.7.9-7.3-1.6-3.4-5.2-4.8a8 8 0 0 0-8.8 2.3q-1.2 1.6-1.2 3.6a6 6 0 0 0 4 6c-2.6 1-8.6 2-13.6 2.6l-8.8-9q.4-1 1-1.4l.4-.2 1.1-.4-.2.8a4 4 0 0 0 1.3 4.1 4 4 0 0 0 2.9.9q2.1-.3 3.6-2.1c1.4-1.7 1.6-4 .5-6a8 8 0 0 0-4.8-4 8 8 0 0 0-4.2 0l1-1.1c1.4-1.6 3.8-3.8 6.8-4.1a6 6 0 0 1 3 .4h.1l.7.5q-1 .1-2 .8c-2.3 2-2 5.3-.4 7.4a6 6 0 0 0 2 1.7q1.6.9 3.5.7 3.2-.4 5-4.2l.3-.5a9 9 0 0 0 .3-7.3c-1.6-4.2-5.5-7-10.6-7.3a14 14 0 0 0-11.3 4.3 27 27 0 0 0-4.3 6.5l-.2.6-.7-1q-1.8-3-5-6a14 14 0 0 0-11.8-2.8c-5 1-8.5 4.2-9.6 8.5a10 10 0 0 0-.2 3q-1.3-.3-2.7-.2c-4.7.3-7.6 5.3-8 10q-.1 3 1 5.4-3.8-2.5-7.3-.9-3.4 1.6-4.8 5.2a8 8 0 0 0 0 5.6 9 9 0 0 0-7.3-.3c-4.2 1.6-7 5.5-7.3 10.6a14 14 0 0 0 4.3 11.3 27 27 0 0 0 7.1 4.6 24 24 0 0 0-7 5.6 14 14 0 0 0-2.8 11.8c1 5 4.2 8.5 8.5 9.6l.9.2a7 7 0 0 0-.7 3.7c.3 4.7 5.3 7.5 10 7.9q2.9.2 5.5-.9-2.5 3.7-1 7.3 1.7 3.5 5.2 4.8a8 8 0 0 0 5.4 0 9 9 0 0 0 .2 6.3c1.5 4.1 5.5 6.9 10.6 7.2h1c4.1 0 8-1.6 10.3-4.3a27 27 0 0 0 4.5-7l.7 1q1.8 3 5 5.9a14 14 0 0 0 11.7 2.9c5-1 8.6-4.2 9.6-8.6l.2-1q1.3.3 2.6.2c4.7-.3 7.5-5.3 7.9-10q.2-2.8-.9-5.4 3.7 2.3 7.3.9 3.4-1.6 4.8-5.2.7-1.8.5-3.8l1.4.2h.3q1.3 0 2.5-.3c4.4-1.2 7.5-4.8 8.4-9.8a14 14 0 0 0-3.2-11.7q-2.7-3-5.9-4.9Zm-10.5 20.3a6 6 0 0 0-5.5 4c-1-2.7-1.8-9-2.4-13.8l3.6-3.4a4 4 0 0 0-.6 2.1q.1 2.2 1.7 3.9c1.6 1.5 4 2 6 1h.1a8 8 0 0 0 4.2-4.3q.9-2.1.6-4.2l1 1c1.4 1.7 3.3 4.3 3.4 7.3q0 1.5-.8 3l-.5.6q0-1-.7-2c-1.7-2.5-5-2.5-7.3-1.2l-1.7 1.5-.1.3a6 6 0 0 0-1 4.2m2-41.5a6 6 0 0 0 2.5 5.5c2.2 1.5 5.5 1.7 7.4-.7a4 4 0 0 0 .8-1.9l.4.7q.6 1.5.6 3c-.3 3-2.5 5.5-4 7l-1 1q.5-2.1-.3-4.2v-.1q-1-3-3.7-4.5l-.3-.1q-1.2-.7-2.6-.7-1.9 0-3.4 1.2-1.7 1.6-2 3.8 0 1.2.5 2.2l-5.4-6.3.9-2.6.8-3.5v-.2q.6-3.4 2-6.4a7 7 0 0 1 3.3-2.8q0 1.8 1 3.5 1.4 2.1 4.2 2.7-1.5 1.5-1.7 3.4m-.8 27.1-.7-.4-1.4-.2q-1.2 0-2 .5l2.6-2.6q.8.6 1 1l.2.4q.4.9.3 1.3m.3-13 .8-.4q.1.4-.4 1.3l-.1.2-.1.2q-.4.5-1.1.8l-2.6-2.8q1.6 1.1 3.5.6Zm-27.4 48q-1 .6-1.7 1.8c-1.3 2.3-1.2 5.6 1.4 7.3a4 4 0 0 0 2 .6l-.7.5a6 6 0 0 1-3 .9c-3 0-5.6-1.9-7.3-3.3l-1-1q2.1.3 4.1-.6a8 8 0 0 0 4.2-4.1v-.3c1-2.1.5-4.4-1.1-6q-1.6-1.6-4-1.6l-1.1.2 5.7-5.3a36 36 0 0 0 5.3 1.3q3.6.7 6.5 2a7 7 0 0 1 2.8 3.4q-1.8-.1-3.4.9t-2.4 2.9q-1.3-.8-2.8-.8a6 6 0 0 0-3.3 1zm-10.5-.3q0 .4.3.7l-1.2-.2-.4-.2q-.6-.3-1.1-1.1l2.4-2.3q-.6 1.5 0 3Zm15.2-70.6c3.1-.7 7.3-2 10.6-3.4a42 42 0 0 0-5.2 9.6zm6.6 46.9a62 62 0 0 0 3.4 10.6 40 40 0 0 0-9.4-5zm-60.5 1h-.3q-.6 3.4-2 6.5c-.5 1-1.9 2.2-3.3 2.8q.2-1.8-1-3.5a6 6 0 0 0-3-2.4q1.6-1.8 1.6-4A6 6 0 0 0 311 83l-.2-.2q-.6-.8-1.6-1.4c-2.3-1.3-5.7-1.2-7.3 1.4q-.6 1-.6 2l-.5-.7q-.8-1.4-.9-3c0-3 1.9-5.6 3.3-7.3l1-1q-.4 2.2.5 4a8 8 0 0 0 4.5 4.4A5.5 5.5 0 0 0 317 76v-.2l4.8 5.2-.8 2.3-.9 3.6zm-10.7-37.7v-.2a6 6 0 0 0 .4-4.5l1.5.2a6 6 0 0 0 6-4.1c1 2.8 1.9 9 2.5 14.1q-4 3.9-7.8 7.2-.9-.5-1.3-1v-.2l-.2-.2q-.5-.9-.4-1.2l.8.3q2.5.6 4-1.3 1.1-1.2 1-2.9-.4-2-2.1-3.7a5 5 0 0 0-6-.4l-.3.1q-2.6 1.6-3.6 4.6v.1a8 8 0 0 0-.2 4.1l-1-.8c-1.6-1.6-3.8-4-4.2-7a6 6 0 0 1 1-3.7q0 1 .8 2c2 2.3 5.3 2 7.4.4q1-.7 1.6-1.9Zm1.8 23.1-.7.4q-.1-.3.2-1.2l.1-.3v-.2l.7-.7 1.7 1.8zM339.9 35a26 26 0 0 0-4.8-1.2q-3.4-.6-6.5-2a7 7 0 0 1-2.8-3.3q1.8.2 3.5-1 2.3-1.5 2.8-4.5l1.3.4a6 6 0 0 0 6.5-2.9c1.2-2.3 1.2-5.6-1.5-7.3a4 4 0 0 0-2-.6l.7-.5q1.5-.8 3-.9c3 0 5.7 2 7.4 3.3l1 1q-2.1-.3-4.1.6a8 8 0 0 0-4.3 4.4 5 5 0 0 0 1.2 6q1.6 1.6 3.9 1.6 1.6 0 2.8-1.2a4 4 0 0 0 .3-5l1.3.2h.1l.3.2q.6.3 1.2 1.3zm-13.2 13.4a65 65 0 0 0-3.5-10.8q3.2 2.5 9.3 5zm2.3 40.9 1 1.1 4.5 5.1c-3.2.8-7.4 2-10.7 3.5q2.5-3.3 5.2-9.7m8.2 31.4c2.4-2 2-5.3.5-7.4a6 6 0 0 0-2-1.7 6 6 0 0 0-4.7-.4v-.5a6 6 0 0 0-4-6c2.7-1 8.8-1.9 13.9-2.4l3.2 3.2a4 4 0 0 0-2-.4q-2.2.3-3.8 2.1a5 5 0 0 0-.4 6q1.6 2.8 4.7 4h.1q2.1.5 4.1 0l-.9 1.1c-1.5 1.6-3.8 3.8-6.8 4.1q-1.6.2-3-.4h-.1l-.7-.5q1-.1 1.9-.8m9.8-10.1-1 .3.2-.8q.3-1.6-.5-3.1l2.6 2.3-.7 1z" style="fill:#fff"/><path d="M184.8 54.8q1.5 0 2.5-1c1-1 1.1-1.7 1.1-2.7s-.3-2-1-2.6q-1.2-1.1-2.7-1.1t-2.6 1c-1.1 1-1.1 1.7-1.1 2.7q0 1.6 1 2.6 1.2 1.1 2.7 1.1m98.5 5.8q-.3 0-.6.3-.3.4-.3 1a71 71 0 0 1-4 16.6q-1.5 3.5-3.6 6a6 6 0 0 1-5 2.3q-2.4 0-3.4-3.3t-1-7.8l.2-5.3a14 14 0 0 0 8-4.7 11 11 0 0 0 2.5-6.5q0-2.8-1.5-4.8t-4-2A10 10 0 0 0 263 56a24 24 0 0 0-5 8.7 32 32 0 0 0-1.9 10.2l-.9 2.3a31 31 0 0 1-3.4 6.6q-2 2.6-4 2.6-1.2 0-1.5-.8-.4-1-.4-2.3 0-3 1-7.6 1.2-7.2 1.2-10.8c0-3.6-.4-4.5-1.3-6.2q-1.4-2.4-5-2.5-5 0-8.6 3.7a27 27 0 0 0-5.7 8.8q.7-8.1 2.2-15.8a58 58 0 0 1 3.8-13.3q0-1.3-1-2t-2.3-.7c-1.3 0-1.7.3-2.6.7q-1.4.8-2.3 2.3-3.3 5.8-5.8 15.3a77 77 0 0 0-2.2 13.1 78 78 0 0 1-3 10.3q-1.5 3.5-3.6 6a7 7 0 0 1-5 2.3q-2.4 0-3.4-3.3t-1-7.8c0-4.5.2-5.8.7-8.8q.9-4.4 2.2-7.3 1.4-3 3.2-3 1 0 1.7.8 1 1 .8 2 0 .9-.4 1.8l-.1.3q0 .3.3.5l.6.2q.6 0 1.1-.7.8-1.5.8-3 0-2.4-1.6-4.2a5 5 0 0 0-4.3-1.9 10 10 0 0 0-7.5 3.5 22 22 0 0 0-3.4 5l-.3.4q-.8 1.5-1.4 3.3a32 32 0 0 0-1.6 13l-.4 1.1q-2 7.2-4 7.1-2.6 0-2.6-10.2a95 95 0 0 1 1.5-16.4q0-1.5-1.2-2.4a4 4 0 0 0-2.5-.8q-1.4 0-2.6.8t-1.7 2.8a69 69 0 0 0-1.5 11l-2.3 6.6q-3.6 9.1-7.4 9.2-1 0-1.5-1-.3-.8-.3-2.3 0-3 .9-7.5 1.2-7.1 1.2-10.7c0-3.6-.5-4.6-1.3-6.3q-1.4-2.5-5-2.5-5 0-8 3.4-3 3.3-4.9 8-1-11.6-6.8-11.6-4 0-7 4t-4.5 9.4a57 57 0 0 1 1.3-10.1q0-1.5-1.2-2.3-1.2-1-2.6-1-1.2 0-2.5 1-1.1.8-1.7 2.7l-.1.5-.6.4q-.5.5-.6 1.4-1 9.8-3.2 16.8-2.1 7-4 7.1-2.6 0-2.6-10a96 96 0 0 1 1.4-16.6q0-1.5-1-2.4a4 4 0 0 0-2.7-.8 4 4 0 0 0-3.7 2.3q-2-4-6.4-4-4.7 0-8.2 3.6-1.5 1.5-2.5 3v.1l-.3.4q-1.6 2.5-2.7 5.6-1.5 4.2-1.9 8.3l-.3.8q-2.1 4.6-4.7 8.1c-2.6 3.5-3.5 3.4-5.3 3.4Q72 87.6 72 86t1.1-3.6l2.7-4.8 2.8-5A10 10 0 0 0 80 68q0-.8-.4-1.4a11 11 0 0 0-4.5-2.4q-3.8-1.2-6.7-3.4.5-1.6.5-3 0-2-1-3-.8-1-2-1t-2.2.9q-1.1 1-1.6 2.8l-.2 2q0 2.7 1.8 4.9l-.1.6A80 80 0 0 1 60 78.4q-1.5 3.5-3.6 6a6 6 0 0 1-5 2.3q-2.3 0-3.4-3.3-1-3.3-1-7.8 0-2.6.3-5.3a14 14 0 0 0 8-4.7 11 11 0 0 0 2.4-6.5q0-2.7-1.4-4.8-1.5-2-4.1-2a10 10 0 0 0-7.6 3.5 24 24 0 0 0-5 8.7q-1.8 5.2-1.8 10.5v1.2l-.6 1.6q-2.4 5.6-6.1 9.8a13 13 0 0 1-9.2 4.4h-.1q-3.7 0-6.1-3.6a27 27 0 0 1-3.6-9.7q-1.2-6-1.2-13c0-7 .4-9.6 1.2-14.5Q13.2 44 15.5 38t5.6-10q3.4-3.6 7.7-3.7 3.3 0 4.8 2.2 1.4 2.3 1.4 5.4 0 3.5-1.5 7.1-1.5 3.8-4.2 6.3a9 9 0 0 1-6.2 2.5q-.6 0-1 .4t-.3.7.3.7.8.3q4.4 0 7.7-2.9 3.4-2.9 5.2-7.2 1.9-4.2 1.9-8.3c0-4.1-.7-5.2-2.1-7.2q-2.1-3-7-3a18 18 0 0 0-11.4 4.2 37 37 0 0 0-9 11A63 63 0 0 0 0 67.3q0 7.6 2.2 13.9t7 10.2 12.5 3.8q4.5 0 8-2.6a24 24 0 0 0 6-6.7q1.5-2.4 2.7-5l.5 1.8q1.3 3.6 4 5.7 2.7 2.2 7 2.2 8.9 0 12.9-11.1a51 51 0 0 0 2.7-13.3q2.3 1.8 6.2 2.6a14 14 0 0 0-5 6 18 18 0 0 0-2 7.8q0 3.2 1.7 5.6t5.5 2.4q4.5 0 7.8-3.4 2.8-2.7 4.8-6.6.3 1.8.8 3.5 1 3 3.1 4.8a8 8 0 0 0 5.5 1.7 7 7 0 0 0 4.7-1.7q2-1.7 3.4-4.5 1.5-2.7 2.4-5.9.3 3.3 1.2 6a9 9 0 0 0 2.6 4.4 6 6 0 0 0 4.5 1.7q5.3 0 8.4-9l1-3.3q.6 6 2.7 9.4 2.1 3 4.5 3 2.7 0 2.7-3 0-1-.5-2.3-.6-2.5-.6-5 0-6.9 2.9-13.2 3-6.4 5.6-6.4 2 0 2 8 0 4.8-.4 10.3l-.3 7.3a4 4 0 0 0 1.5 3.2q1.5 1.2 3 1.2 1.3 0 2.3-1 1-.8 1-2.8.1-7.6 2.2-14.5a35 35 0 0 1 3.9-9.1q2.3-3.7 4.8-3.7 1.6 0 1.7 2 0 2.6-1.6 7.7l-1.7 6.5a30 30 0 0 0-.7 6.4q0 3.6 1.6 6 1.7 2.3 6.2 2.3 6.8 0 10.8-8.2l1.6-3.7q0 1.7.5 3.4.7 3.7 2.5 6.1t5.3 2.4q4.6 0 7.8-7.5 1.2 3.3 3.8 5.3 2.7 2.2 7 2.2 8.8 0 12.9-11.1l.2-.8q.6 5.8 2.9 9.5 1.5 2.4 4.7 2.4 1.7 0 3-.8 1.3-.7 1.3-1.8l-.2-.9-.4-.8q-.9-2.6-.9-5.6 0-4.8 2-9.6 2.1-4.8 4.8-8t5-3.2l.9.1q.4.2.4 1 0 2-1.4 6.4l-1.7 7q-.8 3.7-.8 7 0 4 1.7 6.5 1.8 2.7 6.6 2.7 7 0 11.1-8.7l.5-1 .5 1.8q1.3 3.6 4 5.7 2.7 2.2 7 2.2 9 0 12.9-11.1Q284 71.3 284 62q-.3-1.5-.9-1.5Zm-15.1-.6q1.5-3.4 3.4-3.4.6 0 1 .8.3.8.3 2 0 2-1.5 4.9a9 9 0 0 1-5.5 4q.8-4.9 2.3-8.3M49.8 60q1.5-3.4 3.3-3.4.6 0 1 .8t.4 2q0 2-1.6 4.9a9 9 0 0 1-5.4 4q.8-4.9 2.3-8.3m16.9-2.8.5 2.2q-.6-1-.5-2.2m35.6 18.1q-1.4 4-3 7t-3.2 3q-2.4 0-2.4-5 0-3.7 1.4-9t3.4-9q2.1-4 4.1-4t1.9 10zm563.2-21q1.4 0 2.6-1 1-1 1-2.7c0-1.7-.3-1.9-1-2.6q-1.1-1-2.6-1-1.6 0-2.7 1t-1.1 2.6 1 2.7q1.2 1 2.8 1m-76.4-30-.7-.2q-3.3 0-6.1 2.5-2.9 2.4-5.2 6.5a57 57 0 0 0-4.2 9.1V41q0-6.9-1.4-11.5-1.5-4.5-5.5-5.2h-.9q-3.6 0-6.6 2.9-3.1 3-5.6 7.7t-4.2 10.5q-.3-5.2-1.5-9.3a14 14 0 0 0-4-6.6 11 11 0 0 0-7.6-2.5 13 13 0 0 0-13 9.2q-1.5 4-1.5 8.4 0 5.5 2 10.3 2.1 4.8 5.7 7l.8.2q.6 0 .9-.4.3-.3.3-.7l-.3-.7a15 15 0 0 1-4.2-6.7 26 26 0 0 1-.4-15.8 13 13 0 0 1 3.3-5.5 8 8 0 0 1 5.6-2.1q2.6 0 3.5 2.4t.9 6.4q0 5-.8 11.8-1 11-1 16.3 0 14.4 5.5 21.7 1.5 1.5 2.8 1.5a3 3 0 0 0 1.9-.6q.8-.6.8-1.4l-.2-.7q-1.2-3-1.2-8.3a107 107 0 0 1 9.3-43.2q3.3-6.8 6.5-6.8 1 0 1.5 1.3.3 1.3.4 3.4 0 4.1-1 11.3-1.4 12.3-1.4 20 0 4.7.6 9.1.5 2.2 2 3.4 1.7 1 3.3 1.1 2.2 0 2.2-2a99 99 0 0 1 9.3-41.3q3.3-6.4 6.2-6.4h.4q.8.3.8 2 0 3.8-2 12.6-1.6 7.2-3 16-1.5 8.7-1.5 17.3 0 13.5 5 20.8 1.8 2.2 3.6 3.3a7 7 0 0 0 3.1 1q1.5 0 1.5-.8 0-.5-.7-1.1-3.5-3-3.5-12.2 0-5.4.9-12l2-13.7q1.2-6.9 2-13.5 1-6.5 1-11.8a19 19 0 0 0-1.5-8.9 6 6 0 0 0-4.8-3.9Zm-86.6 35.3q-.5 0-1 .5t-.6 1.4q-1 9.6-3.2 16.8-2 7-4 7-2.6 0-2.6-10a96 96 0 0 1 1.5-16.5q0-1.5-1.2-2.4a4 4 0 0 0-2.5-.9 4 4 0 0 0-3.8 2.3q-2.1-4-6.3-4-4.8 0-8.3 3.6a25 25 0 0 0-5.5 9.1 31 31 0 0 0-1.6 14.5l-.8 1.5q-2 3.5-4.6 3.5-2.8-.1-2.8-10.8 0-7.6 1.5-17.1a22 22 0 0 0 8.9-8.6q3.3-5.7 3.4-10.1a6 6 0 0 0-1-3.6q-1-1.5-3.2-1.4-3.5 0-6.7 3.3a33 33 0 0 0-5.7 8.6q-2.5 5.3-4 11.5a7 7 0 0 0-6.4-4q-4.8 0-8.3 3.6a25 25 0 0 0-5.5 9.1q-2 5.4-2 10.7 0 3.5 1 6.5t3.1 4.7a8 8 0 0 0 5.5 1.8q2.8 0 4.9-1.9 2-1.9 3.5-4.7 1.5-3 2.4-6.2.6 5.7 3 9.2a8 8 0 0 0 7.4 3.6q3.3 0 5.8-3l1.7-2.3a10 10 0 0 0 2.7 3.5 8 8 0 0 0 5.4 1.8 7 7 0 0 0 4.7-1.7 15 15 0 0 0 3.4-4.5q1.5-2.8 2.5-6 .3 3.5 1.2 6 .9 2.9 2.6 4.5c1.7 1.6 2.6 1.7 4.5 1.7q5.1 0 8.3-9a69 69 0 0 0 3.8-20.1q-.3-1.5-1-1.5m-41.7-17q2.2-5.3 4.8-5.3 1 .2 1.1 1.8 0 2.7-2.8 8a25 25 0 0 1-6.7 8.3q1.5-7.5 3.6-12.8M444.2 75q-1.3 4-3 7t-3.2 3q-2.4 0-2.4-5 0-3.8 1.4-9t3.4-9.1q2.1-4 4.2-4 1.8 0 1.8 10.1zm36.8 0q-1.3 4-3 7t-3.2 3q-2.4 0-2.4-5 0-3.8 1.4-9t3.4-9.1q2.1-4 4.1-4t1.9 10.1zm224-13.5q-.4 0-1 1-2.2 5.4-9.7 7.5-.3-4.3-1.7-8t-3.7-6.1c-2.4-2.4-3.5-2.4-5.8-2.4q-3 0-4.7 2.3a9 9 0 0 0-1.4 4q-.3 0-.6.4-.6.5-.7 1.4-1 9.6-3.2 16.8-2 7-4 7-2.6 0-2.6-10.2a95 95 0 0 1 1.4-16.3q0-1.5-1-2.4a4 4 0 0 0-2.6-.9q-1.4 0-2.6.9t-1.7 2.7a69 69 0 0 0-1.4 9.2l-2.9 7.3q-2 4.8-4.6 8.1c-2.6 3.3-3.5 3.5-5.3 3.5q-2.1 0-2.1-1.8 0-1.4 1.1-3.6l2.7-4.7 2.8-5.1a10 10 0 0 0 1.3-4.4q0-.8-.4-1.4a11 11 0 0 0-4.5-2.3q-3.9-1.2-6.7-3.5.4-1.6.4-3 0-2-.9-3t-2-1-2.3 1-1.5 2.8l-.2 2q0 2 1.1 3.9a96 96 0 0 1-3 15.2q-2 7-4 7-2.6 0-2.6-10a96 96 0 0 1 1.5-16.6q0-1.5-1.2-2.3a4 4 0 0 0-2.5-.9 4 4 0 0 0-3.8 2.3q-2.1-4-6.3-4-4.8 0-8.3 3.6a25 25 0 0 0-5.5 9.1q-2 5.5-2 10.6 0 3.6 1 6.6t3.2 4.7a8 8 0 0 0 5.4 1.8 7 7 0 0 0 4.7-1.8 15 15 0 0 0 3.5-4.4q1.4-2.9 2.4-6 .3 3.4 1.2 6 .9 2.8 2.6 4.5c1.7 1.7 2.6 1.7 4.5 1.7q5.1 0 8.3-9 2.4-6.6 3.4-15.3v-.2q2.4 1.7 6.3 2.7a14 14 0 0 0-5 6 18 18 0 0 0-2 7.7q0 3.3 1.7 5.6c1.7 2.3 3 2.4 5.5 2.5q4.5 0 7.8-3.4a29 29 0 0 0 7-11.5q.1 3.3.7 6.3.8 3.8 2.6 6.2t5.2 2.4q5.2 0 8.4-9l1-3v.3q0 3 .7 5.3.9 2.5 2.8 4 2 1.5 5.2 1.5c3.2 0 4-.8 5.6-2.4q2.3-2.4 3.3-6.3c1-3.9 1-5.2 1-8v-1q5.2-1.1 8.2-3.8t3.3-5.5q-.2-.9-.7-.9ZM614.3 75q-1.4 4-3 7t-3.2 3q-2.4 0-2.4-5 0-3.8 1.4-9t3.4-9.1q2.1-4 4.1-4 1.8 0 1.8 10.1zm23.4-18.2.5 2.3q-.5-1-.5-2.3m40 11.5.3-2.3.4.8zm2.5-4.2q-.6-2-.6-3.4 0-2 1-3.5a3 3 0 0 1 2.7-1.4q2.6 0 4.5 2a15 15 0 0 1 2.9 5.5q.9 3.4 1.2 7.2l-2.5.2q-3 0-4.8-1 1.1-4.4 2.5-5.7.3-.2.2-.5 0-.4-.8-1t-2-.5q-1.6 0-3.4 1.2zm11.8 8.8q0 5.3-1.6 9.6t-4.7 4.3q-2.5 0-2.5-6.8 0-3.9.9-8.4 1.8.7 4 .7h1l3-.2zm-286.7-2.6q-1.8-1-3.7-1.6 2.1-.5 4.2-1.5 3-1.5 6-4.1c2.7-2.4 4.1-6.4 3.7-10.5-.4-4.5-2.9-8-6.7-9.3q-1.2-.5-2.4-.5-1.5 0-3 .5l-.9.4-.2.1-.3.1q-3 1.6-3.3 4.2-.2 1.5.5 2.8l.1.1q.6.9 1.3 1.4c1.7 1.2 4.2 1.5 5.7-.4q.9-1.3.3-2.6v-.1l-.1-.1-.4-.5q.8 0 1.4.2h.1l.1.1q1.1.6 2 2v.1q.7 1.8.6 3.7c-.3 3.4-2.6 6-4.4 7.7a19 19 0 0 1-5.3 3.6q1-1 1.6-2.3 1.3-2.4.4-5a7 7 0 0 0-3.1-4h-.3a4 4 0 0 0-4.6.4q-1.4 1.2-1.6 2.9 0 1 .7 2a3 3 0 0 0 2.9.7q.8-.1 1.3-1 1.8 1.6.5 3.8l-.1.2-.1.1v.1l-.1.1c-.6.8-1.7 1.4-2.4 1.7q-4.2-4.3-10.3-11.7.6-1.3 1.1-3.1l.9-3.5v-.1q.6-3.5 2-6.8a9 9 0 0 1 5.6-3.9h1q-.4.3-.7 1-.6 1.7.6 3.5c1.4 2.2 4.4 2.7 6.5 2l.8-.4c2-1 3-3.1 2.9-5.5-.3-4-4.7-6.4-9-6.7q-5.6-.5-10.8 5.3a42 42 0 0 0-6 11v.1q0 .5-.3.8l-8.2-9.3c2.2-.5 8.7-2 13-4.1 5.7-2.8 8.5-7.3 6.8-11a8 8 0 0 0-4.4-4.1 6.5 6.5 0 0 0-7.4 1.9q-1 1.3-1 2.9a5 5 0 0 0 2.4 4.4 5 5 0 0 0 4.7.2q-1.2 1.3-2.8 2.2a77 77 0 0 1-15.6 2.9q-4.7-5-9.6-9.7l-.3-.3c.2-.6.8-2 1.8-2.6l.1-.1.2-.1.1-.1h.1l.1-.1q2.1-1.2 3.6.5-.7.5-1 1.3a3 3 0 0 0 1 3 3 3 0 0 0 1.9.5q1.6-.1 2.8-1.6 1.5-2.2.4-4.7a7 7 0 0 0-4-3.3h-.1a6 6 0 0 0-5 .4l-.1.2q-1.2.6-2.2 1.6 1.5-3.3 3.5-5.4c1.6-1.8 4.2-4.1 7.6-4.5q2-.3 3.7.6 1.5.6 2 1.7l.1.1v.1l.2.3q.2.6.1 1.2l-.6-.4q-1.4-.6-2.7.4c-1.8 1.4-1.4 4-.2 5.6q.6.9 1.4 1.3h.1q1.4.8 2.8.6 2.5-.2 4.1-3.5l.3-.5a8 8 0 0 0 .2-6.3c-1.4-3.7-5-6.1-9.5-6.5-4-.3-8 1.2-10.3 4q-2.7 3-4 6-.9 1.9-1.3 3.8-.6-2.2-1.9-4-1.8-3-4.7-5.6A13 13 0 0 0 337.4 5c-4.4.9-7.7 3.7-8.6 7.6q-.3 1.3-.2 2.5l.3 1.8.6 1.2a6 6 0 0 0-4.8-1.8c-4 .2-6.4 4.7-6.7 8.9q-.3 4.4 3 8.4l2.3 2.4c3.2 2.9 9.2 5.2 11.1 6h.2l-8.6 8.8c-.6-2.8-2.2-9-4.2-13.3q-1-2-2.4-3.7c-2.6-3.2-5.8-4.3-8.6-3a8 8 0 0 0-4.1 4.3 7 7 0 0 0 2.2 7.7q1.2.7 2.5.7a5 5 0 0 0 4.5-2.4 5 5 0 0 0 .2-4.7 10 10 0 0 1 2.2 2.8 78 78 0 0 1 3 16s0 .1 0 .1q-4.6 4.4-8.9 8.2a6 6 0 0 1-2.5-1.7l-.1-.2-.1-.1-.1-.2-.1-.2q-1.2-2 .5-3.5.4.7 1.3.9a3 3 0 0 0 2.9-.9q.8-.8.6-2-.3-1.6-1.6-2.8a4 4 0 0 0-4.7-.3h-.2a7 7 0 0 0-3 4h-.1q-.8 2.7.4 5l.1.1q.7 1.2 1.7 2.2-3.3-1.5-5.4-3.4c-1.8-1.7-4.2-4.3-4.5-7.7q-.3-2 .6-3.7.6-1.4 1.7-2h.1l.3-.1h.1l1.2-.2-.3.5h-.2v.2q-.5 1.3.4 2.6c1.5 1.8 4 1.5 5.7.3q.8-.7 1.3-1.5v-.1q.8-1.3.6-2.8a5 5 0 0 0-2-3.2l-1.9-1-.1-.1a8 8 0 0 0-6.3-.3c-3.8 1.4-6.2 5-6.5 9.5-.3 4 1.2 8 3.9 10.4q3 2.5 6.2 4 1.9.9 3.7 1.2-2.1.7-4 2-3 1.6-5.7 4.7a13 13 0 0 0-2.5 10.7c.9 4.5 3.7 7.7 7.6 8.6q1 .3 2 .3h.5l.5-.1q-2 1.8-1.9 4.9c.3 4 4.7 6.4 9 6.7h.7q5.3 0 10-5.3c3-3.2 5.2-9.2 6-11.1l.3-.9 1.8 2 .6.7 6 6.7c-2.8.5-9 2-13.2 4.1-5.6 2.8-8.4 7.2-6.7 11a8 8 0 0 0 4.4 4 7 7 0 0 0 7.4-1.8q1-1.3 1-2.9a5 5 0 0 0-2.4-4.4 5 5 0 0 0-4.8-.2 10 10 0 0 1 2.9-2.2 76 76 0 0 1 15.8-3q4.2 4.4 8.6 8a6 6 0 0 1-1.6 2.3l-.2.2h-.1l-.2.2h-.2q-2.1 1.2-3.6-.4.7-.5 1-1.4a3 3 0 0 0-.9-2.9q-.8-.6-2-.6-1.6.2-2.8 1.7a4 4 0 0 0-.3 4.6 7 7 0 0 0 6 3.6q1.5 0 3-.7h.4v-.2l1.9-1.6q-1.4 3.3-3.5 5.5c-1.6 1.7-4.2 4-7.6 4.5q-2 .2-3.7-.6-1.5-.7-2-1.7l-.1-.2v-.1l-.1-.2-.2-1v-.3l.5.4h.1q1.4.8 2.7-.3c1.8-1.5 1.5-4 .3-5.7q-.7-.8-1.5-1.3s-.1 0-.1 0q-1.3-.8-2.8-.5-1.6.1-2.8 1.5-.8.8-1.3 2l-.2.3v.2a8 8 0 0 0-.3 6.3c1.4 3.7 5 6.1 9.5 6.4h1c3.7 0 7.2-1.4 9.3-3.8q2.7-3 4-6.2.9-1.8 1.3-3.8.7 2.2 1.9 4.1a26 26 0 0 0 4.7 5.6c2 1.8 5 2.8 8 2.8q1.5 0 2.8-.2c4.4-.9 7.7-3.7 8.6-7.6q.3-1.2.2-2.5v-.1q1.4.8 3.2.8h.5c4-.2 6.4-4.6 6.7-8.9q.4-5.7-5.3-10.8c-3.3-2.9-9.2-5.2-11.1-6l-.5-.1 9-8.5c.5 2.7 2 9 4.1 13.1 2.2 4.5 5.5 7.3 8.7 7.3q1.2 0 2.2-.5a8 8 0 0 0 4.2-4.4 7 7 0 0 0-.3-5.5 8 8 0 0 0 3.4 1h.3l2.2-.3c3.8-1 6.6-4.3 7.4-8.8.7-4-.4-8-2.8-10.6a25 25 0 0 0-5.7-4.6Zm5.8-8q1.6-2 2.2-3a10 10 0 0 1-2.2 3m-4.4 1c1.9-1.8 4.4-4.7 4.7-8.4q.2-2.2-.8-4.3-1-1.8-2.3-2.6h-.2l-.2-.1q-1-.4-2-.3l-1.2.3h-.3q-.5.1-.5.6v.1q.2.5.7.4.6.1 1 .8.3.8-.2 1.5c-1 1.3-3 1-4.2.2l-1-1v-.2q-.5-1-.5-2.1.1-2 2.8-3.3l.5-.3a7 7 0 0 1 5.4-.3c3.4 1.2 5.6 4.3 6 8.4q.3 3-.8 5.7v-.1q0-.3-.3-.3l-.7.2c0 .1-3.4 7-11.8 9q3-1.4 5.9-4Zm-7.7 1.4.1-.2.2-.2V64q2-3.4-1.3-5.5l-.7-.5-.2.8q-.2.8-.8.9-1 .2-1.8-.5-.4-.5-.3-1.2.1-1.1 1.1-2a3 3 0 0 1 3.5-.4s.1.1.1.1q2 1.1 2.7 3.3l.3 1.7q0 1.3-.6 2.4v.1q-1.1 2-3.9 4l-.8-.7q1.4-.6 2.4-2m-2.5 4.7q2.7 2.2 3.5 4.3.9 2.2 0 4.2a6 6 0 0 1-3 3.1 3 3 0 0 1-3.4-.5q-1-1-1-2.2 0-.6.4-1.1.5-.4 1.2-.4h.6q.6.2.7 1v.8l1-.4q3.3-2 1.7-5.4v-.2l-.2-.3-.1-.2c-.5-1-1.6-1.7-2.4-2.1zm-15.8-20 .1-.3.6-1.7c.8-2 3-7.7 5.8-10.8q4.6-5.4 9.9-5c5 .4 7.7 3.2 7.9 5.8q0 3.5-2.9 4.7c-1.7.5-4.2.2-5.3-1.5q-.8-1.5-.4-2.6.2-.6 1-.9.6 0 1 .2l.2.2h.3l.4-.2q.3-.4-.1-.8h-.1a5 5 0 0 0-4.4-.9 10 10 0 0 0-6.2 4.5 29 29 0 0 0-2.2 7.1v.4a48 48 0 0 1-2 6.4 16 16 0 0 1-4.3 5.6 26 26 0 0 1-5.4 3.5h-.1v.1h-.1l-.7-.8-.6-.7-.1-.1-.1-.2 1-.8.3-.2.8-.9q1.4-1.5 2.4-3c2-2.8 2.6-5 3.3-6.9ZM361 8.1q1.1-1.5 3-2.3-1.2.6-3.1 2.4zm3.9-1.6q.4-.2.3-.7l-.4-.3h-.1q2.6-1 5.6-1c4.2.4 7.4 2.5 8.6 5.8q.4 1.1.5 2.2a7 7 0 0 1-.7 3.3l-.2.3v.2Q377 19 375.1 19q-1.1.2-2.2-.4-.7-.4-1.1-1c-1-1.2-1.2-3.1 0-4.1q.5-.4 1-.4l.5.1h.1q.6.4.7 1v.1l.3.5h.6l.2-.3.1-.3.3-1.3q0-1-.3-2v-.2h-.1v-.2l-.2-.1a5 5 0 0 0-2.4-2.1q-2.2-1-4.4-.8a14 14 0 0 0-8.3 4.9q-2.6 2.9-3.7 6a18 18 0 0 1 8.6-12Zm-8.7 15.6V22q1.9-3 3.9-4t4-.5h.2a6 6 0 0 1 3.4 2.8 3 3 0 0 1-.2 3.5q-1 1-2 1.2-.8.1-1.2-.4-.8-.6-.5-1.7 0-.5.8-.9l.7-.3-.4-.6q-1.4-2-3.2-2-1 0-2.2.7l-.2.1-.2.1-.2.1-.2.2q-1 .7-2 2.7l-.2-.4h-.1l-.2-.2-.1-.1zM355 33l5.7 5.6Q357 43 355.3 46q-.1.5.2.7.5.3.8-.2c1.1-2 2.8-4 5.1-7l2 2.1a62 62 0 0 0-7.3 9.5q-.2.4.1.7-1.5 1.9-2.1 4c0 .2-.9 2.5-1.2 4l-1.8-1h-.4l.1-.8q.2-1.8-.2-3.7t-2-3.3q1-.3 2-.3l1.2-.1q.7-.4.6-1l-.1-.4a30 30 0 0 0-5.2-8.3zm7.8 21.8q1 .6 2.2.4l-.1.9c0 .9.4 2 1.5 2.5h1c-1 1.7-3 2-3.8 2 0-1.7-.6-3-.6-3l-.2-.3h-.5c-1.2.3-3.9 1-5.4 1.8l1.2-2.8q1.3-2 3.3-3.4l.5-.2-.1.4a2 2 0 0 0 1 1.7m-1 8.2-.4.4a7 7 0 0 1-3.6 2q-.3-.6-.8-.9l-1.1-.3.3-2 .2-.5a3 3 0 0 1 .8-1.4 17 17 0 0 1 5-1.8l.3 2h-.3v.6q0 .8-.3 1.4zm1.6 13.3v-2.6q.1-2-.2-3c2.4.5 4.5 2.3 5.6 4.4h-.6a2 2 0 0 0-1.6 1q-.7 1.1-.3 2.5l-.9-.2c-.8 0-2 .4-2.5 1.6v1a4 4 0 0 1-1.5-1.8q-.3-.9-.3-2.1l1.8-.2h.5zm-1-2.7v.7l-.1 1.6h-1.8a7 7 0 0 1-5-2.4c-.7-1.1-.5-2.5-.4-3q1.1-.3 1.9-1 .7-.4 1-1.2h1q1.4.3 2.2.8l.5.7q0 .3.3.5.4 1.2.3 3.3m-16 4.6q-.6-.4-1.2-.4l.5-.4q1-.6 2.4-.7l1.8-.4q1-.3 1.8-.8l-.6 1.2q-1.2 2.2-3.4 3.4l-.4.2V80a2 2 0 0 0-1-1.7Zm-1.5-1.8v.4l-.1 1h-.8l.1-.9q0-1.6-1.5-2.5h-1c1-1.6 2.7-1.9 3.7-2q-.6 2.5-.4 4m4.7-1.1-1.5.3h-.1q-1 0-2 .4-.1-1.4.4-3.5.4-.2.4-.5v-.3q.3-.8 1-1.3l.1-.1.3-.2 1.7-1.1 1.3-.6q.4 1.4 1.6 1.9v1.9l-.2 1c-.5 1-2 1.7-3 2Zm-3.3-10.9-3-1.7-.4-.2q-2-1.2-3.4-3.4l-.2-.4q1.3.3 2.1-1 .5-.7.5-1.5a3 3 0 0 0 1.7.5q1.5 0 2.5-1.5.2-.5 0-1c1.5.8 2 2.7 2 4.2q-1 0-1.3.3h-.2l-.1.2c0 .2-1.5 3-.2 5.5m1.1-4.8 1.2-.2 1.2.2h.5v.1l.4.1q1 .3 1.7 1h.2v.1l.3.2a3 3 0 0 1 1 3.2 3 3 0 0 0-2.5 2q-1-.1-2.6-.8l-.3-.2q-.8-.6-1.1-1.2c-1-1.7-.2-4 0-4.5m4.9 8.1V67q.2-.7.7-1.2.3-.3 1-.4.4.1.6-.1h1.1l.7.2q.3.1.5.7l.1.2.2 1v.2l-.2.3q-.1.5-.7.8a4 4 0 0 1-1.7.7h-1.3c-.8-.3-1-1.2-1-1.6ZM330.6 20v-.1q1.8 2.4 4 2.4 1.6 0 2.7-.8l.2-.1q.8-.7 1.3-1.5c1-1.8 1-4.4-1-5.6q-1.5-.9-2.8 0l-.5.5v-1.4l.1-.1v-.1q.5-1.2 1.9-2.1 1.6-1 3.6-1c3.5 0 6.3 2 8.2 3.5q2.1 1.8 4 5A9 9 0 0 0 350 17a6 6 0 0 0-5.1.1 7 7 0 0 0-3.6 3.6v.2q-1 2.7.8 4.6 1.3 1.3 3 1.3 1.1 0 2-.8 1-1.4.4-3-.4-.9-1-1.2 1.2-2 3.6-.9h.1l.4.3c1 .5 1.9 2 2.2 2.6l-12.5 12.6a26 26 0 0 0-5.4-1.4q-3.7-.6-6.9-2.1a9 9 0 0 1-4-6.6q.4.5 1 .7c1 .4 2.5.2 3.6-.5 2.2-1.5 2.7-4.5 2-6.6Zm23.4 2 .2.3v.1l-.3.3-.3.3a7 7 0 0 0-2.4-2.8s-.1 0-.2 0l-.4-.3q-3.6-1.5-5.4 2l-.5.8h.9q.6 0 1 .7.3 1-.4 1.9-.4.4-1 .4-1.3 0-2.3-1a3 3 0 0 1-.6-3.3v-.2a6 6 0 0 1 5.3-3.5q1 0 2 .4 2.1.9 4.2 3.4v.4zm-24-9.2c.9-3.4 3.8-6 7.8-6.8a13 13 0 0 1 5.8.2q-.3 0-.5.4-.1.5.4.7s7.1 2.6 10 10.8q-1.5-2.9-4.4-5.5a14 14 0 0 0-8.8-3.8h-.1q-2.2 0-4.2 1.2a5 5 0 0 0-2.3 2.6v.2l-.1.2q-.3 1 0 2 0 .6.4 1.2v.3a.6.6 0 0 0 .9.3q.3-.2.2-.6v-.1q0-.5.7-1t1.5 0c1.4.9 1.4 2.8.6 4.1l-1 1.2q-1 .6-2.1.7-2 0-3.6-2.5l-.1-.2-1-2-.3-1.4zm-5.8 22.4q-5.4-4.8-5-10c.4-5.5 3.7-7.7 5.7-7.8q3.6-.1 4.7 2.8c.6 1.7.3 4.2-1.5 5.3q-1.3.8-2.5.4-.7-.2-1-1 0-.6.3-1l.1-.3q.1-.4-.1-.6l-.5-.1q-.2 0-.3.2l-.1.2q-1.4 1.6-.8 4.3a10 10 0 0 0 4.4 6.2 28 28 0 0 0 7 2.2h.2l5.5 1.5q3.4 1.3 5.8 3.6 2.4 2.4 4.3 6.2-.8-1.4-1.9-2.6h-.8q-.3.4 0 .7 1.6 2 2.6 4.1l-1.3.2q-.9-1.3-2.1-2.4a25 25 0 0 0-11-6l-1-.4a39 39 0 0 1-10.7-5.7m5.7 22.9a14 14 0 0 0 3.6 4.9q2 1.9 3.7 2.4h-.2a11 11 0 0 1-5.7-4.5l-.3-.2h-.4l-.3.4.1.5c1.6 2.2 2.9 3.4 6.2 4.8l-.2.3h-.1l-.2.3h-.2v.1h-.2l-.3-.1-.4-.2q-4.4-2.2-8-6zm-23 3a5 5 0 0 1-.5-4.1 6 6 0 0 1 2.6-3.4h.2a3 3 0 0 1 3.4.2q1.1.8 1.2 2 0 .7-.3 1.2-.7.7-1.8.5-.6 0-.8-.8l-.2-.9-.7.5q-3 2.3-1.4 5.4l.3.4v.2l.2.1q1.1 1.5 2.5 2l-.3.3-.4.4h-.1q-2.9-2-4-4Zm3.5 6.2.7.7q-1.2.6-2 2l-.2.1-.1.3v.2l-.1.2q-1.5 3.4 2 5.2l.8.4v-.9q.1-.7.7-.9 1-.2 1.8.3.5.5.5 1.1 0 1.2-1 2.2a3 3 0 0 1-3.3.7h-.2a6 6 0 0 1-3-3 5 5 0 0 1-.1-4.2v-.1q.9-2.2 3.4-4.3m-4.4 3.9q-1 2.7 0 5a7 7 0 0 0 3.9 3.7q.7.3 1.6.3 1.7 0 3-1.2 1.3-1.3 1.2-3 0-1.1-.8-1.9a3 3 0 0 0-3-.5q-.8.3-1.2 1.1-1.8-1.3-1-3.5l.1-.1V71l.2-.2v-.1h.1q.7-1.2 1.9-1.8 5.5 5.7 11.2 12l-1 2.9-.8 3.5c-.6 2.4-1 4.8-2.2 6.9a9 9 0 0 1-5.4 3.8l-1.2.2q.6-.4.8-1c.4-1 .2-2.5-.5-3.6a5 5 0 0 0-4.6-2.3h-.5l.4-.2q3-2 3-4.5 0-1.5-1-2.8s0-.2-.1-.2q-.6-.7-1.3-1.1c-1.8-1-4.4-1-5.6 1q-.9 1.3 0 2.7v.1l.4.4h-1.4q-1.4-.5-2.3-2-1-1.6-1-3.5c0-3.5 2-6.3 3.5-8.2a19 19 0 0 1 5-4q-.9 1-1.4 2.3Zm-10.6-15-.5-.3-.2.1-.3.5q-1.1-2.6-1-5.7c.4-4.1 2.5-7.3 5.8-8.5q1-.5 2.2-.5 1.4 0 3.3.7l.5.2q2.5 1.4 2.8 3.3.1 1-.4 2v.2q-.4.6-1 1c-1.2 1-3.1 1.3-4.2 0q-.5-.8-.2-1.5.4-.7 1-.8.4 0 .6-.3v-.4q0-.4-.4-.4h-.4l-1.1-.3a4 4 0 0 0-2 .2h-.2v.2h-.2l-.1.1q-1.5.8-2.2 2.5-1 2.2-.7 4.4a14 14 0 0 0 4.8 8.3q3 2.6 6 3.7c-8.4-1.8-11.9-8.6-12-8.6Zm2 17.5q-1.5 2.1-2 3.2.6-1.8 2-3.2m6.6 17.7-2.2-.2c-3.5-.8-6-3.7-6.8-7.8q-.6-3 .2-5.7 0 .3.4.5h.1q.4 0 .6-.4c0-.3 2.7-7.2 10.7-10-1.7 1-3.8 2.5-5.4 4.4a14 14 0 0 0-3.8 8.8q0 2.3 1.2 4.2a5 5 0 0 0 2.8 2.4l1.2.2a5 5 0 0 0 2-.4l.5-.2q.3-.1.4-.5v-.2q-.2-.4-.6-.4h-.2q-.5 0-1-.6t0-1.5c.9-1.4 2.8-1.4 4.1-.6q.6.3 1 .8l.1.1q.7 1 .7 2.2 0 2-2.4 3.6l-.2.1-.2.2a7 7 0 0 1-3.2 1m24-6.1v.3l-.7 1.6c-.7 2-3 7.8-5.8 10.8q-4.6 5.3-9.9 5c-5-.4-7.7-3.2-7.9-5.7q0-3.5 2.9-4.7.7-.3 1.7-.3 2.3 0 3.6 1.8.8 1.4.4 2.6-.2.6-1 .8-.6.1-1-.2l-.2-.1a.6.6 0 0 0-.5 1q1.8 1.5 4.4.8a10 10 0 0 0 6.2-4.4q1.6-3.5 2.2-7.2v-.2l.9-3.2 1-3.2q1.5-3.2 4.2-5.6l.6-.5q2.3-1.8 5.4-3.3h.1l1.2.3a18 18 0 0 0-6.8 4.8q-.2 0-.1.4l.1.4.4.1q.3 0 .4-.2 2.3-2.6 5.6-4.1l.4-.2-.3.8-.3.1-.2.2-.2.2-1.1 1.1q-1.5 1.5-2.5 3c-1.8 2.8-2.5 5-3.2 7m8.5-2-.4-.5-3.7-4.1 3-3.6.2-.1q.3 0 .5-.3l.7-1.5c.2-.5.6-1 .4-1.6q-.4-.8-1.3-1-.7-.3-1.6-.3l-.3.1q-3.4 1.7-5.8 3.6l-7.3-7.6 5.2-4.8q4.2 4.2 9.1 6.6h.5q.8-.1 1.2-.7l.8-1.1.7-1.2q.2-.5-.1-.7h-.4l-.3-.2q-1.4-.3-3.4-2.1a12 12 0 0 1-3.4-5l11.8-11.8q1.8 1 3.5 2.7l1.8 2a4.6 4.6 0 0 0-6 .4 4 4 0 0 0-1.3 3q-1.2-.9-2.5-.7-2.7.6-3.2 4-.4 4 2.9 6.9 3.2 2.8 10.6 4.9-.3 0-.5.3h-.1c-1.7 0-4.5.5-6 1q-3.4 1-4.6 3.8l-.2.8q-.6 2.3 1.2 4.1A4 4 0 0 0 341 80q.5 0 .8-.2a3 3 0 0 0-.1 1.7c.2 1.7 1.8 3 3.9 3.2h.7q3 0 5.7-2.4-.9 2-2.5 3.7a63 63 0 0 1-5.8 5.2zm10.3 41q-1.2 1.3-2.8 2.1 1-.5 2.8-2.2Zm-4 1.5q-.3.2-.2.7.2.3.5.3-2.6 1-5.7 1c-4-.4-7.3-2.5-8.5-5.8q-.4-1.1-.5-2.2a7 7 0 0 1 1-3.8q1.2-2.7 3.2-2.8h.4q1 0 1.7.4.8.4 1.2 1c1 1.2 1.2 3.1 0 4.2q-.7.5-1.5.2h-.1q-.6-.4-.8-1l-.1-.5h-.1q-.4-.3-.8 0v.3l-.1.3-.3 1.2q0 1 .3 2v.2l.1.1.1.2q.8 1.3 2.5 2.2a8 8 0 0 0 4.4.7 14 14 0 0 0 8.3-4.9c1.7-1.8 3-4.1 3.7-6-1.8 8.5-8.6 12-8.6 12Zm8.8-15.4q-2 2.9-4 4-1.8 1-4 .4h-.1a6 6 0 0 1-3.4-2.8 3 3 0 0 1 .2-3.4q1-1.1 2-1.3h.2q.6 0 1 .4.8.7.5 1.7-.1.8-.8.9l-.9.1.6.8q2.2 3 5.4 1.3h.2v-.1h.2v-.1l.1-.1h.1l.1-.1q1.3-1.2 1.8-2.5l.7.6zm1.3-10.6-4.6-4a42 42 0 0 0 6.8-11l.7 1.7A26 26 0 0 0 360 93zm17 18.2q1.5.9 2.9 0l.4-.5v1.7q-.6 1.2-1.9 2-1.6 1-3.6 1.1h-.2c-3.3 0-6.1-2-8-3.5a19 19 0 0 1-4-5q1 .8 2.3 1.4a6 6 0 0 0 5.1-.1 7 7 0 0 0 3.6-3.7q1-2.7-.9-4.7-1.4-1.1-3-1.2-1.1 0-1.9.8a3 3 0 0 0-.5 3q.3.8 1.1 1.2-1.3 1.8-3.6.8h-.3v-.1l-.3-.1c-1-.6-1.8-2-2-2.4l11.7-11.1 2.3.8 3.5.8h.1q3.5.6 6.8 2.1a9 9 0 0 1 4 6.6q-.4-.5-1-.7-1.6-.6-3.6.5a5 5 0 0 0-2.2 4 5 5 0 0 0-3.6-1.7q-1.5 0-2.7.8l-.1.1q-.8.7-1.3 1.5c-1 1.8-1 4.4 1 5.6Zm-16.1-7.5-.2-.4.7-.6c.3.6 1.2 2 2.3 2.6h.2l.2.1.2.1q3.5 1.5 5.4-1.8l.5-1h-1a1 1 0 0 1-.8-.7q-.4-1 .2-1.8.5-.4 1.1-.4 1.3 0 2.2 1a3 3 0 0 1 .7 3.3s0 .1 0 .1a6 6 0 0 1-3 3q-2.2 1-4.2.2-2.3-.8-4.4-3.5zm24.1 8.9c-.9 3.5-3.8 6-7.8 6.8q-3 .6-5.8-.2.3 0 .5-.4.1-.5-.4-.7s-2-.7-4.3-2.6a18 18 0 0 1-5.7-8.2c1 1.8 2.5 3.9 4.4 5.5s5 3.8 8.8 3.8q2.3 0 4.3-1.2 1.8-1.1 2.3-2.7v-.3a4 4 0 0 0 0-2l-.3-1.2v-.3q-.2-.3-.6-.4l-.3.1q-.3.2-.3.5v.2q0 .6-.6 1t-1.5 0c-1.4-.9-1.4-2.8-.7-4.1q.4-.7 1-1.1l.1-.1q1-.6 2-.6 2 0 3.7 2.4l.1.2v.2l.2.3.7 1.5.3 1.5-.2 2.2Zm-5.2-26.2c1.9.8 7.7 3 10.8 5.8q5.4 4.7 5 10c-.4 4.9-3.2 7.6-5.8 7.8q-2.4.1-4-1.6v-.1l-.8-1.5c-.4-1.7 0-3.9 1.6-5q1-.5 1.8-.5h.8q.6.4.8 1.2.2.5-.1 1-.3 0-.2.2 0 .4.2.6.4.3.8 0v-.2q1-1.2 1-3l-.1-1.3a10 10 0 0 0-4.5-6.3 29 29 0 0 0-7.1-2.2 45 45 0 0 1-6-1.7 16 16 0 0 1-5.7-3.8 24 24 0 0 1-5.4-9.2s0-.2 0-.2v-.1l-.1-.1-.2-.7q0-.2-.3-.3h-.4l-.3.1h-.2l.2.8v.3a41 41 0 0 1-7 11.8l-3-3c.8-.6 2.4-2 5.8-5.3q1.9-1.7 2.8-4.4l.7-2.2 1.2-2.4.3 1.7.3 1.5.7 3.2.4 1q1.8 4 4.8 6.8.4.3.8 0 .3-.4 0-.8a18 18 0 0 1-4.6-6.4v-.3a10 10 0 0 1-1-3.3v-.8l-.3-1.1v-.4q-.6-2-.7-3.7l.4.3c.3 2.5 1.2 8.2 4.4 11.2l.3.3 3.6 2.8h.1q3.7 2.2 6.2 2.8l.4.1.3.2q.8.1 1.3.4m-8-4.6-3.2-2.6-.3-.2q-3-3-3.8-9.6l1 .4v1q-.2 1.4 0 3l.1.2q.6 2 2 3.4 1.7 1.5 3.6 1.5c2 0 2.3-.4 3.2-1.3q1.8-1.7 1.2-3.8l1.5.2c1.8-.3 3-1.9 3.3-4q.1-2.7-1.4-5.2l-.3-.4 1 .8 2 1.2q1 1 2.3 3.9zm13-12.3c-1.6-3.6-2.7-4.6-5-5.6h-.3l-.1-.3q2.3.8 4 3l.5.2.3-.1.2-.4v-.4a10 10 0 0 0-4.6-3.3l.1-.1q.8-.5 1.3-1.2 4.3 1.4 6.7 5.2zm4-3.8q-2.6-4-7.2-5.4h-.5q-.3 0-.4.2l-1.6 1.4-.8.7v1q0 .3.2.4l-.3-.3a16 16 0 0 0-10.4-5.1l1.6-1.3.7-1h.8l.3.1h1.3l2-.2a8 8 0 0 0 3.8-2.5c1.6-2 1.5-4.5-.2-6.3q-1.6-1.5-3.5-1.3.3-.7.2-1.6-.6-2.7-4-3.2c-2.3-.2-4.3.7-5.6 1.8l1.5-2.1c3-3.7 4.2-5 4.7-5.5q6.9 7.5 12 13.6l-2.4 3-.1.2-.3.2-1.6 1.2q-.2.2 0 .6v.1l.6 1 .7.7.7.8v.2l.8.3q3.4-1.5 5.7-3.5c2.3 2.6 4.6 5.3 6.4 7zM397.4 86q-.9 1.2-.9 2.8 0 1 .7 2.1l-1.2-.1a5 5 0 0 0-4.5 2.4 5 5 0 0 0-.2 4.7 10 10 0 0 1-2.1-2.9 78 78 0 0 1-3-15.8l8.8-8.3a6 6 0 0 1 2.3 2l.1.2.1.2q1.1 2.2-.8 3.7-.4-.8-1.2-1.1a3 3 0 0 0-3 .6q-.8.7-.8 1.9 0 1.7 1.4 3 1.2 1 2.8 1.1.9 0 1.8-.3h.1a7 7 0 0 0 3.5-3.7q1.2-2.7 0-5v-.2L400 71q3.2 1.8 5 4c1.6 1.8 3.7 4.7 3.8 8q0 2-1 3.7-.5 1.2-2.1 2H404l.5-.4v-.1q.8-1.4 0-2.7c-1.3-2-4-2-5.7-.9q-.8.5-1.3 1.2zm14.9-6.2v-.2q.8 2.7.3 5.8c-.7 4-3.2 7-6.6 8l-2.2.2a7 7 0 0 1-3.4-1.2l-.3-.1-.9-.7-.3-.3a4 4 0 0 1-1.3-2.6q0-1.2.7-2v-.2a4 4 0 0 1 3-1.5q1.5 0 2.2 1 .5.9.1 1.6-.3.5-.7.6v-.7l-.9 1-.2.3v.4l.3.1.4.2 1.2.3q1 .3 2 0h.1l.1-.1q1.6-.6 2.8-2.4a9 9 0 0 0 1.1-4.2 14 14 0 0 0-4-8.8 20 20 0 0 0-5.5-4.3c8.2 2.7 11 9.7 11 9.8q0 .3.5.4h.2zm-2.2-4.1q1.2 1.4 2 3.2-.5-1.2-2-3.2m-56.4-22.5h.2q.3 0 .5-.4a19 19 0 0 1 1.7-3.9 42 42 0 0 1 3.5-5.4q0-.3-.2-.4l-.4-.1q-.2 0-.3.2a44 44 0 0 0-3.6 5.2q-1.1 2-1.8 4.1 0 .5.4.7m.5 29.3q0-.3-.4-.4-.5 0-.7.4-.4 1.5-1.4 3c-1.2 2-3 3.8-4.5 5.5l-.2.4.1.4h.8q2.6-2.6 4.8-5.7 1-1.6 1.5-3.3z" style="fill:#273a80"/></svg>