<?xml version="1.0" encoding="UTF-8"?>
<svg id="Layer_1" xmlns="http://www.w3.org/2000/svg" version="1.1" viewBox="0 0 133.24 131.73">
  <!-- Generator: Adobe Illustrator 30.2.1, SVG Export Plug-In . SVG Version: 2.1.1 Build 1)  -->
  <defs>
    <style>
      .st0 {
        fill: #fff;
      }

      .st1 {
        fill: #273a80;
      }
    </style>
  </defs>
  <path class="st0" d="M118.92,69.24c-.22-.13-.45-.26-.69-.39.38-.15.75-.32,1.12-.5,2.15-1.03,4.3-2.5,6.37-4.37,2.92-2.64,4.48-7.03,4.07-11.45-.46-5.04-3.26-8.94-7.5-10.42-.91-.32-1.87-.51-2.84-.56-.04,0-.08,0-.12,0,.76-1.25,1.12-2.77,1.01-4.34-.3-4.71-5.28-7.53-10.04-7.88-1.85-.14-3.66.15-5.39.85,1.61-2.42,1.93-4.97.89-7.27-1-2.22-2.87-3.97-5.13-4.81-2.03-.76-4.17-.7-6.03.17-1.13.52-2.09,1.26-2.78,2.13-.84,1.07-1.26,2.29-1.26,3.62,0,2.39,1.09,4.41,3,5.54.34.21.71.38,1.09.51-2.73.92-8.68,1.81-13.69,2.38-2.91-3.08-5.79-6.01-8.82-8.96.32-.63.69-1.11,1.04-1.36l.44-.28c.51-.29.86-.35,1.11-.34-.12.25-.22.51-.29.79-.36,1.5.16,3.16,1.3,4.13.71.59,1.56.9,2.48.9.16,0,.3-.01.42-.03,1.35-.14,2.76-.94,3.68-2.11,1.37-1.73,1.55-4.04.46-6.02-.99-1.81-2.72-3.23-4.76-3.89l-.08-.02c-1.38-.41-2.79-.45-4.12-.12.28-.37.58-.72.88-1.04,1.52-1.62,3.89-3.8,6.89-4.14.94-.11,2.1.06,2.94.44l.16.09c.25.11.47.24.67.38-.68.1-1.33.4-1.89.86-2.39,1.95-2.04,5.26-.5,7.39.49.66,1.13,1.23,1.81,1.6.09.06.18.1.25.13,1.05.53,2.28.75,3.45.62,2.13-.26,3.83-1.65,5.06-4.12.12-.21.22-.43.28-.59.69-1.52,1-3.01.9-4.45-.07-.93-.27-1.87-.61-2.81-1.58-4.2-5.54-6.92-10.59-7.28-4.43-.33-8.78,1.34-11.36,4.31-1.85,2.14-3.28,4.32-4.24,6.47-.09.21-.18.42-.27.63-.2-.38-.41-.75-.64-1.11-1.24-2.03-2.92-4-4.98-5.86-2.93-2.63-7.46-3.73-11.8-2.87-4.97.98-8.57,4.17-9.6,8.54-.22.96-.31,1.92-.26,2.85,0,.06,0,.12.01.19-.86-.26-1.77-.35-2.72-.29-4.72.3-7.54,5.29-7.88,10.05-.14,1.88.14,3.65.85,5.37-2.41-1.61-4.96-1.92-7.26-.88-2.22,1-3.98,2.87-4.82,5.14-.7,1.9-.69,3.89.02,5.64h-.03c-1.51-.7-3-1-4.43-.91-.93.06-1.88.26-2.83.61-4.21,1.57-6.93,5.54-7.28,10.6-.31,4.42,1.34,8.77,4.31,11.34,2.13,1.84,4.31,3.28,6.5,4.26.2.09.4.18.6.26-.37.2-.74.41-1.1.63-2.02,1.23-3.99,2.91-5.86,4.99-2.62,2.93-3.72,7.45-2.87,11.79.99,4.98,4.18,8.58,8.53,9.61.29.07.58.13.87.17-.54,1.12-.77,2.41-.68,3.74.3,4.72,5.28,7.54,10.04,7.88,1.91.14,3.65-.14,5.4-.85-1.61,2.42-1.93,4.97-.89,7.26,1,2.22,2.87,3.98,5.14,4.82,1.79.66,3.74.67,5.43.06-.39,1.16-.54,2.29-.47,3.36.06.94.26,1.89.61,2.83,1.56,4.2,5.53,6.92,10.62,7.28.34.02.69.04,1.04.04,4.08,0,7.92-1.63,10.28-4.35,1.84-2.11,3.27-4.29,4.26-6.48.09-.2.18-.41.26-.61.2.37.41.74.63,1.11,1.25,2.03,2.93,4,4.98,5.85,2.9,2.6,7.54,3.73,11.8,2.87,4.97-.98,8.56-4.16,9.6-8.52.08-.35.15-.71.2-1.06.81.22,1.68.31,2.55.25,4.72-.31,7.54-5.29,7.88-10.05.14-1.86-.15-3.68-.86-5.42,2.4,1.58,5.07,1.92,7.29.91,2.22-1,3.97-2.87,4.8-5.13.46-1.25.62-2.57.46-3.83.47.1.95.16,1.44.18h.3c.85,0,1.7-.11,2.52-.32,4.34-1.13,7.45-4.79,8.33-9.79.76-4.36-.44-8.85-3.13-11.72-1.87-2-3.86-3.63-5.92-4.84ZM108.38,89.53c-2.12.17-3.9,1.25-4.92,2.99-.2.34-.37.7-.5,1.07-.95-2.82-1.87-9.06-2.4-13.91l3.58-3.39c-.39.61-.6,1.32-.61,2.11,0,1.36.66,2.84,1.73,3.87,1.59,1.54,3.88,1.95,5.98,1.06l.13-.06c1.86-.83,3.39-2.39,4.19-4.29.57-1.34.76-2.75.56-4.13.34.32.66.65.94.98,1.45,1.68,3.38,4.25,3.42,7.26.02.96-.29,2.09-.79,2.95l-.03.05h0c-.14.24-.3.46-.46.65-.03-.68-.26-1.34-.66-1.95-1.71-2.59-5.03-2.58-7.29-1.25-.67.39-1.25.92-1.68,1.5-.05.07-.11.15-.17.25-.69,1.01-1.06,2.25-1.05,3.5,0,.25.03.49.07.74ZM110.45,47.99c-.12,1.21.14,2.44.71,3.46.04.08.08.15.15.27.42.69.96,1.27,1.62,1.73,2.15,1.5,5.46,1.78,7.37-.66.45-.58.72-1.22.81-1.88.15.21.3.44.43.71.43.9.64,2.06.55,3.04-.28,3-2.41,5.41-3.98,6.96-.32.31-.66.61-1.03.91.31-1.36.24-2.78-.22-4.17l-.03-.09c-.65-1.9-1.96-3.49-3.7-4.47l-.26-.15c-.84-.43-1.73-.65-2.6-.65-1.22,0-2.42.42-3.4,1.24-1.14.94-1.92,2.37-2.04,3.73-.06.8.11,1.56.48,2.22-1.73-1.97-3.58-4.15-5.38-6.29.3-.78.58-1.62.85-2.57.35-1.22.62-2.47.86-3.58l.03-.11c.48-2.21.98-4.49,1.99-6.45.54-1.05,1.86-2.17,3.29-2.8-.09,1.15.24,2.39.93,3.47.92,1.43,2.42,2.38,4.24,2.71-.97,1-1.53,2.15-1.66,3.45ZM109.68,75.1c-.23-.15-.48-.27-.74-.36-.46-.17-.94-.25-1.42-.25-.72,0-1.44.18-2.06.53l2.72-2.58c.49.34.85.69,1.03,1.01l.18.35v.02c.3.62.33,1.01.28,1.27ZM109.94,62.03c.27-.07.52-.17.76-.3.03.27-.04.66-.38,1.27l-.08.15c-.04.05-.08.11-.15.22-.2.28-.57.59-1.05.87-.82-.84-1.71-1.8-2.64-2.84.99.71,2.33.97,3.55.64ZM82.49,110.05c-.67.49-1.24,1.13-1.65,1.87-1.27,2.3-1.2,5.62,1.41,7.26.61.38,1.3.6,1.97.62-.18.17-.4.33-.64.48-.88.54-2,.88-3,.88h-.11c-2.95,0-5.54-1.86-7.22-3.25-.34-.28-.68-.59-1.01-.93,1.38.17,2.81-.06,4.1-.63,1.9-.85,3.39-2.35,4.18-4.2.02-.05.05-.1.06-.14l.05-.12c.82-2.1.36-4.37-1.2-5.92-1.04-1.03-2.5-1.64-3.91-1.64-.42.01-.82.08-1.19.21l5.68-5.38c.51.17,1.06.35,1.7.53,1.21.34,2.48.62,3.6.86l.11.03c2.21.48,4.49.98,6.45,1.99,1.07.55,2.16,1.84,2.8,3.29-1.14-.09-2.39.24-3.48.94-1.04.68-1.84,1.68-2.33,2.9-.88-.51-1.83-.77-2.84-.77-1.15,0-2.35.37-3.29,1-.06.04-.12.07-.24.15ZM71.99,109.79c.1.27.23.52.38.75-.26.05-.64.04-1.23-.23l-.45-.22c-.33-.18-.71-.57-1.07-1.1l2.4-2.28c-.39.96-.41,2.08-.03,3.07ZM87.24,39.22c3.13-.76,7.31-1.94,10.61-3.45-1.68,2.14-3.41,5.38-5.16,9.64-1.84-2.13-3.63-4.16-5.45-6.19ZM93.8,86.08c.77,3.17,1.96,7.38,3.46,10.66-2.12-1.67-5.26-3.36-9.38-5.05l5.92-5.61ZM33.3,87.09h-.26c-.49,2.24-.99,4.54-1.99,6.5-.54,1.05-1.86,2.16-3.29,2.8.09-1.15-.24-2.39-.93-3.47h0c-.72-1.12-1.78-1.95-3.08-2.42,1.06-1.18,1.59-2.5,1.58-3.93,0-1.29-.42-2.54-1.22-3.61-.05-.06-.1-.13-.14-.17-.47-.58-1.03-1.05-1.66-1.4-2.29-1.27-5.62-1.22-7.27,1.41-.39.62-.6,1.29-.61,1.97-.18-.2-.36-.43-.52-.71-.51-.85-.83-1.97-.84-2.93-.04-3.01,1.84-5.62,3.25-7.33.28-.34.59-.68.93-1.01-.17,1.38.05,2.78.64,4.1.83,1.88,2.36,3.4,4.19,4.18.14.07.25.11.27.11,2.07.82,4.4.35,5.94-1.2,1.03-1.07,1.65-2.56,1.63-3.9,0-.06,0-.12,0-.18,1.57,1.67,3.14,3.37,4.79,5.19-.27.71-.52,1.48-.77,2.35-.35,1.22-.62,2.49-.86,3.6l.24.05ZM22.58,49.38l.08-.14c.54-1.06.76-2.29.62-3.46-.05-.38-.13-.75-.25-1.11.48.12.97.19,1.48.19,2.39,0,4.41-1.09,5.54-3,.21-.35.38-.71.51-1.09.94,2.79,1.85,8.97,2.43,14.17-2.66,2.53-5.19,4.88-7.72,7.17-.61-.31-1.07-.66-1.3-.97l-.04-.06c-.03-.06-.06-.1-.09-.14l-.12-.21s-.04-.07-.07-.1c-.28-.52-.35-.87-.33-1.11.25.12.51.22.78.29,1.51.38,3.16-.14,4.12-1.28.69-.81,1-1.82.89-2.91-.14-1.35-.95-2.76-2.11-3.68-1.73-1.37-4.03-1.55-6-.47l-.28.15c-1.72,1.04-3.01,2.67-3.63,4.62l-.02.07c-.42,1.37-.46,2.79-.12,4.13-.37-.29-.72-.58-1.04-.88-1.61-1.51-3.79-3.87-4.14-6.88-.12-.98.07-2.13.51-3.08.12-.24.25-.47.39-.67.1.67.4,1.31.86,1.88,1.96,2.4,5.26,2.05,7.37.5.68-.49,1.25-1.15,1.67-1.9ZM24.41,72.54h0c-.26.1-.5.23-.73.38-.05-.25-.02-.62.21-1.21v-.04s.14-.25.14-.25c.03-.05.06-.11.09-.17.12-.22.34-.46.63-.72.58.59,1.15,1.19,1.72,1.78-.7-.09-1.41-.02-2.07.23ZM52.95,35.03c-.37-.12-.75-.24-1.15-.35-1.25-.35-2.53-.63-3.68-.88-2.22-.48-4.51-.99-6.47-1.99-1.07-.55-2.16-1.85-2.8-3.29,1.15.08,2.39-.24,3.47-.93,1.51-.98,2.51-2.65,2.77-4.63l1.34.41c1.52.34,3.29.03,4.54-.83.12-.07.23-.14.29-.19.7-.53,1.25-1.15,1.63-1.85,1.27-2.29,1.21-5.61-1.42-7.28-.62-.38-1.28-.58-1.96-.6.18-.17.39-.33.63-.48.9-.55,2.03-.88,3.08-.89,3,0,5.58,1.86,7.27,3.25.34.28.68.59,1.01.93-1.38-.17-2.79.05-4.1.64-1.86.82-3.38,2.36-4.17,4.19-.04.08-.08.17-.12.27-.84,2.11-.38,4.38,1.2,5.93,1.05,1.02,2.5,1.63,3.89,1.63,1.08-.02,2.07-.45,2.79-1.23,1.02-1.1,1.33-2.81.77-4.27-.1-.26-.23-.51-.38-.73.26-.05.64-.03,1.25.24.07.03.11.05.15.06l.3.15c.36.2.79.67,1.2,1.3-4.05,4.01-7.98,8.01-11.31,11.41ZM39.74,48.37c-.78-3.21-1.99-7.46-3.49-10.76,2.09,1.66,5.19,3.33,9.24,5-2.11,2.13-4,4.02-5.75,5.76ZM42.02,89.29l1.01,1.14c1.55,1.75,3.04,3.43,4.52,5.07-3.19.78-7.42,1.97-10.71,3.47,1.7-2.16,3.44-5.41,5.18-9.69ZM50.22,120.67c2.41-1.95,2.06-5.27.51-7.4-.5-.67-1.14-1.23-1.91-1.65l-.13-.06c-1.06-.55-2.29-.77-3.48-.63-.4.05-.79.14-1.15.27.01-.16.02-.32.02-.48,0-2.39-1.09-4.41-3-5.54-.35-.21-.71-.38-1.1-.51,2.76-.93,8.82-1.83,13.93-2.4,1.11,1.12,2.18,2.17,3.26,3.2-.64-.31-1.36-.43-2.12-.36-1.34.14-2.75.94-3.67,2.11-1.37,1.73-1.55,4.04-.47,6.02.99,1.81,2.71,3.23,4.75,3.88l.08.02c1.35.41,2.79.45,4.13.12-.29.37-.58.72-.89,1.04-1.51,1.61-3.87,3.79-6.87,4.14-.94.11-2.11-.07-2.98-.46l-.13-.07c-.24-.11-.46-.24-.66-.37.66-.1,1.3-.39,1.86-.86ZM60.07,110.56c-.51.28-.85.35-1.1.33.12-.24.22-.5.28-.78.27-1.06.08-2.21-.46-3.13.84.78,1.7,1.54,2.57,2.31-.25.43-.52.76-.73.92l-.57.36Z"/>
  <path class="st1" d="M118.29,70.32c-1.17-.69-2.4-1.25-3.68-1.66,1.43-.3,2.84-.78,4.21-1.43,2.04-.97,4.08-2.37,6.07-4.17,2.63-2.38,4.04-6.37,3.66-10.41-.41-4.54-2.91-8.04-6.67-9.36-.8-.28-1.63-.45-2.47-.49-.95-.04-1.93.12-2.93.49l-.07.04c-.28.1-.56.21-.83.34-.08.04-.17.09-.25.13-.09.04-.17.09-.26.13-2.1,1.11-3.2,2.48-3.38,4.19-.09.96.11,1.94.58,2.78.02.04.05.09.07.13l.03.05c.33.54.75.99,1.27,1.35,1.68,1.17,4.24,1.43,5.67-.41.63-.81.75-1.8.32-2.65-.01-.02-.02-.04-.03-.06,0-.02-.02-.03-.03-.05l-.04-.06c-.1-.15-.22-.31-.36-.46.49-.04.97.02,1.4.19.03,0,.05.02.08.03.03.02.06.03.09.05.02.01.04.02.07.04.73.37,1.37,1.06,1.83,2.01l.02.04c.53,1.1.78,2.49.67,3.69-.32,3.41-2.64,6.05-4.35,7.73-1.38,1.35-3.19,2.54-5.37,3.54.69-.71,1.23-1.44,1.64-2.22l.02-.04c.82-1.54.96-3.32.39-5.04v-.02c-.55-1.64-1.67-3-3.17-3.85l-.21-.12c-1.56-.81-3.34-.63-4.64.44-.88.73-1.5,1.85-1.58,2.86-.05.75.17,1.42.63,1.96.67.76,1.86,1.1,2.9.82.58-.16,1.04-.49,1.34-.96,1.17,1.01,1.32,2.23.47,3.73-.01.02-.02.04-.04.06-.02.03-.04.06-.05.09l-.05.07s-.03.06-.05.09c-.02.03-.04.06-.06.09-.01.02-.03.05-.05.08-.56.82-1.67,1.39-2.33,1.68-2.79-2.76-6.27-6.88-10.3-11.64.4-.93.75-1.93,1.09-3.14.34-1.2.61-2.44.84-3.53l.02-.08c.5-2.29,1.02-4.67,2.1-6.77.9-1.76,3.26-3.43,5.48-3.89.38-.08.76-.12,1.12-.12-.34.27-.6.62-.76,1.02-.4,1.02-.19,2.42.54,3.55,1.44,2.23,4.47,2.68,6.58,1.96.25-.08.5-.19.8-.35,1.89-1.01,2.97-3.11,2.81-5.48-.25-4-4.66-6.4-8.89-6.72-3.83-.28-7.4,1.45-10.84,5.31-2.83,3.18-5.18,9.1-5.95,11.04l-.02.06c-.11.28-.21.55-.31.82-2.85-3.33-5.47-6.3-8.21-9.32,2.21-.48,8.69-2.02,13.04-4.13,5.64-2.74,8.41-7.24,6.74-10.92-.86-1.91-2.48-3.42-4.43-4.15-1.72-.64-3.51-.59-5.07.13-.95.44-1.75,1.05-2.32,1.77-.66.85-1,1.81-1,2.85,0,1.94.87,3.56,2.39,4.47,1.42.85,3.18.91,4.76.17-.8.88-1.79,1.64-2.85,2.17-2.92,1.48-13.38,2.69-15.63,2.93-3.15-3.35-6.27-6.52-9.52-9.67l-.03-.03c-.09-.09-.19-.19-.29-.28.22-.58.82-1.96,1.74-2.62.05-.04.1-.07.16-.11l.03-.02s.07-.05.1-.06l.03-.02s.09-.06.16-.1c.02-.02.05-.03.08-.04.03-.02.06-.03.08-.04,1.42-.79,2.56-.64,3.58.48-.47.31-.8.78-.94,1.36-.25,1.04.11,2.22.88,2.88.49.4,1.05.61,1.68.61.1,0,.2-.01.29-.02,1.01-.1,2.12-.75,2.83-1.64,1.05-1.33,1.19-3.11.34-4.65-.84-1.53-2.29-2.73-3.99-3.28l-.11-.03c-1.67-.5-3.4-.35-4.88.43h-.1l-.1.12c-.75.42-1.45.97-2.14,1.67.95-2.2,2.11-4.03,3.43-5.43,1.66-1.76,4.25-4.14,7.64-4.52,1.18-.14,2.57.08,3.71.59l.06.04c.9.41,1.59,1,1.98,1.69l.06.12s.03.06.04.09l.09.25.02.04c.13.37.18.78.15,1.21-.15-.13-.3-.24-.44-.32-.03-.02-.06-.04-.08-.05-.04-.03-.08-.05-.13-.07-.86-.41-1.84-.27-2.63.39-1.8,1.47-1.49,4.02-.28,5.68.39.52.9.97,1.48,1.29.04.03.07.04.09.05.86.44,1.84.62,2.78.51,1.71-.21,3.05-1.34,4.11-3.47.09-.17.17-.35.24-.52.61-1.33.87-2.62.79-3.84-.06-.81-.24-1.64-.54-2.46-1.4-3.73-4.95-6.15-9.51-6.47-4.04-.29-8,1.2-10.32,3.88-1.77,2.05-3.14,4.12-4.05,6.17-.54,1.2-.96,2.46-1.23,3.75-.44-1.42-1.08-2.79-1.88-4.1-1.18-1.93-2.78-3.81-4.75-5.58-2.64-2.37-6.75-3.36-10.73-2.57-4.48.88-7.7,3.72-8.63,7.59-.2.85-.27,1.7-.22,2.5.03.57.15,1.17.35,1.81l.59,1.25c-1.13-1.3-2.87-1.98-4.82-1.85-4.01.25-6.41,4.67-6.72,8.9-.21,2.98.76,5.73,2.97,8.42.65.8,1.44,1.61,2.34,2.41,3.23,2.88,9.15,5.22,11.1,5.98l.23.08c-2.16,2.19-5.33,5.4-8.67,8.68-.6-2.74-2.13-9.04-4.19-13.29-.66-1.36-1.45-2.6-2.36-3.68-2.66-3.15-5.86-4.3-8.57-3.07-1.92.86-3.43,2.48-4.16,4.43-.63,1.72-.58,3.52.14,5.06.43.95,1.04,1.75,1.77,2.32.1.08.21.16.32.24.76.51,1.61.76,2.53.76,1.94,0,3.56-.87,4.47-2.39.84-1.41.9-3.16.18-4.74.87.8,1.63,1.78,2.16,2.83,1.45,2.87,2.63,12.9,2.96,15.9.01.1.02.15.02.15h0s0,.03,0,.05c-3.04,2.9-5.92,5.57-8.8,8.16-.61-.24-1.92-.83-2.55-1.71-.04-.05-.08-.1-.11-.16-.03-.04-.05-.08-.09-.12l-.02-.05s-.06-.08-.1-.16c-.03-.05-.06-.09-.09-.14-.78-1.43-.63-2.57.49-3.58.31.47.78.8,1.36.94,1.03.26,2.21-.1,2.87-.88.47-.55.67-1.23.6-1.97-.1-1.01-.75-2.12-1.64-2.83-1.33-1.05-3.11-1.18-4.65-.34l-.22.11c-1.46.88-2.55,2.25-3.07,3.87l-.03.11c-.51,1.66-.35,3.39.44,4.88v.09l.1.1c.44.76.99,1.47,1.68,2.15-2.21-.96-4.03-2.11-5.43-3.43-1.76-1.65-4.13-4.23-4.52-7.64-.15-1.2.08-2.59.6-3.73l.02-.04c.43-.91,1.02-1.6,1.7-1.98l.12-.06s.06-.03.09-.04l.26-.09.09-.04h0c.36-.12.74-.16,1.15-.13-.11.13-.22.28-.33.44l-.11.11v.09c-.41.87-.27,1.85.39,2.64,1.47,1.8,4.02,1.49,5.67.28.53-.38.98-.9,1.31-1.49l.06-.11c.43-.84.61-1.82.49-2.74-.15-1.28-.83-2.35-2.06-3.27-.42-.3-.89-.59-1.39-.84-.13-.07-.27-.14-.41-.2l-.11-.05c-1.32-.6-2.61-.86-3.84-.78-.81.05-1.63.23-2.47.53-3.74,1.4-6.16,4.96-6.47,9.52-.28,4.04,1.2,7.99,3.88,10.31,2.03,1.76,4.12,3.13,6.19,4.06,1.23.55,2.48.96,3.72,1.22-1.4.44-2.78,1.07-4.08,1.88-1.92,1.17-3.79,2.77-5.58,4.75-2.37,2.64-3.36,6.75-2.58,10.72.89,4.49,3.73,7.72,7.6,8.64.67.16,1.35.24,2.03.24.15,0,.31,0,.48-.02.19-.01.37-.03.56-.06-1.35,1.12-2.06,2.91-1.92,4.88.25,4.01,4.66,6.41,8.89,6.72.28.02.54.03.8.03,3.56,0,6.84-1.75,10.04-5.34,2.86-3.21,5.2-9.15,5.97-11.09.11-.28.21-.56.31-.84.6.68,1.19,1.34,1.77,1.99l.61.68c2.05,2.32,4,4.51,5.94,6.64-2.7.59-8.93,2.1-13.15,4.15-5.64,2.75-8.41,7.24-6.74,10.92.86,1.92,2.48,3.43,4.43,4.16,1.69.62,3.52.58,5.07-.14.85-.39,1.55-.9,2.09-1.5.08-.09.15-.17.23-.27.66-.85,1-1.8,1-2.85,0-1.94-.87-3.56-2.39-4.47-1.41-.84-3.16-.9-4.74-.18.8-.87,1.78-1.63,2.83-2.16,2.87-1.46,12.77-2.62,15.85-2.95,2.87,2.92,5.59,5.47,8.54,8.01-.28.65-.83,1.72-1.59,2.27l-.19.13s-.06.05-.12.07l-.04.03s-.08.05-.17.1c-.04.02-.08.05-.14.08-1.4.79-2.57.63-3.57-.48.47-.31.79-.77.93-1.36.26-1.03-.1-2.21-.88-2.88-.54-.46-1.23-.67-1.97-.59-1,.1-2.11.75-2.82,1.64-1.05,1.33-1.19,3.11-.35,4.65.84,1.53,2.29,2.73,3.99,3.28l.11.03c.63.19,1.28.29,1.94.29,1.04,0,2.03-.24,2.95-.72h.41v-.24c.66-.41,1.31-.93,1.93-1.56-.96,2.21-2.11,4.04-3.44,5.44-1.65,1.76-4.23,4.14-7.63,4.52-1.19.14-2.59-.08-3.72-.6l-.05-.03c-.9-.41-1.59-1-1.98-1.69l-.08-.15s-.03-.06-.04-.1l-.06-.16c-.13-.34-.19-.7-.19-1.06,0-.08,0-.15,0-.24.16.14.32.26.47.35l.03.02h0c.05.04.1.06.14.08.86.41,1.85.26,2.63-.39,1.81-1.47,1.5-4.02.29-5.68-.39-.53-.89-.96-1.47-1.28l-.06-.04s-.03-.01-.03-.01c-.85-.45-1.84-.64-2.79-.52-1.08.13-1.99.62-2.8,1.49h0c-.48.54-.92,1.2-1.31,1.97-.07.13-.13.27-.19.4l-.06.13c-.6,1.34-.86,2.63-.78,3.84.05.82.23,1.65.54,2.47,1.39,3.73,4.94,6.15,9.53,6.47.31.02.64.04.96.04,3.72,0,7.21-1.47,9.33-3.92,1.76-2.02,3.12-4.1,4.06-6.17.55-1.23.96-2.49,1.23-3.75.45,1.43,1.08,2.81,1.87,4.09,1.19,1.93,2.79,3.81,4.75,5.58,2.02,1.81,4.94,2.84,8.02,2.84.9,0,1.81-.09,2.7-.27,4.48-.88,7.71-3.72,8.63-7.59.2-.82.28-1.66.22-2.5,0-.04,0-.08,0-.13.92.57,2.01.88,3.2.88.15,0,.31,0,.46,0,4.01-.27,6.41-4.68,6.72-8.9.28-3.86-1.46-7.41-5.31-10.84-3.23-2.87-9.15-5.2-11.1-5.97-.14-.06-.29-.11-.45-.17l8.92-8.46c.59,2.7,2.09,8.92,4.15,13.15,2.17,4.45,5.51,7.22,8.71,7.22.78,0,1.52-.16,2.22-.48,1.91-.87,3.42-2.48,4.15-4.43.64-1.71.59-3.51-.13-5.07-.06-.13-.12-.25-.19-.38,1.14.61,2.28.94,3.4.99h.3c.74,0,1.48-.1,2.2-.28,3.85-1,6.62-4.29,7.41-8.8.7-3.98-.38-8.06-2.81-10.66-1.79-1.92-3.68-3.47-5.64-4.61ZM124.15,62.23s-.04.04-.06.06c1.15-1.28,1.88-2.42,2.25-3.05-.55,1.16-1.29,2.18-2.19,3ZM119.77,63.29c1.84-1.81,4.33-4.66,4.69-8.42.12-1.41-.17-3-.79-4.28,0-.02-.02-.04-.03-.06-.56-1.16-1.36-2.02-2.32-2.5-.03-.01-.07-.03-.1-.04-.03-.02-.07-.03-.11-.05l-.15-.06c-.64-.25-1.34-.33-2.06-.24-.41.05-.78.14-1.2.25l-.29.07c-.26.05-.45.29-.44.55,0,.04,0,.08,0,.1v.03c.08.29.35.47.62.41h.1c.31.03.69.39.89.71l.02.04s.01.03.03.04h0c.24.47.16,1.02-.21,1.49-1.01,1.29-2.9,1.05-4.16.18-.39-.28-.71-.62-.95-1-.01-.03-.03-.06-.05-.1-.01-.02-.02-.04-.04-.07-.36-.66-.52-1.42-.45-2.14.12-1.32,1.01-2.37,2.78-3.31l.48-.24c1.16-.55,2.27-.81,3.3-.76.74.04,1.46.18,2.16.42,3.33,1.16,5.55,4.31,5.94,8.41.18,2-.1,3.98-.78,5.72,0-.06-.01-.12-.03-.17-.05-.14-.15-.25-.29-.31-.13-.06-.28-.07-.42-.02-.14.05-.25.15-.32.29-.03.07-3.34,6.88-11.75,8.89,1.86-.84,4.1-2.1,5.9-3.86ZM123.54,50.61h0s0,0,0,0c0,0,0,0,0,0ZM112.02,64.7c.05-.06.09-.13.11-.17.02-.02.04-.05.05-.08l.12-.19s.05-.08.08-.13c1.26-2.22.8-4.15-1.33-5.58l-.71-.45-.19.75v.05c-.11.56-.52.77-.84.85-.62.17-1.37-.04-1.76-.48-.28-.32-.4-.69-.36-1.14.06-.71.53-1.55,1.17-2.09.96-.79,2.27-.91,3.42-.32l.07.04s.08.04.12.07c1.26.71,2.2,1.87,2.66,3.26l.03.09c.17.56.25,1.11.25,1.64,0,.82-.2,1.65-.57,2.38h0s-.05.1-.05.1c-.74,1.39-1.97,2.64-3.86,3.94h-.07c-.23-.2-.47-.42-.73-.66.79-.39,1.8-1.02,2.39-1.89ZM109.56,69.42s.06.03.1.04l.09.04.04.05.07.04h.01c1.75,1.42,2.9,2.8,3.52,4.23l.02.05c.57,1.32.56,2.8-.03,4.17-.57,1.35-1.65,2.46-2.96,3.06l-.15.05c-1.19.51-2.49.28-3.38-.58-.61-.59-1.01-1.46-1.01-2.18,0-.44.16-.81.46-1.11.29-.28.75-.43,1.19-.43.21,0,.41.03.6.1.31.11.69.35.75.88v.92l.89-.47c2.24-1.26,2.86-3.14,1.78-5.43-.02-.06-.05-.13-.09-.18-.04-.08-.08-.16-.11-.24l-.04-.07s-.05-.08-.07-.12c-.55-.95-1.57-1.69-2.39-2.15l.71-.67ZM93.73,49.41l.11-.33c.16-.52.36-1.08.59-1.7.76-1.9,3.06-7.7,5.77-10.75,3.19-3.59,6.44-5.21,9.93-4.95,4.95.37,7.71,3.14,7.87,5.68.15,2.25-.95,4.05-2.85,4.7-1.73.58-4.17.24-5.31-1.51-.54-.84-.71-1.86-.44-2.55.18-.45.54-.74,1.09-.87.43-.11.58-.06.94.18l.07.07c.07.06.14.08.19.1.08.03.15.05.21.05.19,0,.35-.09.45-.23.17-.25.12-.59-.13-.77l-.12-.09c-1.12-.89-2.61-1.17-4.31-.81-2.56.53-5.19,2.41-6.25,4.47-1.16,2.28-1.7,4.74-2.22,7.13l-.07.33c-.22,1.04-.46,2.12-.75,3.14-.37,1.28-.74,2.33-1.19,3.31-.98,2.16-2.37,4-4.24,5.61-1.5,1.27-3.29,2.4-5.45,3.45,0,0,0,0,0,0,0,0,0,0,0,0-.02,0-.05-.02-.07-.02,0,0,0,0-.01,0-.03-.02-.06-.03-.09-.05-.02-.01-.03-.02-.04-.03-.02-.02-.04-.03-.06-.05-.23-.2-.41-.45-.61-.68-.2-.24-.4-.47-.6-.72-.02-.03-.05-.06-.07-.09,0-.01-.02-.03-.03-.04-.04-.06-.08-.11-.12-.17,0,0,0-.02-.02-.03.42-.27.8-.55,1.12-.82l.21-.18c.11-.1.22-.2.33-.31.19-.19.35-.35.5-.53.89-1,1.7-2.03,2.4-3.04,1.91-2.78,2.62-4.96,3.26-6.88ZM73.98,8.09c.8-.92,1.81-1.68,2.96-2.26-.63.38-1.76,1.15-3.03,2.34.02-.03.05-.05.07-.08ZM77.94,6.54c.27-.14.38-.46.25-.75-.07-.13-.19-.23-.33-.28-.05-.02-.1-.02-.16-.03,1.72-.71,3.7-1.04,5.69-.89,4.12.29,7.31,2.44,8.54,5.75.26.71.42,1.43.47,2.15.07,1.02-.16,2.13-.69,3.31-.05.11-.1.21-.15.32l-.08.16c-.9,1.78-1.93,2.69-3.25,2.85-.73.09-1.49-.06-2.15-.41l-.06-.03c-.44-.24-.83-.58-1.12-.97-.91-1.24-1.18-3.13.09-4.17.29-.24.62-.36.93-.36.18,0,.35.04.52.12.02,0,.03.02.07.04l.04.03c.32.19.69.56.73.88v.07s0,.07,0,.1c0,.16.07.3.19.41.01.01.03.03.07.05.02.02.05.03.08.04.02.01.04.03.07.03.14.04.28.03.41-.03.12-.06.22-.17.27-.29l.09-.38c.1-.42.18-.81.23-1.23.07-.69,0-1.35-.24-1.95v-.25l-.13-.06s-.02-.03-.02-.05l-.02-.05s-.02-.03-.03-.07l-.08-.15h0c-.5-.86-1.33-1.58-2.42-2.09l-.04-.02c-1.33-.61-2.95-.88-4.35-.72-3.78.44-6.56,2.99-8.32,4.87-1.72,1.83-2.94,4.1-3.74,5.97,1.84-8.46,8.57-11.9,8.65-11.94ZM69.19,22.06l.06-.07v-.06c1.26-1.92,2.49-3.18,3.87-3.95h.04c1.22-.69,2.66-.85,4.05-.46l.11.03c1.46.45,2.72,1.46,3.44,2.78.62,1.14.53,2.45-.24,3.43-.53.66-1.36,1.15-2.07,1.22-.44.05-.83-.07-1.15-.34-.45-.37-.68-1.13-.52-1.76.07-.32.27-.72.81-.84l.77-.3-.43-.63c-.91-1.29-2-1.95-3.22-1.95-.69,0-1.42.21-2.19.64-.06.03-.14.07-.19.1-.07.04-.13.08-.21.13-.05.04-.11.07-.15.1-.08.04-.14.1-.2.15-.74.52-1.41,1.45-1.95,2.68-.11-.11-.23-.21-.34-.32l-.06-.06c-.06-.06-.13-.13-.18-.16l-.1-.1s-.01-.02-.02-.03l.07-.23ZM67.98,33c1.92,1.82,3.84,3.72,5.72,5.64-2.47,2.98-4.14,5.13-5.37,7.25-.15.26-.07.59.2.75.26.15.6.06.76-.2,1.19-2.06,2.81-4.13,5.19-7.01.67.69,1.35,1.4,2.01,2.1-.87.81-2.49,2.71-4.82,5.66-.94,1.2-1.8,2.47-2.55,3.8-.14.25-.08.57.16.74-.98,1.21-1.74,2.59-2.2,4.01v.03c-.04.1-.83,2.48-1.19,3.89-.58-.38-1.17-.68-1.75-.88-.13-.05-.25-.09-.36-.13.01-.25.03-.5.05-.75.08-1.21.16-2.47-.19-3.7-.35-1.23-1.02-2.36-1.94-3.27.62-.21,1.27-.32,1.93-.3.42,0,.85.04,1.23-.17.36-.2.65-.6.61-1.02-.01-.14-.08-.27-.17-.37,0-.02,0-.04,0-.05-.16-.4-.34-.81-.53-1.23-1.36-2.89-2.86-5.17-4.6-6.96,2.89-2.94,5.46-5.51,7.83-7.84ZM75.81,54.81c.66.43,1.47.56,2.25.36-.09.29-.14.6-.14.92.01.89.42,2.07,1.54,2.49.31.13.64.16.95.09-.95,1.64-3.01,1.84-3.82,1.86-.02-1.59-.58-2.85-.58-2.85l-.17-.42-.52.11c-1.16.25-3.89.9-5.35,1.76.37-1.21.79-2.29,1.13-2.86.82-1.36,1.97-2.52,3.34-3.34.08-.05.25-.16.47-.27-.05.16-.08.32-.08.48-.01.65.35,1.28.98,1.68ZM74.79,62.99c-.11.16-.23.3-.34.42-1.05,1.1-2.08,1.58-2.77,1.79-.3.09-.59.16-.86.19-.22-.39-.5-.68-.84-.86-.35-.19-.71-.25-1.1-.29.06-.52.15-1.18.31-1.85.03-.06.05-.13.05-.17v-.05s.01-.03.01-.04l.14-.46c.22-.63.5-1.11.81-1.36,1.05-.84,4.1-1.57,4.95-1.76.15.49.31,1.2.33,1.95h-.26s-.01.55-.01.55c0,.52-.1.99-.26,1.42l-.18.51h.02ZM76.4,76.31c0-.07,0-.51.08-2.65.05-1.23-.03-2.23-.23-3.04,2.43.63,4.51,2.34,5.55,4.52-.17-.06-.34-.09-.52-.09-.65.01-1.28.38-1.67.98-.48.76-.58,1.67-.26,2.54-.3-.09-.59-.14-.88-.12-.88,0-2.07.4-2.51,1.53-.12.32-.15.64-.08.95-.84-.49-1.26-1.27-1.44-1.71-.22-.61-.32-1.35-.29-2.13h0c1.05,0,1.79-.15,1.82-.16l.5-.12-.06-.48ZM75.37,73.61l-.02.65c-.03.72-.04,1.27-.05,1.63-.6.07-1.2.09-1.81.04h-.05c-1.35-.11-3.25-.58-4.68-2.18-.07-.08-.13-.15-.19-.24-.78-1.11-.57-2.55-.46-3.08.72-.15,1.38-.44,1.91-.84.48-.36.83-.77,1.04-1.25.02-.04.03-.09.05-.13.27.06.57.11.9.16.77.12,1.82.29,2.2.72.18.2.36.42.53.7-.02.21.08.41.26.52.31.8.43,1.84.38,3.29ZM59.41,78.2c-.37-.24-.78-.38-1.22-.43l.57-.41c.57-.4,1.44-.55,2.43-.69h.04c.59-.1,1.19-.19,1.72-.37.68-.22,1.28-.48,1.8-.79-.2.43-.42.85-.65,1.22-.81,1.37-1.96,2.53-3.33,3.35-.12.08-.29.17-.47.27.05-.15.08-.32.08-.49,0-.65-.37-1.27-.98-1.67ZM57.9,76.36c0,.21,0,.42,0,.49l-.1.91c-.27,0-.54.04-.79.12.1-.3.15-.62.15-.95-.01-.89-.42-2.07-1.54-2.5-.22-.08-.43-.12-.64-.12-.1,0-.21,0-.31.03.87-1.51,2.7-1.8,3.62-1.85-.41,1.5-.4,3.03-.39,3.87ZM62.6,75.26c-.43.14-.95.22-1.5.3l-.11.02c-.67.1-1.36.2-1.98.43,0-.81.03-2.25.45-3.54.2-.07.33-.25.35-.46.01-.11,0-.21-.05-.3.27-.55.61-.98,1.01-1.29.07-.05.13-.1.2-.15.09-.07.17-.13.26-.2.53-.38,1.1-.74,1.71-1.07h0c.55-.3,1.01-.5,1.34-.63.2.9.74,1.59,1.52,1.92.07.56.11,1,.08,1.52l-.02.08c-.05.25-.07.31-.06.34-.04.29-.1.6-.17.89-.49,1.12-1.91,1.79-3.01,2.15ZM59.33,64.42c-1.1-.55-2.24-1.25-3.03-1.72l-.38-.22c-1.36-.82-2.52-1.97-3.34-3.34-.05-.08-.16-.25-.27-.47.81.26,1.67-.13,2.15-.9.32-.48.47-1.04.45-1.61.51.36,1.11.54,1.73.54.89-.01,2.08-.42,2.49-1.54.13-.31.16-.63.09-.95,1.43.84,1.9,2.65,1.85,4.15-.6.06-1.03.2-1.26.29l-.18.09-.09.18c-.06.13-1.5,3.06-.22,5.5ZM60.45,59.61c.19-.06.59-.16,1.16-.17.41-.01.82.03,1.22.12.13.12.34.18.5.12l.08.03c.11.03.22.06.32.11.58.22,1.15.52,1.71.89.03.02.05.04.08.06l.05.04s.05.04.07.06c.02.02.04.04.07.06.06.06.13.13.19.2,1.14,1.22,1.11,2.46.97,3.13-.65.11-1.17.35-1.6.74-.36.33-.64.76-.84,1.25-.51-.06-1.59-.25-2.57-.79-.07-.1-.19-.17-.33-.2-.51-.33-.89-.72-1.15-1.16-1-1.7-.18-3.93.05-4.49ZM65.29,67.75c.02-.08.03-.16.02-.24,0-.02,0-.04,0-.02,0-.16.03-.33.06-.47.11-.5.35-.92.67-1.2.24-.21.55-.36.94-.45.02.01.04.03.07.04.21.09.44.04.61-.12h.17c.14,0,.27,0,.42.01.16,0,.31.02.47.04.31.03.54.06.72.16.22.12.4.34.53.66l.09.26c.1.33.14.66.12.95,0,0,0,0,0,0l-.02.05c-.01.06-.01.12-.01.16-.02.11-.05.23-.1.34-.13.29-.37.57-.7.81-.48.35-1.12.61-1.77.7-.36.05-.72.04-1.07-.04-.05-.03-.11-.04-.17-.05,0,0-.02,0-.04-.01-.82-.28-.99-1.09-1.01-1.56ZM43.61,19.96s-.02-.06-.03-.09c1.22,1.62,2.57,2.41,4.14,2.41.93,0,1.87-.29,2.63-.81.06-.03.11-.07.16-.11.56-.42,1-.91,1.29-1.46,1-1.79.99-4.36-.98-5.61-.92-.57-1.99-.55-2.81.06l-.02.02c-.14.11-.29.24-.42.4-.1-.48-.08-.93.04-1.37l.04-.15s.02-.05.04-.1c.28-.77.9-1.48,1.81-2.06,1.08-.66,2.44-1.06,3.66-1.07.03,0,.05,0,.07,0,3.4,0,6.23,2.02,8.06,3.54,1.49,1.24,2.86,2.91,4.08,4.99-.8-.64-1.59-1.1-2.37-1.41l-.05-.02c-1.62-.65-3.41-.61-5.05.12-1.59.7-2.89,2.02-3.56,3.6-.03.05-.05.1-.07.15v.03c-.66,1.63-.31,3.39.9,4.58.79.77,1.95,1.28,2.94,1.28h.06c.74-.01,1.41-.31,1.89-.83.69-.75.91-1.96.52-2.96-.22-.57-.6-.99-1.1-1.23.89-1.27,2.08-1.56,3.65-.86l.06.03s.05.02.07.03c.02,0,.03.01.04.02l.35.18c1.08.58,1.88,2.06,2.16,2.61-4.33,4.28-8.57,8.6-12.52,12.63-.57-.21-1.17-.4-1.83-.59-1.19-.34-2.43-.61-3.53-.84l-.08-.02c-2.3-.5-4.67-1.02-6.78-2.1-1.75-.91-3.42-3.26-3.88-5.48-.08-.4-.12-.77-.13-1.12.27.34.62.6,1.03.76,1.01.4,2.41.19,3.55-.54,2.23-1.44,2.68-4.47,1.96-6.59ZM67.07,21.92l.06.13c.05.11.08.18.1.24l.05.11c-.11.11-.23.22-.34.33-.1.1-.2.19-.29.29-.38-.71-1.24-2.1-2.44-2.77h-.01s-.09-.05-.13-.07l-.46-.23c-2.33-1.03-4.21-.38-5.42,1.89l-.44.87h.88c.44.04.75.29.94.74.23.6.1,1.36-.3,1.81-.28.3-.66.46-1.1.47-.72.02-1.59-.36-2.19-.95-.89-.88-1.14-2.17-.67-3.38.02-.04.04-.1.06-.15.57-1.33,1.66-2.44,3-3.03.72-.32,1.48-.48,2.23-.48.67,0,1.34.13,1.97.39h.02c1.43.59,2.84,1.71,4.3,3.42v.36h.19ZM60.49,8.44s.03.03.04.04c-1.36-.99-2.54-1.59-3.22-1.9,1.2.43,2.28,1.06,3.18,1.86ZM42.96,12.9c.82-3.44,3.72-5.97,7.76-6.77.84-.17,1.68-.25,2.51-.25,1.12,0,2.23.15,3.26.44-.2.03-.39.17-.46.37-.09.29.06.61.35.71.07.02,7.17,2.61,10.04,10.77-1.02-1.76-2.5-3.87-4.44-5.47-1.96-1.63-5-3.8-8.77-3.8-.03,0-.05,0-.08,0-1.41.01-2.99.47-4.23,1.24-1.12.7-1.9,1.6-2.25,2.59-.03.04-.04.09-.05.12l-.04.12s-.02.08-.03.11c0,.01,0,.03-.01.04-.16.65-.17,1.31,0,2.02.1.4.24.79.36,1.15l.11.3c.08.23.28.39.53.39.1,0,.17-.02.26-.06h0s.05-.04.05-.04c.2-.13.29-.37.22-.59,0-.03,0-.06,0-.09,0-.28.25-.68.63-.98.45-.33,1.02-.33,1.56,0,1.39.88,1.35,2.78.6,4.12-.23.42-.56.8-.99,1.11-.03.02-.07.05-.11.08-.59.4-1.31.62-2.04.63-1.32,0-2.45-.77-3.56-2.44-.06-.08-.11-.16-.16-.24l-.93-1.92c-.17-.51-.26-1.01-.28-1.49-.05-.71.02-1.45.2-2.18ZM37.11,35.25c-3.58-3.19-5.2-6.44-4.95-9.93.41-5.53,3.63-7.74,5.69-7.87,2.24-.14,4.05.96,4.69,2.85.58,1.73.25,4.17-1.51,5.3-.83.54-1.85.72-2.54.44-.45-.17-.74-.54-.87-1.08-.11-.44-.06-.59.18-.95.01-.01.03-.03.05-.06.07-.07.11-.15.12-.21.09-.23.02-.5-.18-.65-.12-.09-.27-.12-.41-.1-.15.02-.28.1-.36.23l-.1.13c-.89,1.11-1.17,2.6-.81,4.31.53,2.56,2.4,5.19,4.46,6.25,2.23,1.15,4.68,1.69,7.05,2.2l.08.02c1.24.27,2.36.52,3.46.83.79.22,1.47.44,2.08.68,2.3.86,4.13,2,5.75,3.59,1.63,1.59,3.06,3.62,4.35,6.2-.55-.91-1.17-1.79-1.89-2.62-.2-.23-.55-.25-.79-.05-.23.2-.25.56-.05.78,1.09,1.26,1.96,2.64,2.64,4.1-.04,0-.08,0-.11,0-.41.02-.82.09-1.22.19-.59-.92-1.29-1.75-2.1-2.45-1.38-1.23-2.71-2.22-4.05-3.05-2.34-1.44-4.31-2.09-5.89-2.6-.34-.11-.67-.22-1-.33-.37-.13-.7-.25-1-.37l-.05-.02c-1.9-.76-7.68-3.06-10.72-5.76ZM42.85,58.18c.38.99,1.33,2.79,3.55,4.9,1.44,1.36,2.5,1.95,3.73,2.39-.01.02-.02.04-.03.07l-.13-.05c-3.23-1.34-4.26-2.45-5.7-4.48-.09-.12-.22-.2-.37-.22-.15-.02-.29.01-.4.1-.12.08-.2.21-.23.36-.02.15,0,.29.1.41,1.61,2.28,2.82,3.46,6.12,4.84-.07.09-.13.19-.2.28,0,.01-.01.02-.02.02,0,0,0,0,0,0-.02.03-.05.06-.08.09-.06.07-.13.14-.2.2-.06.06.02,0-.03.02-.03.02-.06.04-.1.06-.03.02-.06.03-.08.04-.01,0-.03.01-.06.02,0,0-.01,0-.03,0,0,0-.06,0-.07,0,0,0-.02,0-.03,0-.09-.04-.19-.1-.28-.14-.09-.09-.2-.15-.33-.17-2.92-1.47-5.64-3.46-8.11-5.94.98-.92,1.95-1.85,2.96-2.82ZM19.78,61.17l-.03-.05c-.67-1.22-.83-2.66-.44-4.05l.03-.11c.43-1.42,1.36-2.6,2.6-3.33l.17-.11c1.14-.62,2.46-.53,3.42.24.66.53,1.16,1.36,1.23,2.06.04.45-.08.84-.34,1.15-.38.46-1.12.68-1.75.53-.32-.08-.73-.29-.86-.85l-.17-.83-.75.52c-2.03,1.43-2.48,3.3-1.32,5.4.04.07.08.14.11.19.04.07.08.13.12.18.04.08.09.15.11.18.03.05.06.09.09.13l.05.07c.63.87,1.69,1.49,2.53,1.88l-.35.31c-.14.13-.28.26-.43.39h0s-.01,0-.01,0l-.08-.05h0c-1.92-1.26-3.17-2.49-3.95-3.86ZM23.36,67.41h.11c.21.22.42.44.64.65-.69.45-1.56,1.14-2.05,2.02-.03.05-.06.11-.09.16l-.14.28c-.03.06-.06.12-.08.18-.03.06-.07.14-.07.19-.91,2.23-.23,4.03,1.98,5.21l.86.39v-.84c.05-.55.43-.81.74-.93.6-.23,1.36-.1,1.8.31.31.29.47.65.48,1.1.02.71-.37,1.59-.96,2.2-.86.88-2.15,1.14-3.37.66-.04-.02-.09-.04-.15-.07-1.33-.57-2.44-1.66-3.03-3-.61-1.36-.65-2.84-.11-4.16,0-.02.01-.03.02-.06.59-1.44,1.71-2.85,3.42-4.3ZM18.92,71.29l-.02.05c-.65,1.62-.61,3.41.12,5.05.7,1.59,2.02,2.89,3.6,3.56.07.03.12.05.18.07.53.21,1.08.32,1.64.32,1.11,0,2.16-.44,2.94-1.23.8-.83,1.3-2,1.28-3-.02-.74-.31-1.4-.83-1.89-.74-.69-1.96-.9-2.96-.52-.56.22-.99.6-1.24,1.1-1.24-.87-1.52-1.99-.91-3.52,0-.03.02-.07.04-.11l.02-.05s.02-.05.03-.08l.13-.25s.03-.06.05-.09c.01-.02.02-.05.04-.07.41-.73,1.23-1.35,1.87-1.75,3.8,3.88,7.37,7.68,11.24,11.95-.36.85-.7,1.82-1.02,2.95-.34,1.18-.61,2.43-.84,3.53v.05c-.51,2.31-1.03,4.7-2.12,6.81-.91,1.75-3.26,3.42-5.48,3.88-.41.08-.78.12-1.12.12.34-.26.6-.61.76-1.03.4-1.01.19-2.41-.54-3.55-1.08-1.69-2.96-2.27-4.58-2.27-.16,0-.31,0-.46.02.14-.08.28-.17.41-.26,1.98-1.32,2.94-2.79,2.93-4.5,0-1-.33-2-.94-2.82l-.03-.05s-.06-.08-.09-.1c-.38-.47-.82-.85-1.32-1.12-1.79-1-4.37-1-5.61.98-.54.87-.56,1.87-.04,2.69l.06.09.05.06c.12.16.26.3.4.42-.52.1-1.02.08-1.48-.07-.86-.26-1.62-.91-2.25-1.94-.62-1.04-1-2.37-1.01-3.56-.04-3.42,2-6.28,3.54-8.14,1.22-1.47,2.89-2.84,4.98-4.08-.63.8-1.1,1.58-1.41,2.37ZM9.89,60.3c-.9-.79-1.66-1.78-2.24-2.91.38.62,1.1,1.7,2.24,2.92,0,0,0,0,0,0ZM8.34,56.35h0c-.1-.2-.29-.31-.5-.31-.08,0-.17.02-.25.06-.13.06-.23.18-.28.32-.02.05-.03.11-.03.17-.71-1.72-1.04-3.69-.9-5.68.3-4.12,2.45-7.32,5.76-8.55.7-.26,1.43-.42,2.14-.47,1.02-.06,2.14.16,3.31.69.18.07.34.16.49.24,1.78.89,2.69,1.92,2.85,3.24.08.7-.05,1.45-.39,2.11l-.05.1c-.24.44-.58.83-.97,1.12-1.24.91-3.13,1.18-4.17-.09-.38-.47-.46-1.01-.23-1.48l.05-.1c.19-.32.55-.68.87-.72h.01s.04,0,.08,0c.24.02.46-.1.57-.31,0-.01,0-.01,0-.01h0s.03-.04.03-.04v-.03c.02-.06.03-.11.03-.17,0-.03,0-.05-.01-.06v-.08c-.08-.23-.26-.38-.46-.4-.1-.03-.21-.05-.31-.07-.46-.11-.83-.18-1.19-.22-.68-.07-1.34,0-1.94.24h-.24l-.06.13s-.06.03-.1.05c-.02,0-.03.02-.08.04l-.08.05c-.89.5-1.64,1.34-2.15,2.44l-.05.08c-.6,1.32-.86,2.94-.7,4.33.43,3.77,2.98,6.55,4.87,8.32,1.82,1.72,4.1,2.94,5.98,3.74-8.42-1.83-11.9-8.58-11.94-8.65ZM10.24,73.79s.05-.05.07-.08c-1.03,1.41-1.65,2.64-1.96,3.31.43-1.22,1.07-2.33,1.89-3.24ZM16.88,91.52h0c-.71.05-1.45-.02-2.18-.2-3.44-.82-5.98-3.72-6.78-7.77-.39-1.97-.3-3.97.2-5.77.03.21.17.39.38.47.06.02.12.02.17.02.24,0,.44-.15.52-.37.11-.31,2.75-7.22,10.78-10.04-1.76,1.02-3.85,2.5-5.46,4.44-1.65,1.98-3.84,5.06-3.8,8.85.01,1.4.44,2.9,1.18,4.12.75,1.25,1.74,2.1,2.87,2.44.37.12.76.18,1.19.18.36,0,.69-.04,1.02-.11.35-.09.69-.2,1.02-.32l.4-.14c.24-.06.41-.29.41-.54,0-.04,0-.08-.01-.14-.06-.24-.28-.42-.53-.42-.06,0-.1,0-.18.02-.01,0-.03,0-.06,0-.33,0-.74-.31-.97-.61l-.05-.08h0c-.28-.45-.26-.99.05-1.49.88-1.39,2.78-1.34,4.12-.6.39.22.72.5.99.83l.09.12c.47.63.73,1.4.73,2.17,0,1.33-.76,2.47-2.42,3.58-.07.05-.15.1-.23.15-.08.05-.16.1-.23.15-1.09.66-2.17,1.02-3.2,1.08ZM40.96,85.36l-.1.31c-.18.54-.38,1.12-.6,1.68-.75,1.91-3.05,7.71-5.78,10.77-3.2,3.59-6.45,5.21-9.93,4.95-4.95-.36-7.71-3.14-7.88-5.69-.15-2.25.95-4.05,2.86-4.69.51-.17,1.08-.26,1.66-.26,1.39,0,2.84.53,3.64,1.78.54.83.72,1.85.44,2.54-.17.45-.54.74-1.08.87-.44.11-.59.06-.95-.18l-.06-.06c-.07-.05-.13-.09-.19-.11-.24-.11-.52-.02-.67.19-.18.24-.12.59.14.78l.12.08c1.11.89,2.6,1.17,4.31.81,2.56-.53,5.19-2.41,6.25-4.47,1.16-2.26,1.7-4.73,2.22-7.12l.06-.29c.23-1.05.46-2.14.76-3.18.32-1.14.68-2.17,1.1-3.13.98-2.22,2.3-4.01,4.15-5.63.18-.17.38-.32.58-.49l.04-.04c1.49-1.2,3.26-2.28,5.42-3.29.03-.01.05-.03.07-.05.3.04.59.1.88.2.11.04.22.09.33.14-2.01.8-3.81,1.91-5.34,3.3-.5.44-.99.93-1.49,1.5-.1.11-.15.25-.14.4,0,.15.08.29.19.39.1.09.23.14.36.14.17,0,.32-.07.41-.19,1.56-1.77,3.43-3.17,5.56-4.14h0c.15-.07.3-.13.46-.2,0,0,0,.02-.01.03-.12.27-.24.53-.36.8-.08.02-.15.05-.22.1-.08.07-.15.13-.23.2-.09.07-.17.15-.26.22-.39.33-.75.7-1.08,1.08-.95,1.07-1.74,2.08-2.43,3.08-1.88,2.75-2.59,4.93-3.23,6.86ZM49.41,83.33l-.34-.38c-1.18-1.33-2.4-2.71-3.72-4.19.61-.86,1.31-1.74,2.08-2.62.31-.35.64-.68.99-.99.04-.03.08-.07.12-.1.19.02.4-.06.49-.24.23-.51.47-1.03.7-1.54.22-.49.58-1.06.39-1.61-.18-.53-.79-.76-1.27-.94-.51-.19-1.05-.3-1.6-.34-.13,0-.25.05-.34.14-2.3,1.09-4.21,2.26-5.8,3.59-2.46-2.66-4.85-5.15-7.28-7.62,1.62-1.43,3.34-2.99,5.23-4.75,2.76,2.79,5.81,4.98,9.08,6.51.06.02.14.05.22.05s.16-.03.23-.07c.02,0,.04,0,.07,0,.47-.04.88-.27,1.19-.62.31-.34.56-.75.82-1.13.26-.39.5-.8.69-1.23.1-.24.08-.55-.18-.68-.11-.06-.25-.08-.38-.05-.08-.02-.16-.05-.24-.08-1.09-.38-2.04-.88-3.41-2.17-2.54-2.4-3.26-4.31-3.44-4.94,4.06-3.93,7.92-7.84,11.84-11.83,1.14.74,2.3,1.62,3.52,2.7.66.58,1.25,1.25,1.76,2,0,0,0,0,0,0-1.96-1.35-4.33-1.2-6.01.42-.88.85-1.36,1.91-1.33,2.95-.72-.54-1.59-.77-2.42-.63-1.76.29-3.04,1.82-3.24,3.9-.28,2.74.67,5.02,2.9,6.96,2.19,1.89,5.65,3.48,10.57,4.86-.17.11-.34.23-.5.34h-.1c-1.62,0-4.49.47-6.05.92-2.08.59-3.72,2-4.51,3.86-.12.26-.2.52-.25.78-.34,1.49.09,3.01,1.2,4.16.83.86,1.83,1.33,2.83,1.33.29,0,.59-.03.86-.11-.21.53-.28,1.08-.19,1.62.29,1.76,1.82,3.04,3.9,3.25.24.02.47.03.71.03,2,0,4-.87,5.7-2.47-.57,1.42-1.37,2.6-2.47,3.68-3.54,3.48-5.12,4.78-5.77,5.26-2.38-2.5-4.6-5-7.25-8ZM59.75,124.32c-.78.89-1.76,1.64-2.87,2.21.62-.38,1.69-1.11,2.87-2.22,0,0,0,0,0,0ZM55.8,125.88h0c-.27.14-.37.46-.24.75.1.18.28.3.48.31-1.72.71-3.69,1.03-5.68.89-4.11-.29-7.31-2.43-8.55-5.75-.27-.71-.42-1.44-.46-2.16-.08-1.01.15-2.12.68-3.3.08-.16.16-.32.24-.49.89-1.79,1.92-2.7,3.24-2.85.14-.02.27-.02.41-.02.59,0,1.2.15,1.75.43l.05.03c.45.25.82.58,1.11.97.91,1.24,1.18,3.13-.09,4.17-.45.37-1,.46-1.46.23-.01,0-.03-.01-.05-.02l-.05-.04c-.33-.19-.69-.56-.73-.84v-.03s0-.06,0-.08c.02-.16-.02-.32-.13-.44v-.08h-.1c-.21-.18-.59-.13-.77.09l-.11.12v.15s-.06.27-.06.27c-.09.38-.18.79-.22,1.19-.08.71,0,1.39.26,2.03l.05.12s.04.08.05.11c.01.03.03.05.04.08l.07.14.03.04c.5.88,1.34,1.62,2.47,2.15h.02c1.03.49,2.3.76,3.5.76.33,0,.6-.01.83-.04,3.77-.43,6.56-2.99,8.33-4.87,1.72-1.83,2.94-4.1,3.73-5.97-1.85,8.42-8.58,11.89-8.65,11.93ZM64.48,110.49c-1.28,1.94-2.52,3.2-3.9,3.97l-.08.05c-1.21.64-2.62.78-3.97.4l-.11-.03c-1.47-.45-2.72-1.47-3.43-2.78-.62-1.14-.53-2.45.24-3.43.52-.66,1.35-1.15,2.06-1.22.06,0,.12,0,.18,0,.36,0,.68.12.97.35.46.38.68,1.12.52,1.75-.12.46-.39.75-.81.85l-.87.15.52.77c1.44,2.03,3.31,2.48,5.4,1.32.07-.04.14-.08.19-.11.04-.02.07-.04.1-.06.03-.02.06-.04.1-.06l.05-.04s.07-.05.13-.08c.03-.02.05-.04.08-.06.04-.03.07-.05.1-.07.86-.62,1.46-1.63,1.82-2.42.23.19.46.39.69.58v.18ZM65.81,99.92c-1.59-1.33-3.08-2.65-4.56-4.03,2.66-2.83,5.3-7.48,6.81-10.99.21.56.44,1.11.7,1.65,1.24,2.65,2.62,4.8,4.22,6.56l-7.17,6.8ZM82.91,118.11c.93.58,2,.56,2.82-.05l.02-.02c.14-.1.29-.24.43-.4.09.48.07.94-.04,1.36,0,.03-.01.05-.03.1l-.02.08s-.02.06-.03.09c-.29.78-.92,1.5-1.82,2.06-1.07.66-2.43,1.06-3.65,1.07-.04,0-.08,0-.12,0-3.36,0-6.18-2.02-8.02-3.54-1.47-1.22-2.84-2.89-4.08-4.98.78.61,1.58,1.08,2.37,1.41l.05.02c.75.3,1.55.46,2.37.46.9,0,1.83-.2,2.68-.58,1.61-.72,2.88-2,3.56-3.6.02-.04.04-.08.05-.13l.03-.05c.64-1.63.29-3.38-.92-4.57-.79-.78-1.94-1.28-2.94-1.28-.02,0-.04,0-.06,0-.74.02-1.4.31-1.89.83-.69.74-.9,1.96-.52,2.96.21.57.59.99,1.09,1.23-.89,1.27-2.08,1.55-3.65.86l-.25-.12s-.06-.03-.1-.05l-.18-.09c-1.05-.58-1.82-1.98-2.05-2.41l11.69-11.07c.67.26,1.42.5,2.34.76,1.18.34,2.43.6,3.53.84l.1.02c2.29.5,4.67,1.02,6.76,2.1,1.76.91,3.43,3.26,3.88,5.48.08.4.12.77.13,1.12-.27-.34-.62-.6-1.03-.76-1.01-.4-2.41-.19-3.55.54-1.29.84-2.12,2.35-2.26,4.07-1.07-1.17-2.24-1.74-3.59-1.74-.93,0-1.86.29-2.65.82-.04.03-.09.05-.14.09-.53.38-.97.89-1.3,1.46-.99,1.79-.98,4.37.98,5.6ZM66.73,110.61c-.09-.21-.15-.34-.19-.42l.66-.62c.37.66,1.2,1.96,2.36,2.59.03.01.06.03.09.05.03.02.07.04.09.05.06.03.12.07.17.08l.23.11c2.33,1.03,4.21.38,5.41-1.89l.44-.87h-.87c-.56-.05-.82-.43-.94-.74-.23-.61-.11-1.37.29-1.81.28-.3.66-.46,1.1-.47.02,0,.04,0,.05,0,.71,0,1.56.38,2.15.95.88.87,1.14,2.16.66,3.37l-.03.08s-.02.05-.03.07c-.57,1.33-1.66,2.44-3.01,3.04-1.36.61-2.84.65-4.16.11l-.05-.02c-1.42-.58-2.83-1.7-4.3-3.42v-.19l-.14-.05ZM73.24,123.97s-.03-.03-.05-.04c1.36.99,2.54,1.59,3.23,1.9-1.2-.43-2.28-1.06-3.18-1.86ZM90.79,119.52c-.82,3.44-3.72,5.97-7.76,6.77-1.97.39-3.98.31-5.78-.19.21-.03.39-.17.45-.37.1-.28-.05-.61-.34-.71-.02,0-2-.7-4.33-2.61-1.88-1.53-4.31-4.15-5.72-8.17,1.02,1.76,2.5,3.86,4.44,5.47,1.97,1.63,5.03,3.8,8.76,3.8h.1c1.41,0,2.99-.47,4.23-1.24,1.12-.71,1.91-1.62,2.28-2.64,0-.03.02-.07.03-.1l.04-.12s.01-.04.02-.06c0-.03.02-.05.02-.07.17-.64.17-1.32,0-2.02-.09-.42-.24-.83-.37-1.17l-.09-.25c-.06-.24-.29-.41-.54-.41-.12,0-.22.03-.31.09-.16.1-.25.27-.25.46v.07l.02.09s0,.02,0,.04c0,.01,0,.02,0,.04,0,.32-.33.73-.64.98-.44.33-1.02.33-1.55,0-1.39-.88-1.35-2.78-.61-4.12.25-.44.59-.82.99-1.1l.04-.03s.04-.03.07-.05c.6-.4,1.32-.62,2.04-.63,1.33,0,2.46.77,3.57,2.44.05.07.1.15.14.23l.03.05s.02.07.03.09c.03.12.06.24.11.36.19.55.44,1.04.76,1.45.01.02.03.04.04.06.15.47.24.95.26,1.42.04.71-.03,1.45-.2,2.18ZM85.63,93.32c1.9.75,7.69,3.05,10.77,5.78,3.58,3.19,5.2,6.44,4.95,9.93-.36,4.95-3.13,7.71-5.68,7.87-1.66.11-3.13-.48-4.05-1.63,0,0-.02-.03-.05-.07-.25-.33-.46-.72-.61-1.16-.01-.04-.02-.08-.04-.11-.02-.06-.04-.13-.06-.2v-.03s-.02-.05-.03-.09c-.38-1.59-.03-3.8,1.64-4.88.57-.37,1.23-.57,1.81-.57.27,0,.52.04.73.13.44.17.73.54.87,1.09.1.43.05.59-.18.94-.02.02-.03.03-.05.06-.07.07-.1.15-.12.21-.09.25-.01.51.19.64.2.17.59.14.78-.12l.09-.12c.64-.8.97-1.78.97-2.92,0-.44-.05-.91-.15-1.4-.53-2.56-2.41-5.19-4.47-6.25-2.26-1.16-4.74-1.7-7.13-2.22-1.12-.23-2.31-.49-3.45-.82-.96-.27-1.78-.55-2.57-.87-2.23-.91-4.02-2.11-5.64-3.78-1.67-1.73-3.1-3.91-4.39-6.67-.4-.86-.73-1.72-1-2.58l-.03-.06s-.03-.09-.04-.13c-.01-.04-.02-.08-.04-.12,0-.04-.02-.08-.02-.09l-.19-.67c-.04-.14-.13-.26-.26-.34-.13-.08-.28-.1-.42-.06-.13.03-.25.11-.33.23h-.21l.23.79c.02.08.04.16.07.24-1.4,3.59-4.35,8.92-7.11,11.85-.64-.61-1.97-1.96-3-3.01.81-.61,2.46-2.02,5.77-5.26,1.29-1.25,2.22-2.69,2.85-4.42.31-.81.52-1.62.66-2.24.51-.77.92-1.57,1.23-2.39.05.39.12.83.24,1.32.03.14.06.28.1.41.07.3.18.86.29,1.49.22,1.19.47,2.53.71,3.16.1.29.25.65.39,1.01,1.17,2.75,2.76,5.06,4.76,6.86.26.2.58.17.78-.05.21-.22.19-.57-.04-.78-1.87-1.68-3.38-3.86-4.48-6.46l-.1-.24c-.11-.26-.21-.51-.28-.72-.18-.49-.4-1.63-.59-2.64l-.13-.71c-.09-.48-.17-.9-.23-1.16-.02-.07-.03-.14-.05-.21-.02-.07-.03-.13-.05-.2-.28-1.23-.47-2.5-.56-3.65.12.1.25.2.38.29l.05.04c.25,2.4,1.17,8.15,4.28,11.13.1.1.2.19.3.27,1.29,1.14,2.5,2.07,3.69,2.83v.06h.09c2.47,1.57,4.51,2.23,6.15,2.76.12.04.25.08.37.12.13.04.25.09.38.13.45.14.87.29,1.25.45ZM77.68,88.67c-1.07-.71-2.14-1.53-3.25-2.52l-.27-.24c-1.97-1.9-3.3-5.22-3.85-9.64.32.15.66.28,1.01.4-.01.35-.03.68-.06,1v.03c-.07.96-.14,1.87.11,2.92.02.1.05.22.08.32.36,1.3,1.08,2.47,2.06,3.4,1.05.98,2.27,1.49,3.53,1.49s2.3-.46,3.21-1.33c1.15-1.1,1.59-2.54,1.18-3.81.37.13.73.2,1.07.2.18,0,.33-.01.47-.04,1.76-.29,3.04-1.82,3.24-3.9.17-1.72-.33-3.6-1.42-5.29-.08-.12-.17-.24-.25-.37.29.31.64.57.99.82.61.43,1.26.81,1.92,1.15.77.8,1.44,1.94,2.34,3.91l-12.12,11.49ZM90.66,76.38c-1.64-3.55-2.74-4.57-4.96-5.62-.11-.06-.23-.06-.35-.04-.06-.06-.11-.14-.15-.21,1.43.42,3.12,1.63,4.08,2.95.11.15.27.23.45.23.11,0,.21-.03.32-.1.12-.09.2-.22.22-.37.02-.14-.01-.29-.1-.4-1.07-1.48-2.9-2.8-4.54-3.33.05-.03.1-.06.15-.09.47-.35.9-.74,1.3-1.17,2.97,1.01,5.04,2.61,6.7,5.19l-3.12,2.97ZM94.6,72.63c-1.8-2.71-4.03-4.4-7.21-5.47-.14-.05-.29-.04-.43.02-.03.01-.05.04-.08.06-.13-.02-.28.01-.4.15-.47.53-.99,1-1.58,1.39-.29.2-.59.38-.74.72-.16.34-.17.74-.05,1.09.04.12.11.23.17.34-.09-.12-.18-.24-.28-.36-2.23-2.66-5.89-4.46-10.34-5.09.56-.35,1.09-.79,1.58-1.3.28-.3.51-.61.69-.95.26.01.53.03.79.05l.3.02c.42.03.85.05,1.28.05.82,0,1.49-.08,2.11-.27,1.28-.36,2.46-1.07,3.4-2.06.12-.13.23-.26.35-.41,1.59-2.01,1.51-4.55-.19-6.32-1.02-1.06-2.32-1.52-3.54-1.26.21-.53.27-1.08.19-1.59-.29-1.76-1.82-3.04-3.9-3.24-2.41-.24-4.36.75-5.71,1.82.51-.78,1.02-1.49,1.52-2.12,2.91-3.69,4.17-5.05,4.7-5.54,4.6,4.91,8.64,9.62,12.07,13.66-.61.86-1.31,1.74-2.06,2.6-.13.14-.27.29-.44.46l-.09.09c-.1.1-.2.19-.32.28l-.03.03c-.42.36-.87.68-1.38.98-.03.02-.07.05-.11.09-.17.19-.2.45-.08.67,0,.01.02.02.02.03,0,.03.01.05.02.08.15.33.37.61.59.88.23.28.47.55.7.83.21.25.46.54.75.74,0,.08.01.15.05.23.09.19.29.31.5.31.09,0,.17-.02.23-.05,2.26-1.05,4.13-2.19,5.7-3.48,2.25,2.63,4.57,5.27,6.42,6.94l-5.18,4.91ZM110.4,86c-.55.8-.84,1.78-.83,2.76.02.75.23,1.47.62,2.14-.37-.1-.77-.15-1.19-.15-1.94,0-3.57.88-4.47,2.4-.84,1.42-.9,3.16-.16,4.75-.88-.79-1.64-1.79-2.17-2.86-1.57-3.09-2.8-14.29-2.96-15.86l8.77-8.31c.56.29,1.74.99,2.27,1.91.01.02.02.04.04.07.02.03.03.06.05.1.04.06.06.12.09.19l.02.03s.04.06.06.11c.73,1.57.48,2.77-.78,3.68-.25-.5-.69-.87-1.25-1.07-1-.36-2.22-.12-2.95.59-.51.49-.79,1.15-.8,1.9,0,1.02.53,2.18,1.35,2.97.78.76,1.8,1.18,2.87,1.18.58,0,1.16-.12,1.72-.35l.15-.07c1.58-.7,2.87-2.03,3.54-3.64.71-1.67.72-3.46.03-5.05l-.03-.08-.02-.04c-.34-.76-.82-1.53-1.44-2.28,2.12,1.2,3.82,2.53,5.06,3.98,1.58,1.83,3.68,4.65,3.72,8.06.02,1.19-.34,2.54-.96,3.6l-.03.05c-.39.67-1.07,1.54-2.11,1.91-.04,0-.08.02-.08.02l-.16.04c-.39.11-.83.12-1.29.05.13-.13.27-.27.41-.46l.04-.06s.02-.04.03-.05l.02-.03c.49-.82.45-1.82-.11-2.67-1.28-1.95-3.85-1.9-5.62-.86-.53.31-.98.72-1.34,1.2-.04.05-.08.1-.12.18ZM125.29,79.82c.03-.06.04-.12.05-.18.53,1.79.66,3.78.31,5.75-.7,4.06-3.17,7.02-6.6,7.92-.74.19-1.47.28-2.18.25-1.04-.04-2.12-.38-3.22-1.02-.08-.04-.16-.09-.23-.14-.08-.05-.16-.1-.23-.14-.32-.2-.63-.43-.95-.69l-.03-.02c-.11-.09-.2-.17-.3-.27-.8-.77-1.2-1.61-1.22-2.54,0-.74.22-1.5.64-2.11.01-.02.03-.04.04-.06.01-.02.03-.05.05-.07.28-.37.62-.68,1.01-.92.6-.35,1.31-.56,2-.56.84,0,1.64.31,2.14,1.07.32.49.36,1.04.08,1.49-.01.02-.02.03-.03.04l-.02.04c-.17.22-.39.42-.61.53v-.69l-.92.91s-.03.03-.04.05c0,0-.02.01-.03.02l-.04.04v.02c-.06.09-.09.19-.09.29,0,.03,0,.05,0,.06v.35l.3.1.33.2.07-.07c.35.12.75.25,1.16.34.62.14,1.32.14,1.99-.04h.17l.1-.09c1.06-.36,2-1.18,2.7-2.36l.05-.08c.71-1.23,1.13-2.79,1.11-4.17-.04-3.78-2.3-6.82-3.99-8.77-1.38-1.6-3.24-3.05-5.55-4.32,8.22,2.71,10.95,9.74,10.98,9.82.09.21.29.36.52.36.04,0,.13,0,.19-.04.14-.05.25-.15.32-.28ZM123.1,75.67s.02.02.02.03c.83.88,1.49,1.97,1.95,3.17-.31-.65-.94-1.84-1.97-3.2ZM66.76,53.18h.01s.09.03.15.03c.24,0,.45-.16.53-.4.37-1.27.92-2.54,1.66-3.88,1-1.79,2.25-3.48,3.45-5.04.09-.12.13-.26.11-.41-.02-.15-.1-.28-.21-.36-.11-.09-.25-.13-.39-.12-.15.02-.29.09-.39.22-1.21,1.58-2.48,3.29-3.54,5.18-.77,1.39-1.34,2.73-1.76,4.12-.08.29.09.59.37.68ZM67.23,82.48c-.05-.17-.19-.3-.37-.35-.29-.08-.59.07-.69.37-.29.99-.77,2.01-1.41,3.04-1.26,1.99-2.93,3.74-4.54,5.44l-.06.07c-.1.11-.16.24-.16.39,0,.15.06.29.17.39.1.1.24.16.39.16s.29-.06.41-.18l.05-.06c1.66-1.74,3.37-3.53,4.68-5.62.69-1.1,1.21-2.21,1.53-3.3.04-.13.02-.25,0-.33h0Z"/>
</svg>