<?xml version="1.0" encoding="UTF-8"?>
<svg id="Layer_1" xmlns="http://www.w3.org/2000/svg" version="1.1" viewBox="0 0 705.73 131.73">
  <!-- Generator: Adobe Illustrator 30.2.1, SVG Export Plug-In . SVG Version: 2.1.1 Build 1)  -->
  <defs>
    <style>
      .st0 {
        fill: #273a80;
      }
    </style>
  </defs>
  <path class="st0" d="M222.21,61.45c1.2,0,2.24-.44,3.11-1.31s1.31-1.94,1.31-3.2-.44-2.24-1.31-3.11c-.87-.87-1.91-1.31-3.11-1.31-1.26,0-2.33.44-3.2,1.31s-1.31,1.91-1.31,3.11c0,1.26.44,2.33,1.31,3.2.87.87,1.94,1.31,3.2,1.31ZM340.17,68.31c-.24,0-.47.15-.68.45-.21.3-.33.68-.36,1.13-.03.45-.21,1.75-.54,3.88-.33,2.14-.84,4.65-1.53,7.54-.69,2.89-1.62,5.73-2.8,8.53-1.17,2.8-2.59,5.14-4.24,7.04-1.66,1.9-3.63,2.84-5.91,2.84-1.93,0-3.31-1.31-4.15-3.93-.84-2.62-1.26-5.73-1.26-9.34,0-2.05.12-4.15.36-6.32,4.45-1.14,7.66-3.02,9.61-5.64,1.96-2.62,2.93-5.22,2.93-7.81,0-2.23-.59-4.14-1.76-5.73-1.17-1.59-2.81-2.39-4.92-2.39-3.43,0-6.44,1.39-9.03,4.15-2.59,2.77-4.6,6.23-6.05,10.38-1.4,4.03-2.11,8.12-2.15,12.26-.34.93-.69,1.87-1.06,2.81-1.23,3.07-2.62,5.67-4.15,7.81-1.53,2.14-3.15,3.21-4.83,3.21-.84,0-1.41-.35-1.72-1.04-.3-.69-.45-1.61-.45-2.75,0-2.35.36-5.38,1.08-9.12,1.02-5.72,1.53-10.02,1.53-12.91s-.53-5.34-1.58-7.36c-1.05-2.02-3.05-3.02-6-3.02-3.97,0-7.39,1.46-10.25,4.38-2.86,2.92-5.13,6.45-6.81,10.61.54-6.5,1.41-12.8,2.62-18.91,1.2-6.11,2.56-10.85,4.06-14.22.3-.66.45-1.26.45-1.81,0-1.02-.39-1.81-1.17-2.35-.78-.54-1.69-.81-2.71-.81s-2.08.29-3.16.86c-1.08.57-1.99,1.46-2.71,2.66-2.65,4.64-4.96,10.76-6.95,18.37-1.39,5.32-2.28,10.55-2.7,15.68-.25,1.2-.54,2.49-.88,3.86-.72,2.89-1.66,5.73-2.8,8.53-1.14,2.8-2.56,5.14-4.24,7.04-1.69,1.9-3.67,2.84-5.96,2.84-1.93,0-3.3-1.32-4.11-3.97-.81-2.65-1.22-5.75-1.22-9.3s.32-7,.95-10.52c.63-3.52,1.5-6.47,2.62-8.85,1.11-2.38,2.39-3.57,3.84-3.57.72,0,1.4.32,2.03.95s.95,1.46.95,2.48c0,.66-.18,1.39-.54,2.17l-.09.27c0,.24.12.44.36.59.24.15.48.23.72.23.54,0,.99-.27,1.35-.81.6-1.2.9-2.41.9-3.61,0-1.87-.62-3.53-1.85-5.01-1.23-1.47-2.93-2.21-5.1-2.21-3.43,0-6.44,1.39-9.03,4.15-1.6,1.72-2.96,3.73-4.13,5.98-.1.15-.19.32-.26.5-.61,1.23-1.18,2.51-1.66,3.9-1.44,4.15-2.17,8.37-2.17,12.64,0,1.01.06,1.98.16,2.95-.13.46-.25.93-.38,1.38-1.66,5.66-3.24,8.48-4.74,8.48-2.11,0-3.16-4.09-3.16-12.28,0-3.79.18-7.51.54-11.15.36-3.64.69-6.06.99-7.27.12-.42.18-.81.18-1.17,0-1.2-.45-2.15-1.35-2.84-.9-.69-1.93-1.04-3.07-1.04-1.08,0-2.11.35-3.07,1.04-.96.69-1.66,1.79-2.08,3.3-.3,1.2-.69,3.46-1.17,6.77-.29,2.01-.49,4.15-.6,6.39-.75,2.54-1.65,5.17-2.73,7.87-2.89,7.34-5.87,11.01-8.94,11.01-.84,0-1.41-.36-1.71-1.08-.3-.72-.45-1.65-.45-2.8,0-2.35.36-5.36,1.08-9.03.96-5.66,1.44-9.93,1.44-12.82s-.53-5.43-1.58-7.45c-1.05-2.02-3.06-3.02-6-3.02-3.85,0-7.03,1.34-9.52,4.02-2.5,2.68-4.44,5.91-5.82,9.7-.9-9.27-3.64-13.9-8.21-13.9-3.19,0-5.96,1.58-8.3,4.74-2.35,3.16-4.15,6.91-5.42,11.24.36-5.24.81-8.88,1.35-10.92.12-.42.18-.81.18-1.17,0-1.14-.47-2.08-1.4-2.8-.93-.72-1.97-1.08-3.11-1.08-1.02,0-2.02.35-2.98,1.04-.96.69-1.66,1.79-2.08,3.3-.05.18-.1.4-.15.64-.25.09-.49.25-.72.49-.39.39-.62.95-.68,1.67-.9,7.76-2.2,14.47-3.88,20.13-1.69,5.66-3.28,8.48-4.78,8.48-2.05,0-3.07-4.03-3.07-12.1,0-3.79.18-7.52.54-11.19.36-3.67.69-6.14.99-7.4.12-.42.18-.81.18-1.17,0-1.2-.45-2.15-1.35-2.84-.9-.69-1.93-1.04-3.07-1.04-1.99,0-3.49.93-4.51,2.8-1.69-3.25-4.21-4.87-7.58-4.87-3.79,0-7.1,1.46-9.93,4.38-1.09,1.12-2.05,2.38-2.95,3.71-.02.02-.04.02-.06.04-.12.12-.2.27-.26.43-1.3,2.01-2.43,4.23-3.32,6.7-1.21,3.36-1.95,6.67-2.22,9.93-.14.33-.27.66-.42.99-1.62,3.73-3.48,6.97-5.55,9.7s-4.2,4.11-6.36,4.11c-1.69-.06-2.53-.75-2.53-2.08,0-1.14.45-2.59,1.35-4.33.9-1.74,1.97-3.64,3.2-5.69,1.23-2.05,2.36-4.08,3.39-6.09,1.02-2.02,1.53-3.75,1.53-5.19,0-.66-.15-1.23-.45-1.72-.96-1.02-2.77-1.96-5.42-2.8-3.07-.96-5.75-2.35-8.03-4.15.36-1.32.54-2.5.54-3.52,0-1.62-.36-2.84-1.08-3.66-.72-.81-1.57-1.22-2.53-1.22-.9,0-1.78.38-2.62,1.13-.84.75-1.44,1.88-1.81,3.39-.18.78-.27,1.57-.27,2.35,0,2.14.72,4.08,2.14,5.83-.04.26-.08.52-.12.81-.33,2.14-.84,4.65-1.53,7.54-.69,2.89-1.62,5.73-2.8,8.53-1.17,2.8-2.59,5.14-4.24,7.04-1.66,1.9-3.63,2.84-5.91,2.84-1.93,0-3.31-1.31-4.15-3.93-.84-2.62-1.26-5.73-1.26-9.34,0-2.05.12-4.15.36-6.32,4.45-1.14,7.66-3.02,9.61-5.64,1.96-2.62,2.93-5.22,2.93-7.81,0-2.23-.59-4.14-1.76-5.73-1.17-1.59-2.81-2.39-4.92-2.39-3.43,0-6.44,1.39-9.03,4.15-2.59,2.77-4.6,6.23-6.05,10.38-1.44,4.15-2.17,8.37-2.17,12.64,0,.48.03.95.06,1.42-.25.65-.5,1.3-.78,1.97-1.87,4.48-4.29,8.38-7.27,11.69-2.98,3.31-6.64,5.09-10.97,5.33h-.18c-2.95,0-5.39-1.46-7.31-4.38-1.93-2.92-3.36-6.77-4.29-11.56-.93-4.78-1.4-9.97-1.4-15.57s.47-11.51,1.4-17.38c.93-5.87,2.32-11.24,4.15-16.11,1.83-4.87,4.09-8.81,6.77-11.83,2.68-3.01,5.76-4.51,9.25-4.51,2.59,0,4.47.89,5.64,2.66,1.17,1.78,1.76,3.93,1.76,6.45,0,2.77-.6,5.61-1.81,8.53-1.2,2.92-2.89,5.4-5.05,7.45-2.17,2.05-4.64,3.07-7.4,3.07-.54,0-.95.14-1.22.41s-.41.56-.41.86c0,.36.12.66.36.9.24.24.57.36.99.36,3.49,0,6.57-1.16,9.25-3.48,2.68-2.32,4.75-5.19,6.23-8.62,1.47-3.43,2.21-6.77,2.21-10.02s-.84-6.15-2.53-8.53c-1.69-2.38-4.42-3.57-8.21-3.57-4.94,0-9.51,1.67-13.72,5.01-4.21,3.34-7.85,7.72-10.92,13.13-3.07,5.42-5.46,11.36-7.18,17.83-1.72,6.47-2.57,12.83-2.57,19.09s.87,11.57,2.62,16.65c1.74,5.09,4.54,9.16,8.39,12.23,3.85,3.07,8.85,4.6,14.98,4.6,3.61,0,6.8-1.04,9.57-3.11,2.77-2.08,5.16-4.74,7.18-7.99,1.2-1.94,2.27-3.97,3.23-6.06.19.74.4,1.46.65,2.17.99,2.83,2.57,5.12,4.74,6.86,2.17,1.75,4.96,2.62,8.39,2.62,7.1,0,12.25-4.45,15.44-13.36,1.76-5,2.84-10.29,3.24-15.86,1.88,1.38,4.35,2.43,7.43,3.14-2.53,1.62-4.54,4-6.05,7.13-1.5,3.13-2.26,6.23-2.26,9.3,0,2.59.66,4.83,1.99,6.72,1.32,1.9,3.52,2.87,6.59,2.93,3.55,0,6.66-1.35,9.34-4.06,2.22-2.24,4.12-4.9,5.74-7.93.2,1.46.51,2.86.97,4.19.81,2.38,2.06,4.27,3.75,5.69,1.68,1.41,3.85,2.12,6.5,2.12,2.17,0,4.05-.69,5.64-2.08,1.59-1.38,2.96-3.17,4.11-5.37,1.14-2.2,2.11-4.56,2.89-7.09.24,2.65.72,5.05,1.44,7.22s1.76,3.93,3.11,5.28c1.35,1.35,3.14,2.03,5.37,2.03,4.15,0,7.49-3.58,10.02-10.74.46-1.31.9-2.66,1.29-4.08.4,4.87,1.45,8.64,3.15,11.3,1.62,2.41,3.43,3.61,5.42,3.61,2.11-.12,3.16-1.32,3.16-3.61,0-.78-.18-1.72-.54-2.8-.48-1.92-.72-3.94-.72-6.05,0-5.36,1.16-10.59,3.48-15.71,2.32-5.11,4.56-7.67,6.73-7.67,1.56,0,2.35,3.22,2.35,9.66,0,3.79-.15,7.88-.45,12.28-.24,3.55-.36,6.47-.36,8.76,0,1.57.59,2.83,1.76,3.79,1.17.96,2.39,1.44,3.66,1.44,1.02,0,1.94-.36,2.75-1.08.81-.72,1.22-1.87,1.22-3.43.12-6.08.96-11.88,2.53-17.42,1.26-4.33,2.83-7.96,4.69-10.88,1.86-2.92,3.79-4.38,5.78-4.38,1.32,0,1.99.78,1.99,2.35,0,2.11-.63,5.18-1.9,9.21-.72,2.47-1.39,5.07-1.99,7.81-.6,2.74-.9,5.28-.9,7.63,0,2.89.66,5.28,1.99,7.18,1.32,1.9,3.79,2.84,7.4,2.84,5.42,0,9.72-3.28,12.91-9.84.69-1.42,1.32-2.92,1.89-4.48.14,1.38.33,2.74.59,4.07.57,2.98,1.59,5.43,3.07,7.36,1.47,1.93,3.57,2.89,6.27,2.89,3.8,0,6.92-3.01,9.36-9.01,1,2.61,2.5,4.75,4.54,6.39,2.17,1.75,4.96,2.62,8.39,2.62,7.1,0,12.25-4.45,15.44-13.36.11-.3.2-.61.3-.91.52,4.66,1.66,8.46,3.47,11.38,1.26,1.93,3.13,2.89,5.6,2.89,1.38,0,2.6-.32,3.66-.95,1.05-.63,1.58-1.37,1.58-2.21,0-.36-.09-.71-.27-1.04-.18-.33-.33-.65-.45-.95-.72-2.11-1.08-4.33-1.08-6.68,0-3.85.8-7.7,2.39-11.55,1.59-3.85,3.49-7.06,5.69-9.61,2.2-2.56,4.2-3.84,6-3.84.36,0,.72.06,1.08.18.36.12.54.54.54,1.26,0,1.5-.57,4.03-1.72,7.58-.72,2.59-1.41,5.36-2.08,8.3-.66,2.95-.99,5.78-.99,8.49,0,3.07.71,5.67,2.12,7.81,1.41,2.14,4.05,3.21,7.9,3.21,5.6,0,10.02-3.49,13.27-10.47.19-.41.37-.84.56-1.26.19.76.41,1.51.67,2.25.99,2.83,2.57,5.12,4.74,6.86,2.17,1.75,4.96,2.62,8.39,2.62,7.1,0,12.25-4.45,15.44-13.36,2.29-6.5,3.43-13.48,3.43-20.94-.18-1.14-.51-1.71-.99-1.71ZM322.11,67.64c1.2-2.74,2.56-4.11,4.06-4.11.48,0,.87.32,1.17.95.3.63.45,1.43.45,2.39,0,1.75-.63,3.72-1.9,5.91-1.26,2.2-3.43,3.78-6.5,4.74.6-3.85,1.5-7.14,2.71-9.88ZM60.58,67.64c1.2-2.74,2.56-4.11,4.06-4.11.48,0,.87.32,1.17.95.3.63.45,1.43.45,2.39,0,1.75-.63,3.72-1.9,5.91-1.26,2.2-3.43,3.78-6.5,4.74.6-3.85,1.5-7.14,2.71-9.88ZM80.81,64.25l.63,2.71c-.42-.78-.63-1.68-.63-2.71ZM123.54,86.01c-1.08,3.13-2.29,5.91-3.61,8.35-1.32,2.44-2.62,3.66-3.88,3.66-1.93,0-2.89-1.99-2.89-5.96,0-3.07.56-6.68,1.67-10.83,1.11-4.15,2.5-7.79,4.15-10.92,1.65-3.13,3.3-4.69,4.92-4.69,1.44,0,2.17,4.03,2.17,12.1-.6,2.41-1.44,5.18-2.53,8.3ZM654.1,60.91c1.2,0,2.24-.44,3.12-1.31.87-.87,1.31-1.94,1.31-3.2s-.44-2.24-1.31-3.11c-.87-.87-1.91-1.31-3.12-1.31-1.26,0-2.33.44-3.2,1.31-.87.87-1.31,1.91-1.31,3.11,0,1.26.44,2.33,1.31,3.2.87.87,1.94,1.31,3.2,1.31ZM562.74,24.8l-.9-.09c-2.59,0-5.02.98-7.31,2.93-2.29,1.96-4.36,4.56-6.23,7.81-1.87,3.25-3.52,6.89-4.96,10.92v-1.62c0-5.42-.59-9.97-1.76-13.68-1.17-3.7-3.35-5.79-6.54-6.27l-1.08-.09c-2.83,0-5.48,1.17-7.94,3.52-2.47,2.35-4.68,5.43-6.63,9.25-1.96,3.82-3.66,8.02-5.1,12.59-.18-4.15-.77-7.88-1.76-11.19-.99-3.31-2.59-5.94-4.78-7.9-2.2-1.95-5.22-2.93-9.07-2.93-4.09,0-7.42,1.02-9.98,3.07-2.56,2.05-4.44,4.68-5.64,7.9-1.2,3.22-1.81,6.58-1.81,10.07,0,4.39.81,8.52,2.44,12.37,1.62,3.85,3.91,6.62,6.86,8.3.36.18.66.27.9.27.48,0,.84-.14,1.08-.41.24-.27.36-.59.36-.95,0-.3-.12-.57-.36-.81-2.23-1.99-3.91-4.65-5.05-7.99-1.14-3.34-1.72-6.78-1.72-10.34,0-3.07.44-5.94,1.31-8.62.87-2.68,2.18-4.86,3.93-6.54,1.74-1.68,3.97-2.53,6.68-2.53,2.05,0,3.43.96,4.15,2.89.72,1.93,1.08,4.48,1.08,7.67,0,3.97-.3,8.67-.9,14.08-.84,8.79-1.26,15.32-1.26,19.59,0,11.5,2.23,20.16,6.68,26,1.08,1.14,2.2,1.72,3.34,1.72.84,0,1.58-.24,2.21-.72.63-.48.95-1.02.95-1.62,0-.3-.06-.57-.18-.81-.96-2.47-1.44-5.81-1.44-10.02,0-10.41,1.44-21.15,4.33-32.23,1.93-7.58,4.2-14.08,6.82-19.5,2.62-5.42,5.19-8.12,7.72-8.12.9,0,1.5.51,1.81,1.53.3,1.02.45,2.38.45,4.06,0,3.37-.36,7.88-1.08,13.54-1.14,9.81-1.72,17.78-1.72,23.92,0,3.79.24,7.46.72,11.01.3,1.75,1.1,3.07,2.39,3.97,1.29.9,2.6,1.35,3.93,1.35,1.74,0,2.62-.81,2.62-2.44,0-9.51,1.5-19.8,4.51-30.87,1.92-7.22,4.15-13.39,6.68-18.51,2.53-5.11,4.96-7.67,7.31-7.67l.54.09c.6.12.9.9.9,2.35,0,2.95-.81,7.97-2.44,15.08-1.2,5.72-2.39,12.08-3.57,19.09-1.17,7.01-1.76,13.92-1.76,20.72,0,10.83,2.01,19.14,6.05,24.91,1.38,1.87,2.81,3.19,4.29,3.97,1.47.78,2.72,1.17,3.75,1.17,1.14-.06,1.71-.39,1.71-.99,0-.36-.27-.78-.81-1.26-2.77-2.35-4.15-7.22-4.15-14.62,0-4.27.36-9.07,1.08-14.4s1.53-10.77,2.44-16.34c.9-5.57,1.7-10.95,2.39-16.16.69-5.2,1.04-9.91,1.04-14.13s-.56-7.96-1.67-10.7c-1.11-2.74-3.06-4.29-5.82-4.65ZM459.02,67.14c-.42,0-.83.2-1.22.59-.39.39-.62.95-.68,1.67-.9,7.76-2.2,14.47-3.88,20.13-1.69,5.66-3.28,8.48-4.78,8.48-2.05,0-3.07-4.03-3.07-12.1,0-3.79.18-7.52.54-11.19.36-3.67.69-6.14.99-7.4.12-.42.18-.81.18-1.17,0-1.2-.45-2.15-1.35-2.84-.9-.69-1.93-1.04-3.07-1.04-1.99,0-3.49.93-4.51,2.8-1.68-3.25-4.21-4.87-7.58-4.87-3.79,0-7.1,1.46-9.93,4.38-2.83,2.92-5.02,6.54-6.59,10.88-1.56,4.33-2.35,8.58-2.35,12.73,0,1.63.15,3.18.42,4.66-.3.58-.6,1.16-.92,1.7-1.66,2.86-3.48,4.29-5.46,4.29-2.29-.18-3.43-4.51-3.43-13,0-6.08.6-12.91,1.81-20.49,4.33-2.23,7.87-5.63,10.61-10.2,2.74-4.57,4.11-8.63,4.11-12.19,0-1.74-.41-3.17-1.22-4.29-.81-1.11-2.09-1.67-3.84-1.67-2.77,0-5.42,1.32-7.94,3.97-2.53,2.65-4.8,6.08-6.82,10.29-2.02,4.21-3.66,8.82-4.92,13.81-1.57-3.25-4.09-4.87-7.58-4.87-3.79,0-7.1,1.46-9.93,4.38-2.83,2.92-5.02,6.54-6.59,10.88-1.56,4.33-2.35,8.61-2.35,12.82,0,2.77.39,5.34,1.17,7.72.78,2.38,2.02,4.27,3.7,5.69,1.68,1.41,3.88,2.12,6.59,2.12,2.23,0,4.15-.75,5.78-2.26,1.62-1.5,3.02-3.4,4.2-5.69,1.17-2.29,2.15-4.72,2.93-7.31.48,4.51,1.72,8.19,3.7,11.01,1.99,2.83,4.9,4.24,8.76,4.24,2.65,0,4.96-1.17,6.95-3.52.74-.87,1.42-1.84,2.07-2.86.79,1.72,1.83,3.14,3.16,4.26,1.68,1.41,3.85,2.12,6.5,2.12,2.17,0,4.05-.69,5.64-2.08,1.59-1.38,2.96-3.17,4.11-5.37,1.14-2.2,2.11-4.56,2.89-7.09.24,2.65.72,5.05,1.44,7.22.72,2.17,1.76,3.93,3.12,5.28s3.14,2.03,5.37,2.03c4.15,0,7.49-3.58,10.02-10.74,1.87-5.23,3.19-11.34,3.97-18.32.36-2.95.54-4.87.54-5.78-.18-1.2-.6-1.81-1.26-1.81ZM409.11,46.83c1.74-4.21,3.64-6.32,5.69-6.32.9.12,1.35.81,1.35,2.08,0,2.23-1.11,5.45-3.34,9.66-2.23,4.21-4.91,7.52-8.03,9.93,1.14-6.02,2.59-11.13,4.33-15.35ZM389.25,85.46c-1.08,3.13-2.29,5.91-3.61,8.35-1.32,2.44-2.62,3.66-3.88,3.66-1.93,0-2.89-1.99-2.89-5.96,0-3.07.56-6.68,1.67-10.83,1.11-4.15,2.5-7.79,4.15-10.92,1.65-3.13,3.3-4.69,4.92-4.69,1.44,0,2.17,4.03,2.17,12.1-.6,2.41-1.44,5.18-2.53,8.3ZM433.3,85.46c-1.08,3.13-2.29,5.91-3.61,8.35-1.32,2.44-2.62,3.66-3.88,3.66-1.93,0-2.89-1.99-2.89-5.96,0-3.07.56-6.68,1.67-10.83,1.11-4.15,2.5-7.79,4.15-10.92,1.65-3.13,3.3-4.69,4.92-4.69,1.45,0,2.17,4.03,2.17,12.1-.6,2.41-1.44,5.18-2.53,8.3ZM701.52,69.31c-.42,0-.81.39-1.17,1.17-1.81,4.39-5.72,7.4-11.74,9.03-.24-3.43-.9-6.63-1.99-9.61-1.08-2.98-2.57-5.42-4.47-7.31s-4.2-2.84-6.91-2.84c-2.47,0-4.33.92-5.6,2.75-.97,1.41-1.56,2.99-1.79,4.74-.24.09-.48.25-.72.5-.39.39-.65.95-.77,1.67-.9,7.76-2.18,14.47-3.84,20.13-1.66,5.66-3.24,8.48-4.74,8.48-2.11,0-3.16-4.09-3.16-12.28,0-3.79.18-7.51.54-11.15.36-3.64.69-6.06.99-7.27.12-.42.18-.81.18-1.17,0-1.2-.45-2.15-1.35-2.84-.9-.69-1.93-1.04-3.07-1.04-1.08,0-2.11.35-3.07,1.04-.96.69-1.66,1.79-2.08,3.3-.3,1.2-.69,3.46-1.17,6.77-.2,1.37-.35,2.79-.46,4.26-.95,2.75-2.09,5.66-3.43,8.74-1.63,3.73-3.48,6.97-5.55,9.7s-4.2,4.11-6.36,4.11c-1.69-.06-2.53-.75-2.53-2.08,0-1.14.45-2.59,1.35-4.33.9-1.74,1.97-3.64,3.2-5.69,1.23-2.05,2.36-4.08,3.39-6.09,1.02-2.02,1.54-3.75,1.54-5.19,0-.66-.15-1.23-.45-1.72-.96-1.02-2.77-1.96-5.42-2.8-3.07-.96-5.75-2.35-8.03-4.15.36-1.32.54-2.5.54-3.52,0-1.62-.36-2.84-1.08-3.66-.72-.81-1.57-1.22-2.53-1.22-.9,0-1.78.38-2.62,1.13-.84.75-1.44,1.88-1.81,3.39-.18.78-.27,1.57-.27,2.35,0,1.71.47,3.3,1.38,4.76-.89,6.93-2.1,12.99-3.64,18.16-1.69,5.66-3.28,8.48-4.78,8.48-2.05,0-3.07-4.03-3.07-12.1,0-3.79.18-7.52.54-11.19.36-3.67.69-6.14.99-7.4.12-.42.18-.81.18-1.17,0-1.2-.45-2.15-1.35-2.84-.9-.69-1.93-1.04-3.07-1.04-1.99,0-3.49.93-4.51,2.8-1.68-3.25-4.21-4.87-7.58-4.87-3.79,0-7.1,1.46-9.93,4.38-2.83,2.92-5.02,6.54-6.59,10.88-1.56,4.33-2.35,8.58-2.35,12.73,0,2.83.41,5.43,1.22,7.81.81,2.38,2.06,4.27,3.75,5.69,1.68,1.41,3.85,2.12,6.5,2.12,2.17,0,4.05-.69,5.64-2.08,1.59-1.38,2.96-3.17,4.11-5.37,1.14-2.2,2.11-4.56,2.89-7.09.24,2.65.72,5.05,1.44,7.22.72,2.17,1.76,3.93,3.12,5.28s3.14,2.03,5.37,2.03c4.15,0,7.49-3.58,10.02-10.74,1.87-5.23,3.19-11.34,3.97-18.32.01-.09.02-.17.03-.25,1.9,1.42,4.41,2.51,7.55,3.23-2.53,1.62-4.54,4-6.05,7.13-1.5,3.13-2.26,6.23-2.26,9.3,0,2.59.66,4.83,1.99,6.72s3.52,2.87,6.59,2.93c3.55,0,6.66-1.35,9.34-4.06,2.68-2.71,4.92-5.99,6.72-9.84.61-1.3,1.16-2.6,1.67-3.89.09,2.6.35,5.12.82,7.55.57,2.98,1.59,5.43,3.07,7.36,1.47,1.93,3.57,2.89,6.27,2.89,4.15,0,7.49-3.58,10.02-10.74.4-1.13.77-2.31,1.12-3.52,0,.09,0,.18,0,.27,0,2.29.33,4.41.99,6.36.66,1.96,1.76,3.54,3.3,4.74,1.53,1.2,3.6,1.81,6.18,1.81s4.95-.96,6.72-2.89c1.77-1.92,3.1-4.42,3.97-7.49s1.31-6.29,1.31-9.66v-1.08c4.03-.96,7.28-2.5,9.75-4.6,2.47-2.11,3.76-4.3,3.88-6.59-.12-.72-.39-1.08-.81-1.08ZM592.89,85.46c-1.08,3.13-2.29,5.91-3.61,8.35-1.32,2.44-2.62,3.66-3.88,3.66-1.93,0-2.89-1.99-2.89-5.96,0-3.07.56-6.68,1.67-10.83,1.11-4.15,2.5-7.79,4.15-10.92,1.65-3.13,3.3-4.69,4.92-4.69,1.45,0,2.17,4.03,2.17,12.1-.6,2.41-1.44,5.18-2.53,8.3ZM620.87,63.71l.63,2.71c-.42-.78-.63-1.68-.63-2.71ZM668.73,77.52c.13-.92.25-1.85.36-2.8,0-.01,0-.02,0-.04.15.34.29.69.47,1.03-.3.6-.57,1.2-.83,1.81ZM671.82,72.38c-.48-1.44-.72-2.8-.72-4.06,0-1.62.36-3.01,1.08-4.15.72-1.14,1.81-1.72,3.25-1.72,2.11,0,3.9.84,5.37,2.53,1.47,1.69,2.63,3.87,3.48,6.55.84,2.68,1.35,5.52,1.53,8.53-1.02.18-2.05.27-3.07.27-2.41,0-4.33-.42-5.78-1.26.9-3.37,1.92-5.63,3.07-6.77.18-.18.27-.36.27-.54,0-.42-.32-.83-.95-1.22-.63-.39-1.46-.59-2.48-.59-1.21,0-2.56.48-4.06,1.44-.36.3-.69.63-.99.99ZM685.9,82.94c0,4.27-.65,8.12-1.94,11.56-1.3,3.43-3.18,5.14-5.64,5.14-1.99,0-2.98-2.71-2.98-8.12,0-3.13.36-6.5,1.08-10.11,1.44.54,3.01.81,4.69.81h1.26c1.2,0,2.38-.06,3.52-.18v.9Z"/>
</svg>